0
SECTION
2
HEADER
9
$ACADVER
1
AC1015
9
$ACADMAINTVER
 70
6
9
$DWGCODEPAGE
3
ANSI_932
9
$EXTMIN
10
0.000
20
0.000
30
0.0
9
$EXTMAX
10
420.000
20
297.000
30
0.0
9
$LIMMIN
10
0.000
20
0.000
9
$LIMMAX
10
420.000
20
297.000
9
$DIMSCALE
40
1.000000
9
$LTSCALE
40
2.000
9
$PDMODE
70
0
9
$PDSIZE
40
40.0
9
$HANDSEED
5
61d65
9
$UNITMODE
70
0
9
$VISRETAIN
70
0
9
$PLINEGEN
70
0
9
$PSLTSCALE
70
1
9
$TREEDEPTH
70
3020
9
$CMLSTYLE
2
STANDARD
9
$CMLJUST
70
0
9
$CMLSCALE
40
1.0
9
$PROXYGRAPHICS
70
1
9
$MEASUREMENT
70
0
9
$CELWEIGHT
370
-1
9
$ENDCAPS
280
0
9
$JOINSTYLE
280
0
9
$LWDISPLAY
290
0
9
$INSUNITS
70
0
9
$HYPERLINKBASE
1

9
$STYLESHEET
1

9
$XEDIT
290
1
9
$CEPSNTYPE
380
0
9
$PSTYLEMODE
290
1
9
$FINGERPRINTGUID
2
{5F082321-0195-11D3-BDFB-0060B0CD5109}
9
$VERSIONGUID
2
{12943756-294D-11D3-98C2-0060B087942D}
9
$EXTNAMES
290
1
9
$PSVPSCALE
40
0.0
9
$OLESTARTUP
290
0
0
ENDSEC
0
SECTION
  2
CLASSES
0
ENDSEC
0
SECTION
2
TABLES
0
TABLE
2
VPORT
5
190
100
AcDbSymbolTable
70
2
0
VPORT
5
191
100
AcDbSymbolTableRecord
100
AcDbViewportTableRecord
2
*ACTIVE
70
0
10
0.0
20
0.0
11
1.0
21
1.0
12
210.000
22
148.500
13
0.0
23
0.0
14
1.0
24
1.0
15
0.0
25
0.0
16
0.0
26
0.0
36
1.0
17
0.0
27
0.0
37
0.0
40
304.348
41
2.0
42
50.0
43
0.0
44
0.0
50
0.0
51
0.0
71
0
72
1000
73
1
74
1
75
0
76
0
77
0
78
0
0
ENDTAB
0
TABLE
2
LTYPE
5
1f4
100
AcDbSymbolTable
70
9
0
LTYPE
5
1f5
100
AcDbSymbolTableRecord
100
AcDbLinetypeTableRecord
2
BYBLOCK
70
 64
3

72
 65
73
  0
40
0.0
0
LTYPE
5
1f6
100
AcDbSymbolTableRecord
100
AcDbLinetypeTableRecord
2
BYLAYER
70
 64
3

72
 65
73
  0
40
0.0
0
LTYPE
5
1f7
100
AcDbSymbolTableRecord
100
AcDbLinetypeTableRecord
2
CONTINUOUS
70
64
3
SolidLine
72
65
73
0
40
0.0
0
LTYPE
5
1f8
100
AcDbSymbolTableRecord
100
AcDbLinetypeTableRecord
2
DOT
70
64
3
--  --  --  --  --  --  --  --     
72
65
73
2
40
3.000
49
1.000
74
0
49
-2.000
74
0
0
LTYPE
5
1f9
100
AcDbSymbolTableRecord
100
AcDbLinetypeTableRecord
2
DASHED
70
64
3
----    ----    ----    ----    
72
65
73
2
40
5.000
49
2.000
74
0
49
-3.000
74
0
0
LTYPE
5
1fa
100
AcDbSymbolTableRecord
100
AcDbLinetypeTableRecord
2
DASHED2
70
64
3
------  ------  ------  ------ 
72
65
73
2
40
10.000
49
4.000
74
0
49
-6.000
74
0
0
LTYPE
5
1fb
100
AcDbSymbolTableRecord
100
AcDbLinetypeTableRecord
2
CENTER
70
64
3
----- - ----- - ----- - ----- - 
72
65
73
4
40
10.000
49
6.000
74
0
49
-3.000
74
0
49
1.000
74
0
49
-3.000
74
0
0
LTYPE
5
1fc
100
AcDbSymbolTableRecord
100
AcDbLinetypeTableRecord
2
CENTER2
70
64
3
----------  --  ----------  -- 
72
65
73
4
40
17.000
49
12.000
74
0
49
-5.000
74
0
49
2.000
74
0
49
-5.000
74
0
0
LTYPE
5
1fd
100
AcDbSymbolTableRecord
100
AcDbLinetypeTableRecord
2
PHANTOM
70
64
3
--- - - --- - - --- - - --- - -
72
65
73
6
40
13.000
49
5.000
74
0
49
-3.000
74
0
49
1.000
74
0
49
-3.000
74
0
49
1.000
74
0
49
-3.000
74
0
0
LTYPE
5
1fe
100
AcDbSymbolTableRecord
100
AcDbLinetypeTableRecord
2
PHANTOM2
70
64
3
--------  -  -  --------  -  -
72
65
73
6
40
20.000
49
6.000
74
0
49
-5.000
74
0
49
2.000
74
0
49
-5.000
74
0
49
2.000
74
0
49
-5.000
74
0
0
LTYPE
5
1ff
100
AcDbSymbolTableRecord
100
AcDbLinetypeTableRecord
2
HIDDEN
70
64
3
-   -   -   -   -   -   -   -   
72
65
73
2
40
3.000
49
0.500
74
0
49
-2.500
74
0
0
ENDTAB
0
TABLE
2
STYLE
5
200
100
AcDbSymbolTable
70
1
0
STYLE
5
201
100
AcDbSymbolTableRecord
100
AcDbTextStyleTableRecord
2
STANDARD
70
0
40
0.0
41
1.0
50
0.0
71
0
42
0.0
3
txt.shx
4
extfont.shx
0
STYLE
5
202
100
AcDbSymbolTableRecord
100
AcDbTextStyleTableRecord
2
TATEGAKI
70
4
40
0.0
41
1.0
50
0.0
71
0
42
0.0
3
txt.shx
4
extfont.shx
0
STYLE
5
203
100
AcDbSymbolTableRecord
100
AcDbTextStyleTableRecord
2
DIM
70
0
40
0.0
41
0.75
50
0.0
71
0
42
0.0
3
txt.shx
4
extfont.shx
0
STYLE
5
204
100
AcDbSymbolTableRecord
100
AcDbTextStyleTableRecord
2
_Gothic_
70
0
40
1.0
41
1.0
50
0.0
71
0
42
10.0
3

4

1001
ACAD
1000
MS Gothic
1071
32817
0
STYLE
5
205
100
AcDbSymbolTableRecord
100
AcDbTextStyleTableRecord
2
_TateGothic_
70
4
40
0.0
41
1.0
50
0.0
71
0
42
0.0
3
@MS Gothic
4

0
ENDTAB
0
TABLE
2
VIEW
5
206
100
AcDbSymbolTable
70
0
0
ENDTAB
0
TABLE
2
UCS
5
207
100
AcDbSymbolTable
70
0
0
ENDTAB
0
TABLE
2
APPID
5
208
100
AcDbSymbolTable
70
1
0
APPID
5
209
100
AcDbSymbolTableRecord
100
AcDbRegAppTableRecord
2
ACAD
70
0
0
ENDTAB
0
TABLE
2
DIMSTYLE
5
403
330
0
100
AcDbSymbolTable
70
1
100
AcDbDimStyleTable
71
0
0
DIMSTYLE
105
404
330
402
100
AcDbSymbolTableRecord
100
AcDbDimStyleTableRecord
2
JAC_DIM
70
0
41
2.000
42
0.000
44
0.0
73
0
74
0
77
1
78
8
79
2
140
0.000
170
0
171
2
172
0
173
0
174
0
175
0
176
0
177
0
178
0
270
2
271
0
272
0
273
2
274
2
340
201
275
0
280
0
281
0
282
0
283
0
284
0
285
0
286
0
287
3
288
0
0
ENDTAB
0
TABLE
2
BLOCK_RECORD
5
405
100
AcDbSymbolTable
70
0
0
BLOCK_RECORD
5
406
100
AcDbSymbolTableRecord
100
AcDbBlockTableRecord
2
*MODEL_SPACE
0
BLOCK_RECORD
5
407
100
AcDbSymbolTableRecord
100
AcDbBlockTableRecord
2
*PAPER_SPACE
0
BLOCK_RECORD
5
408
100
AcDbSymbolTableRecord
100
AcDbBlockTableRecord
2
_JACCONVERT_
0
ENDTAB
0
TABLE
2
LAYER
5
409
100
AcDbSymbolTable
70
10
0
LAYER
5
40a
100
AcDbSymbolTableRecord
100
AcDbLayerTableRecord
2
0
70
0
62
7
6
CONTINUOUS
370
-3
390
14
0
LAYER
5
40b
100
AcDbSymbolTableRecord
100
AcDbLayerTableRecord
2
0àÍî ê}-0
70
0
62
7
6
CONTINUOUS
370
-3
390
14
0
LAYER
5
40c
100
AcDbSymbolTableRecord
100
AcDbLayerTableRecord
2
0àÍî ê}-1
70
0
62
7
6
CONTINUOUS
370
-3
390
14
0
LAYER
5
40d
100
AcDbSymbolTableRecord
100
AcDbLayerTableRecord
2
FFÉOÉã-Év-F_J_ADD
70
0
62
-7
6
CONTINUOUS
290
0
370
-3
390
14
0
ENDTAB
0
ENDSEC
0
SECTION
2
BLOCKS
0
BLOCK
5
40e
100
AcDbEntity
67
1
8
0
100
AcDbBlockBegin
2
*MODEL_SPACE
70
0
10
0.0
20
0.0
30
0.0
3
*MODEL_SPACE
1

0
ENDBLK
5
40f
100
AcDbEntity
8
0
100
AcDbBlockEnd
0
BLOCK
5
410
100
AcDbEntity
67
1
8
0
100
AcDbBlockBegin
2
*PAPER_SPACE
70
0
10
0.0
20
0.0
30
0.0
3
*PAPER_SPACE
1

0
ENDBLK
5
411
100
AcDbEntity
67
1
8
0
100
AcDbBlockEnd
0
BLOCK
5
412
100
AcDbEntity
8
0
100
AcDbBlockBegin
2
_JACCONVERT_
70
2
10
0.0
20
0.0
30
0.0
3
_JACCONVERT_
1
_JACCONVERT_
0
ATTDEF
5
413
100
AcDbEntity
8
0
62
0
100
AcDbText
10
0.0
20
0.0
30
0.0
40
1.0
1
User:0EA0885E0900CF092
100
AcDbAttributeDefinition
3

2
USER
70
8
0
ATTDEF
5
414
100
AcDbEntity
8
0
62
0
100
AcDbText
10
0.0
20
2.0
30
0.0
40
1.0
1
Date:15/02/05 12:55
100
AcDbAttributeDefinition
3

2
REVDATE
70
8
0
ATTDEF
5
415
100
AcDbEntity
8
0
62
0
100
AcDbText
10
0.0
20
4.0
30
0.0
40
1.0
1
File:URG-04LX-UG01.dxf
100
AcDbAttributeDefinition
3

2
FNAME
70
8
0
ATTDEF
5
416
100
AcDbEntity
8
0
62
0
100
AcDbText
10
0.0
20
6.0
30
0.0
40
1.0
1
JacConvert Version3.06 copyright (c) 2001-2011 K.Nakahara
100
AcDbAttributeDefinition
3

2
VER
70
8
0
ENDBLK
5
417
100
AcDbEntity
67
1
8
0
100
AcDbBlockEnd
0
ENDSEC
0
SECTION
2
ENTITIES
0
LINE
5
418
100
AcDbEntity
8
0àÍî ê}-1
6
CENTER
62
4
100
AcDbLine
10
180.440000000000
20
81.310000000000
30
0.0
11
180.440000000000
21
85.340000000000
31
0.0
0
LINE
5
419
100
AcDbEntity
8
0àÍî ê}-1
6
CONTINUOUS
62
7
100
AcDbLine
10
222.440000000000
20
78.400000000000
30
0.0
11
178.440000000000
21
78.400000000000
31
0.0
0
LINE
5
41a
100
AcDbEntity
8
0àÍî ê}-1
6
CONTINUOUS
62
7
100
AcDbLine
10
178.440000000000
20
128.400000000000
30
0.0
11
222.440000000000
21
128.400000000000
31
0.0
0
LINE
5
41b
100
AcDbEntity
8
0àÍî ê}-1
6
CONTINUOUS
62
7
100
AcDbLine
10
225.440000000000
20
125.400000000000
30
0.0
11
225.440000000000
21
81.400000000000
31
0.0
0
LINE
5
41c
100
AcDbEntity
8
0àÍî ê}-1
6
CONTINUOUS
62
7
100
AcDbLine
10
175.440000000000
20
81.400000000000
30
0.0
11
175.440000000000
21
125.400000000000
31
0.0
0
LINE
5
41d
100
AcDbEntity
8
0àÍî ê}-1
6
CENTER
62
4
100
AcDbLine
10
169.330000000000
20
103.400000000000
30
0.0
11
229.260000000000
21
103.400000000000
31
0.0
0
LINE
5
41e
100
AcDbEntity
8
0àÍî ê}-1
6
CONTINUOUS
62
7
100
AcDbLine
10
178.440000000000
20
145.240000000000
30
0.0
11
175.440000000000
21
145.240000000000
31
0.0
0
LINE
5
41f
100
AcDbEntity
8
0àÍî ê}-1
6
CONTINUOUS
62
7
100
AcDbLine
10
178.440000000000
20
145.240000000000
30
0.0
11
222.440000000000
21
145.240000000000
31
0.0
0
LINE
5
420
100
AcDbEntity
8
0àÍî ê}-1
6
CONTINUOUS
62
7
100
AcDbLine
10
225.440000000000
20
145.240000000000
30
0.0
11
222.440000000000
21
145.240000000000
31
0.0
0
LINE
5
421
100
AcDbEntity
8
0àÍî ê}-1
6
CONTINUOUS
62
7
100
AcDbLine
10
105.400000000000
20
145.240000000000
30
0.0
11
102.400000000000
21
145.240000000000
31
0.0
0
LINE
5
422
100
AcDbEntity
8
0àÍî ê}-1
6
CONTINUOUS
62
7
100
AcDbLine
10
105.400000000000
20
145.240000000000
30
0.0
11
149.400000000000
21
145.240000000000
31
0.0
0
LINE
5
423
100
AcDbEntity
8
0àÍî ê}-1
6
CONTINUOUS
62
7
100
AcDbLine
10
152.400000000000
20
145.240000000000
30
0.0
11
149.400000000000
21
145.240000000000
31
0.0
0
LINE
5
424
100
AcDbEntity
8
0àÍî ê}-1
6
CENTER
62
4
100
AcDbLine
10
132.060000000000
20
152.140000000000
30
0.0
11
144.920000000000
21
152.140000000000
31
0.0
0
LINE
5
425
100
AcDbEntity
8
0àÍî ê}-1
6
CONTINUOUS
62
7
100
AcDbLine
10
224.350000000000
20
185.750000000000
30
0.0
11
224.420000000000
21
183.740000000000
31
0.0
0
LINE
5
426
100
AcDbEntity
8
0àÍî ê}-1
6
CONTINUOUS
62
7
100
AcDbLine
10
221.430000000000
20
183.740000000000
30
0.0
11
224.420000000000
21
183.740000000000
31
0.0
0
LINE
5
427
100
AcDbEntity
8
0àÍî ê}-1
6
CONTINUOUS
62
7
100
AcDbLine
10
176.460000000000
20
183.740000000000
30
0.0
11
176.530000000000
21
185.750000000000
31
0.0
0
LINE
5
428
100
AcDbEntity
8
0àÍî ê}-1
6
CONTINUOUS
62
7
100
AcDbLine
10
176.460000000000
20
183.740000000000
30
0.0
11
179.460000000000
21
183.740000000000
31
0.0
0
LINE
5
429
100
AcDbEntity
8
0àÍî ê}-1
6
CONTINUOUS
62
7
100
AcDbLine
10
221.430000000000
20
183.740000000000
30
0.0
11
179.460000000000
21
183.740000000000
31
0.0
0
LINE
5
42a
100
AcDbEntity
8
0àÍî ê}-1
6
CONTINUOUS
62
7
100
AcDbLine
10
179.250000000000
20
186.240000000000
30
0.0
11
177.030000000000
21
186.240000000000
31
0.0
0
LINE
5
42b
100
AcDbEntity
8
0àÍî ê}-1
6
CONTINUOUS
62
7
100
AcDbLine
10
179.450000000000
20
186.430000000000
30
0.0
11
179.870000000000
21
198.550000000000
31
0.0
0
LINE
5
42c
100
AcDbEntity
8
0àÍî ê}-1
6
CONTINUOUS
62
7
100
AcDbLine
10
220.720000000000
20
186.240000000000
30
0.0
11
221.360000000000
21
186.240000000000
31
0.0
0
LINE
5
42d
100
AcDbEntity
8
0àÍî ê}-1
6
CONTINUOUS
62
7
100
AcDbLine
10
221.430000000000
20
186.430000000000
30
0.0
11
221.010000000000
21
198.550000000000
31
0.0
0
LINE
5
42e
100
AcDbEntity
8
0àÍî ê}-1
6
CONTINUOUS
62
7
100
AcDbLine
10
221.630000000000
20
186.240000000000
30
0.0
11
223.850000000000
21
186.240000000000
31
0.0
0
LINE
5
42f
100
AcDbEntity
8
0àÍî ê}-1
6
CONTINUOUS
62
7
100
AcDbLine
10
185.280000000000
20
186.240000000000
30
0.0
11
221.630000000000
21
186.240000000000
31
0.0
0
LINE
5
430
100
AcDbEntity
8
0àÍî ê}-1
6
CONTINUOUS
62
7
100
AcDbLine
10
179.250000000000
20
186.240000000000
30
0.0
11
185.280000000000
21
186.240000000000
31
0.0
0
LINE
5
431
100
AcDbEntity
8
0àÍî ê}-1
6
CONTINUOUS
62
7
100
AcDbLine
10
176.440000000000
20
183.540000000000
30
0.0
11
224.440000000000
21
183.540000000000
31
0.0
0
LINE
5
432
100
AcDbEntity
8
0àÍî ê}-1
6
CONTINUOUS
62
7
100
AcDbLine
10
176.440000000000
20
183.540000000000
30
0.0
11
175.440000000000
21
145.240000000000
31
0.0
0
LINE
5
433
100
AcDbEntity
8
0àÍî ê}-1
6
CONTINUOUS
62
7
100
AcDbLine
10
224.440000000000
20
183.540000000000
30
0.0
11
225.440000000000
21
145.240000000000
31
0.0
0
LINE
5
434
100
AcDbEntity
8
0àÍî ê}-1
6
CONTINUOUS
62
7
100
AcDbLine
10
223.940000000000
20
183.740000000000
30
0.0
11
223.940000000000
21
183.540000000000
31
0.0
0
LINE
5
435
100
AcDbEntity
8
0àÍî ê}-1
6
CONTINUOUS
62
7
100
AcDbLine
10
176.940000000000
20
183.740000000000
30
0.0
11
176.940000000000
21
183.540000000000
31
0.0
0
LINE
5
436
100
AcDbEntity
8
0àÍî ê}-1
6
CENTER
62
4
100
AcDbLine
10
200.440000000000
20
141.970000000000
30
0.0
11
200.440000000000
21
218.580000000000
31
0.0
0
LINE
5
437
100
AcDbEntity
8
0àÍî ê}-1
6
CONTINUOUS
62
7
100
AcDbLine
10
221.360000000000
20
286.640000000000
30
0.0
11
205.070000000000
21
286.640000000000
31
0.0
0
LINE
5
438
100
AcDbEntity
8
0àÍî ê}-1
6
CONTINUOUS
62
7
100
AcDbLine
10
204.460000000000
20
285.130000000000
30
0.0
11
205.130000000000
21
285.790000000000
31
0.0
0
LINE
5
439
100
AcDbEntity
8
0àÍî ê}-1
6
CONTINUOUS
62
7
100
AcDbLine
10
205.130000000000
20
285.790000000000
30
0.0
11
205.130000000000
21
285.790000000000
31
0.0
0
POLYLINE
5
43a
100
AcDbEntity
8
0àÍî ê}-1
6
CONTINUOUS
62
  7
100
AcDb2dPolyline
66
1
10
0.0
20
0.0
30
0.0
70
0
0
VERTEX
5
43b
100
AcDbEntity
8
0àÍî ê}-1
6
CONTINUOUS
62
  7
100
AcDbVertex
100
AcDb2dVertex
10
196.420000000000
20
285.240000000000
30
0.0
0
VERTEX
5
43c
100
AcDbEntity
8
0àÍî ê}-1
6
CONTINUOUS
62
  7
100
AcDbVertex
100
AcDb2dVertex
10
195.760000000000
20
285.910000000000
30
0.0
0
VERTEX
5
43d
100
AcDbEntity
8
0àÍî ê}-1
6
CONTINUOUS
62
  7
100
AcDbVertex
100
AcDb2dVertex
10
195.760000000000
20
285.910000000000
30
0.0
0
SEQEND
5
43e
100
AcDbEntity
8
0àÍî ê}-1
0
LINE
5
43f
100
AcDbEntity
8
0àÍî ê}-1
6
CONTINUOUS
62
7
100
AcDbLine
10
205.500000000000
20
285.170000000000
30
0.0
11
205.500000000000
21
285.190000000000
31
0.0
0
LINE
5
440
100
AcDbEntity
8
0àÍî ê}-1
6
CONTINUOUS
62
7
100
AcDbLine
10
195.400000000000
20
283.620000000000
30
0.0
11
195.400000000000
21
284.650000000000
31
0.0
0
LINE
5
441
100
AcDbEntity
8
0àÍî ê}-1
6
CONTINUOUS
62
7
100
AcDbLine
10
205.130000000000
20
285.790000000000
30
0.0
11
205.130000000000
21
286.410000000000
31
0.0
0
LINE
5
442
100
AcDbEntity
8
0àÍî ê}-1
6
CONTINUOUS
62
7
100
AcDbLine
10
195.760000000000
20
286.410000000000
30
0.0
11
195.760000000000
21
285.910000000000
31
0.0
0
LINE
5
443
100
AcDbEntity
8
0àÍî ê}-1
6
CONTINUOUS
62
7
100
AcDbLine
10
205.490000000000
20
283.620000000000
30
0.0
11
205.490000000000
21
284.650000000000
31
0.0
0
LINE
5
444
100
AcDbEntity
8
0àÍî ê}-1
6
CONTINUOUS
62
7
100
AcDbLine
10
196.250000000000
20
286.910000000000
30
0.0
11
204.630000000000
21
286.910000000000
31
0.0
0
LINE
5
445
100
AcDbEntity
8
0àÍî ê}-1
6
CONTINUOUS
62
7
100
AcDbLine
10
205.620000000000
20
285.290000000000
30
0.0
11
205.610000000000
21
285.280000000000
31
0.0
0
LINE
5
446
100
AcDbEntity
8
0àÍî ê}-1
6
CONTINUOUS
62
7
100
AcDbLine
10
205.620000000000
20
285.290000000000
30
0.0
11
205.620000000000
21
285.290000000000
31
0.0
0
LINE
5
447
100
AcDbEntity
8
0àÍî ê}-1
6
CONTINUOUS
62
7
100
AcDbLine
10
221.430000000000
20
239.240000000000
30
0.0
11
179.460000000000
21
239.240000000000
31
0.0
0
LINE
5
448
100
AcDbEntity
8
0àÍî ê}-1
6
CONTINUOUS
62
7
100
AcDbLine
10
176.460000000000
20
242.240000000000
30
0.0
11
176.460000000000
21
284.210000000000
31
0.0
0
LINE
5
449
100
AcDbEntity
8
0àÍî ê}-1
6
CONTINUOUS
62
7
100
AcDbLine
10
224.420000000000
20
284.210000000000
30
0.0
11
224.420000000000
21
242.240000000000
31
0.0
0
LINE
5
44a
100
AcDbEntity
8
0àÍî ê}-1
6
CONTINUOUS
62
7
100
AcDbLine
10
179.460000000000
20
287.210000000000
30
0.0
11
221.430000000000
21
287.210000000000
31
0.0
0
LINE
5
44b
100
AcDbEntity
8
0àÍî ê}-1
6
CONTINUOUS
62
7
100
AcDbLine
10
204.440000000000
20
285.110000000000
30
0.0
11
205.130000000000
21
285.790000000000
31
0.0
0
LINE
5
44c
100
AcDbEntity
8
0àÍî ê}-1
6
CONTINUOUS
62
7
100
AcDbLine
10
195.760000000000
20
285.910000000000
30
0.0
11
196.440000000000
21
285.220000000000
31
0.0
0
LINE
5
44d
100
AcDbEntity
8
0àÍî ê}-1
6
CONTINUOUS
62
7
100
AcDbLine
10
204.460000000000
20
285.740000000000
30
0.0
11
204.460000000000
21
285.130000000000
31
0.0
0
LINE
5
44e
100
AcDbEntity
8
0àÍî ê}-1
6
CONTINUOUS
62
7
100
AcDbLine
10
196.420000000000
20
285.240000000000
30
0.0
11
196.420000000000
21
285.740000000000
31
0.0
0
LINE
5
44f
100
AcDbEntity
8
0àÍî ê}-1
6
CONTINUOUS
62
7
100
AcDbLine
10
204.960000000000
20
284.630000000000
30
0.0
11
204.960000000000
21
281.610000000000
31
0.0
0
LINE
5
450
100
AcDbEntity
8
0àÍî ê}-1
6
CONTINUOUS
62
7
100
AcDbLine
10
196.920000000000
20
286.240000000000
30
0.0
11
203.960000000000
21
286.240000000000
31
0.0
0
LINE
5
451
100
AcDbEntity
8
0àÍî ê}-1
6
CONTINUOUS
62
7
100
AcDbLine
10
195.920000000000
20
281.610000000000
30
0.0
11
195.920000000000
21
284.740000000000
31
0.0
0
LINE
5
452
100
AcDbEntity
8
0àÍî ê}-1
6
CONTINUOUS
62
7
100
AcDbLine
10
205.500000000000
20
285.170000000000
30
0.0
11
204.960000000000
21
284.630000000000
31
0.0
0
LINE
5
453
100
AcDbEntity
8
0àÍî ê}-1
6
CONTINUOUS
62
7
100
AcDbLine
10
205.620000000000
20
285.290000000000
30
0.0
11
205.610000000000
21
285.280000000000
31
0.0
0
LINE
5
454
100
AcDbEntity
8
0àÍî ê}-1
6
CONTINUOUS
62
7
100
AcDbLine
10
195.920000000000
20
284.740000000000
30
0.0
11
195.260000000000
21
285.410000000000
31
0.0
0
LINE
5
455
100
AcDbEntity
8
0àÍî ê}-1
6
CONTINUOUS
62
7
100
AcDbLine
10
205.130000000000
20
286.410000000000
30
0.0
11
204.460000000000
21
285.740000000000
31
0.0
0
LINE
5
456
100
AcDbEntity
8
0àÍî ê}-1
6
CONTINUOUS
62
7
100
AcDbLine
10
203.960000000000
20
286.240000000000
30
0.0
11
204.630000000000
21
286.910000000000
31
0.0
0
LINE
5
457
100
AcDbEntity
8
0àÍî ê}-1
6
CONTINUOUS
62
7
100
AcDbLine
10
196.250000000000
20
286.910000000000
30
0.0
11
196.920000000000
21
286.240000000000
31
0.0
0
LINE
5
458
100
AcDbEntity
8
0àÍî ê}-1
6
CONTINUOUS
62
7
100
AcDbLine
10
196.420000000000
20
285.740000000000
30
0.0
11
195.760000000000
21
286.410000000000
31
0.0
0
LINE
5
459
100
AcDbEntity
8
0àÍî ê}-1
6
CONTINUOUS
62
7
100
AcDbLine
10
195.710000000000
20
281.770000000000
30
0.0
11
195.920000000000
21
281.610000000000
31
0.0
0
LINE
5
45a
100
AcDbEntity
8
0àÍî ê}-1
6
CONTINUOUS
62
7
100
AcDbLine
10
204.960000000000
20
281.610000000000
30
0.0
11
205.170000000000
21
281.770000000000
31
0.0
0
LINE
5
45b
100
AcDbEntity
8
0àÍî ê}-1
6
CONTINUOUS
62
7
100
AcDbLine
10
195.400000000000
20
283.620000000000
30
0.0
11
195.690000000000
21
283.390000000000
31
0.0
0
LINE
5
45c
100
AcDbEntity
8
0àÍî ê}-1
6
CONTINUOUS
62
7
100
AcDbLine
10
195.710000000000
20
282.680000000000
30
0.0
11
195.710000000000
21
281.770000000000
31
0.0
0
LINE
5
45d
100
AcDbEntity
8
0àÍî ê}-1
6
CONTINUOUS
62
7
100
AcDbLine
10
205.170000000000
20
281.770000000000
30
0.0
11
205.170000000000
21
282.680000000000
31
0.0
0
LINE
5
45e
100
AcDbEntity
8
0àÍî ê}-1
6
CONTINUOUS
62
7
100
AcDbLine
10
205.200000000000
20
283.390000000000
30
0.0
11
205.490000000000
21
283.620000000000
31
0.0
0
LINE
5
45f
100
AcDbEntity
8
0àÍî ê}-1
6
CONTINUOUS
62
7
100
AcDbLine
10
205.170000000000
20
282.680000000000
30
0.0
11
205.370000000000
21
282.680000000000
31
0.0
0
LINE
5
460
100
AcDbEntity
8
0àÍî ê}-1
6
CONTINUOUS
62
7
100
AcDbLine
10
195.710000000000
20
282.680000000000
30
0.0
11
195.510000000000
21
282.680000000000
31
0.0
0
POLYLINE
5
461
100
AcDbEntity
8
0àÍî ê}-1
6
CONTINUOUS
62
  7
100
AcDb2dPolyline
66
1
10
0.0
20
0.0
30
0.0
70
0
0
VERTEX
5
462
100
AcDbEntity
8
0àÍî ê}-1
6
CONTINUOUS
62
  7
100
AcDbVertex
100
AcDb2dVertex
10
205.170000000000
20
281.770000000000
30
0.0
0
VERTEX
5
463
100
AcDbEntity
8
0àÍî ê}-1
6
CONTINUOUS
62
  7
100
AcDbVertex
100
AcDb2dVertex
10
205.370000000000
20
281.770000000000
30
0.0
0
VERTEX
5
464
100
AcDbEntity
8
0àÍî ê}-1
6
CONTINUOUS
62
  7
100
AcDbVertex
100
AcDb2dVertex
10
205.320000000000
20
281.580000000000
30
0.0
0
SEQEND
5
465
100
AcDbEntity
8
0àÍî ê}-1
0
LINE
5
466
100
AcDbEntity
8
0àÍî ê}-1
6
CONTINUOUS
62
7
100
AcDbLine
10
195.560000000000
20
281.580000000000
30
0.0
11
195.510000000000
21
281.770000000000
31
0.0
0
LINE
5
467
100
AcDbEntity
8
0àÍî ê}-1
6
CONTINUOUS
62
7
100
AcDbLine
10
195.710000000000
20
281.770000000000
30
0.0
11
195.510000000000
21
281.770000000000
31
0.0
0
LINE
5
468
100
AcDbEntity
8
0àÍî ê}-1
6
CONTINUOUS
62
7
100
AcDbLine
10
205.370000000000
20
282.680000000000
30
0.0
11
205.370000000000
21
281.770000000000
31
0.0
0
LINE
5
469
100
AcDbEntity
8
0àÍî ê}-1
6
CONTINUOUS
62
7
100
AcDbLine
10
195.510000000000
20
281.770000000000
30
0.0
11
195.510000000000
21
282.680000000000
31
0.0
0
POLYLINE
5
46a
100
AcDbEntity
8
0àÍî ê}-1
6
CONTINUOUS
62
  7
100
AcDb2dPolyline
66
1
10
0.0
20
0.0
30
0.0
70
0
0
VERTEX
5
46b
100
AcDbEntity
8
0àÍî ê}-1
6
CONTINUOUS
62
  7
100
AcDbVertex
100
AcDb2dVertex
10
223.850000000000
20
242.310000000000
30
0.0
0
VERTEX
5
46c
100
AcDbEntity
8
0àÍî ê}-1
6
CONTINUOUS
62
  7
100
AcDbVertex
100
AcDb2dVertex
10
223.850000000000
20
284.140000000000
30
0.0
0
VERTEX
5
46d
100
AcDbEntity
8
0àÍî ê}-1
6
CONTINUOUS
62
  7
100
AcDbVertex
100
AcDb2dVertex
10
224.350000000000
20
284.140000000000
30
0.0
0
VERTEX
5
46e
100
AcDbEntity
8
0àÍî ê}-1
6
CONTINUOUS
62
  7
100
AcDbVertex
100
AcDb2dVertex
10
224.350000000000
20
242.310000000000
30
0.0
0
VERTEX
5
46f
100
AcDbEntity
8
0àÍî ê}-1
6
CONTINUOUS
62
  7
100
AcDbVertex
100
AcDb2dVertex
10
223.850000000000
20
242.310000000000
30
0.0
0
SEQEND
5
470
100
AcDbEntity
8
0àÍî ê}-1
0
LINE
5
471
100
AcDbEntity
8
0àÍî ê}-1
6
CONTINUOUS
62
7
100
AcDbLine
10
179.530000000000
20
239.810000000000
30
0.0
11
221.360000000000
21
239.810000000000
31
0.0
0
LINE
5
472
100
AcDbEntity
8
0àÍî ê}-1
6
CONTINUOUS
62
7
100
AcDbLine
10
177.030000000000
20
284.140000000000
30
0.0
11
177.030000000000
21
242.310000000000
31
0.0
0
LINE
5
473
100
AcDbEntity
8
0àÍî ê}-1
6
CONTINUOUS
62
7
100
AcDbLine
10
195.810000000000
20
286.640000000000
30
0.0
11
179.530000000000
21
286.640000000000
31
0.0
0
POLYLINE
5
474
100
AcDbEntity
8
0àÍî ê}-1
6
CONTINUOUS
62
  7
100
AcDb2dPolyline
66
1
10
0.0
20
0.0
30
0.0
70
0
0
VERTEX
5
475
100
AcDbEntity
8
0àÍî ê}-1
6
CONTINUOUS
62
  7
100
AcDbVertex
100
AcDb2dVertex
10
221.360000000000
20
239.310000000000
30
0.0
0
VERTEX
5
476
100
AcDbEntity
8
0àÍî ê}-1
6
CONTINUOUS
62
  7
100
AcDbVertex
100
AcDb2dVertex
10
179.530000000000
20
239.310000000000
30
0.0
0
VERTEX
5
477
100
AcDbEntity
8
0àÍî ê}-1
6
CONTINUOUS
62
  7
100
AcDbVertex
100
AcDb2dVertex
10
179.530000000000
20
239.810000000000
30
0.0
0
SEQEND
5
478
100
AcDbEntity
8
0àÍî ê}-1
0
LINE
5
479
100
AcDbEntity
8
0àÍî ê}-1
6
CONTINUOUS
62
7
100
AcDbLine
10
221.360000000000
20
239.310000000000
30
0.0
11
221.360000000000
21
239.810000000000
31
0.0
0
LINE
5
47a
100
AcDbEntity
8
0àÍî ê}-1
6
CONTINUOUS
62
7
100
AcDbLine
10
176.530000000000
20
242.310000000000
30
0.0
11
177.030000000000
21
242.310000000000
31
0.0
0
LINE
5
47b
100
AcDbEntity
8
0àÍî ê}-1
6
CONTINUOUS
62
7
100
AcDbLine
10
176.530000000000
20
242.310000000000
30
0.0
11
176.530000000000
21
284.140000000000
31
0.0
0
LINE
5
47c
100
AcDbEntity
8
0àÍî ê}-1
6
CONTINUOUS
62
7
100
AcDbLine
10
177.030000000000
20
284.140000000000
30
0.0
11
176.530000000000
21
284.140000000000
31
0.0
0
POLYLINE
5
47d
100
AcDbEntity
8
0àÍî ê}-1
6
CONTINUOUS
62
  7
100
AcDb2dPolyline
66
1
10
0.0
20
0.0
30
0.0
70
0
0
VERTEX
5
47e
100
AcDbEntity
8
0àÍî ê}-1
6
CONTINUOUS
62
  7
100
AcDbVertex
100
AcDb2dVertex
10
179.530000000000
20
286.640000000000
30
0.0
0
VERTEX
5
47f
100
AcDbEntity
8
0àÍî ê}-1
6
CONTINUOUS
62
  7
100
AcDbVertex
100
AcDb2dVertex
10
179.530000000000
20
287.140000000000
30
0.0
0
VERTEX
5
480
100
AcDbEntity
8
0àÍî ê}-1
6
CONTINUOUS
62
  7
100
AcDbVertex
100
AcDb2dVertex
10
221.360000000000
20
287.140000000000
30
0.0
0
SEQEND
5
481
100
AcDbEntity
8
0àÍî ê}-1
0
LINE
5
482
100
AcDbEntity
8
0àÍî ê}-1
6
CONTINUOUS
62
7
100
AcDbLine
10
221.360000000000
20
286.640000000000
30
0.0
11
221.360000000000
21
287.140000000000
31
0.0
0
LINE
5
483
100
AcDbEntity
8
0àÍî ê}-1
6
CONTINUOUS
62
7
100
AcDbLine
10
179.530000000000
20
239.310000000000
30
0.0
11
179.460000000000
21
239.240000000000
31
0.0
0
LINE
5
484
100
AcDbEntity
8
0àÍî ê}-1
6
CONTINUOUS
62
7
100
AcDbLine
10
176.460000000000
20
242.240000000000
30
0.0
11
176.530000000000
21
242.310000000000
31
0.0
0
LINE
5
485
100
AcDbEntity
8
0àÍî ê}-1
6
CONTINUOUS
62
7
100
AcDbLine
10
176.530000000000
20
284.140000000000
30
0.0
11
176.460000000000
21
284.210000000000
31
0.0
0
LINE
5
486
100
AcDbEntity
8
0àÍî ê}-1
6
CONTINUOUS
62
7
100
AcDbLine
10
179.460000000000
20
287.210000000000
30
0.0
11
179.530000000000
21
287.140000000000
31
0.0
0
LINE
5
487
100
AcDbEntity
8
0àÍî ê}-1
6
CONTINUOUS
62
7
100
AcDbLine
10
221.360000000000
20
287.140000000000
30
0.0
11
221.430000000000
21
287.210000000000
31
0.0
0
LINE
5
488
100
AcDbEntity
8
0àÍî ê}-1
6
CONTINUOUS
62
7
100
AcDbLine
10
224.420000000000
20
284.210000000000
30
0.0
11
224.350000000000
21
284.140000000000
31
0.0
0
LINE
5
489
100
AcDbEntity
8
0àÍî ê}-1
6
CONTINUOUS
62
7
100
AcDbLine
10
224.350000000000
20
242.310000000000
30
0.0
11
224.420000000000
21
242.240000000000
31
0.0
0
LINE
5
48a
100
AcDbEntity
8
0àÍî ê}-1
6
CONTINUOUS
62
7
100
AcDbLine
10
221.430000000000
20
239.240000000000
30
0.0
11
221.360000000000
21
239.310000000000
31
0.0
0
LINE
5
48b
100
AcDbEntity
8
0àÍî ê}-1
6
CENTER
62
4
100
AcDbLine
10
175.920000000000
20
283.720000000000
30
0.0
11
183.650000000000
21
283.720000000000
31
0.0
0
LINE
5
48c
100
AcDbEntity
8
0àÍî ê}-1
6
CENTER
62
4
100
AcDbLine
10
196.180000000000
20
283.820000000000
30
0.0
11
192.930000000000
21
283.820000000000
31
0.0
0
LINE
5
48d
100
AcDbEntity
8
0àÍî ê}-1
6
CENTER
62
4
100
AcDbLine
10
194.940000000000
20
282.610000000000
30
0.0
11
194.940000000000
21
285.940000000000
31
0.0
0
LINE
5
48e
100
AcDbEntity
8
0àÍî ê}-1
6
CENTER
62
4
100
AcDbLine
10
205.940000000000
20
282.610000000000
30
0.0
11
205.940000000000
21
285.940000000000
31
0.0
0
LINE
5
48f
100
AcDbEntity
8
0àÍî ê}-1
6
CENTER
62
4
100
AcDbLine
10
204.700000000000
20
283.820000000000
30
0.0
11
207.950000000000
21
283.820000000000
31
0.0
0
LINE
5
490
100
AcDbEntity
8
0àÍî ê}-1
6
CENTER
62
4
100
AcDbLine
10
216.920000000000
20
283.720000000000
30
0.0
11
224.650000000000
21
283.720000000000
31
0.0
0
LINE
5
491
100
AcDbEntity
8
0àÍî ê}-1
6
CENTER
62
4
100
AcDbLine
10
220.940000000000
20
279.990000000000
30
0.0
11
220.940000000000
21
288.030000000000
31
0.0
0
LINE
5
492
100
AcDbEntity
8
0àÍî ê}-1
6
CENTER
62
4
100
AcDbLine
10
220.940000000000
20
238.990000000000
30
0.0
11
220.940000000000
21
247.030000000000
31
0.0
0
LINE
5
493
100
AcDbEntity
8
0àÍî ê}-1
6
CENTER
62
4
100
AcDbLine
10
216.920000000000
20
242.720000000000
30
0.0
11
224.650000000000
21
242.720000000000
31
0.0
0
LINE
5
494
100
AcDbEntity
8
0àÍî ê}-1
6
CENTER
62
4
100
AcDbLine
10
175.920000000000
20
242.720000000000
30
0.0
11
183.650000000000
21
242.720000000000
31
0.0
0
LINE
5
495
100
AcDbEntity
8
0àÍî ê}-1
6
CENTER
62
4
100
AcDbLine
10
179.940000000000
20
238.990000000000
30
0.0
11
179.940000000000
21
247.030000000000
31
0.0
0
LINE
5
496
100
AcDbEntity
8
0àÍî ê}-1
6
CENTER
62
4
100
AcDbLine
10
179.940000000000
20
279.990000000000
30
0.0
11
179.940000000000
21
288.030000000000
31
0.0
0
LINE
5
497
100
AcDbEntity
8
0àÍî ê}-1
6
CONTINUOUS
62
7
100
AcDbLine
10
175.440000000000
20
285.230000000000
30
0.0
11
175.440000000000
21
241.220000000000
31
0.0
0
LINE
5
498
100
AcDbEntity
8
0àÍî ê}-1
6
CONTINUOUS
62
7
100
AcDbLine
10
178.440000000000
20
238.220000000000
30
0.0
11
222.440000000000
21
238.220000000000
31
0.0
0
LINE
5
499
100
AcDbEntity
8
0àÍî ê}-1
6
CONTINUOUS
62
7
100
AcDbLine
10
225.440000000000
20
241.220000000000
30
0.0
11
225.440000000000
21
285.230000000000
31
0.0
0
LINE
5
49a
100
AcDbEntity
8
0àÍî ê}-1
6
CONTINUOUS
62
7
100
AcDbLine
10
222.440000000000
20
288.220000000000
30
0.0
11
178.440000000000
21
288.220000000000
31
0.0
0
POLYLINE
5
49b
100
AcDbEntity
8
0àÍî ê}-1
6
CONTINUOUS
62
  7
100
AcDb2dPolyline
66
1
10
0.0
20
0.0
30
0.0
70
0
0
VERTEX
5
49c
100
AcDbEntity
8
0àÍî ê}-1
6
CONTINUOUS
62
  7
100
AcDbVertex
100
AcDb2dVertex
10
178.930000000000
20
241.650000000000
30
0.0
0
VERTEX
5
49d
100
AcDbEntity
8
0àÍî ê}-1
6
CONTINUOUS
62
  7
100
AcDbVertex
100
AcDb2dVertex
10
180.360000000000
20
241.310000000000
30
0.0
0
VERTEX
5
49e
100
AcDbEntity
8
0àÍî ê}-1
6
CONTINUOUS
62
  7
100
AcDbVertex
100
AcDb2dVertex
10
181.380000000000
20
242.380000000000
30
0.0
0
SEQEND
5
49f
100
AcDbEntity
8
0àÍî ê}-1
0
LINE
5
4a0
100
AcDbEntity
8
0àÍî ê}-1
6
CONTINUOUS
62
7
100
AcDbLine
10
180.960000000000
20
243.800000000000
30
0.0
11
181.380000000000
21
242.380000000000
31
0.0
0
LINE
5
4a1
100
AcDbEntity
8
0àÍî ê}-1
6
CONTINUOUS
62
7
100
AcDbLine
10
179.520000000000
20
244.140000000000
30
0.0
11
180.960000000000
21
243.800000000000
31
0.0
0
LINE
5
4a2
100
AcDbEntity
8
0àÍî ê}-1
6
CONTINUOUS
62
7
100
AcDbLine
10
179.520000000000
20
244.140000000000
30
0.0
11
178.500000000000
21
243.070000000000
31
0.0
0
LINE
5
4a3
100
AcDbEntity
8
0àÍî ê}-1
6
CONTINUOUS
62
7
100
AcDbLine
10
178.930000000000
20
241.650000000000
30
0.0
11
178.500000000000
21
243.070000000000
31
0.0
0
POLYLINE
5
4a4
100
AcDbEntity
8
0àÍî ê}-1
6
CONTINUOUS
62
  7
100
AcDb2dPolyline
66
1
10
0.0
20
0.0
30
0.0
70
0
0
VERTEX
5
4a5
100
AcDbEntity
8
0àÍî ê}-1
6
CONTINUOUS
62
  7
100
AcDbVertex
100
AcDb2dVertex
10
178.930000000000
20
282.650000000000
30
0.0
0
VERTEX
5
4a6
100
AcDbEntity
8
0àÍî ê}-1
6
CONTINUOUS
62
  7
100
AcDbVertex
100
AcDb2dVertex
10
180.360000000000
20
282.310000000000
30
0.0
0
VERTEX
5
4a7
100
AcDbEntity
8
0àÍî ê}-1
6
CONTINUOUS
62
  7
100
AcDbVertex
100
AcDb2dVertex
10
181.380000000000
20
283.380000000000
30
0.0
0
SEQEND
5
4a8
100
AcDbEntity
8
0àÍî ê}-1
0
LINE
5
4a9
100
AcDbEntity
8
0àÍî ê}-1
6
CONTINUOUS
62
7
100
AcDbLine
10
180.960000000000
20
284.800000000000
30
0.0
11
181.380000000000
21
283.380000000000
31
0.0
0
LINE
5
4aa
100
AcDbEntity
8
0àÍî ê}-1
6
CONTINUOUS
62
7
100
AcDbLine
10
179.520000000000
20
285.140000000000
30
0.0
11
180.960000000000
21
284.800000000000
31
0.0
0
LINE
5
4ab
100
AcDbEntity
8
0àÍî ê}-1
6
CONTINUOUS
62
7
100
AcDbLine
10
179.520000000000
20
285.140000000000
30
0.0
11
178.500000000000
21
284.070000000000
31
0.0
0
LINE
5
4ac
100
AcDbEntity
8
0àÍî ê}-1
6
CONTINUOUS
62
7
100
AcDbLine
10
178.930000000000
20
282.650000000000
30
0.0
11
178.500000000000
21
284.070000000000
31
0.0
0
POLYLINE
5
4ad
100
AcDbEntity
8
0àÍî ê}-1
6
CONTINUOUS
62
  7
100
AcDb2dPolyline
66
1
10
0.0
20
0.0
30
0.0
70
0
0
VERTEX
5
4ae
100
AcDbEntity
8
0àÍî ê}-1
6
CONTINUOUS
62
  7
100
AcDbVertex
100
AcDb2dVertex
10
219.930000000000
20
282.650000000000
30
0.0
0
VERTEX
5
4af
100
AcDbEntity
8
0àÍî ê}-1
6
CONTINUOUS
62
  7
100
AcDbVertex
100
AcDb2dVertex
10
221.360000000000
20
282.310000000000
30
0.0
0
VERTEX
5
4b0
100
AcDbEntity
8
0àÍî ê}-1
6
CONTINUOUS
62
  7
100
AcDbVertex
100
AcDb2dVertex
10
222.380000000000
20
283.380000000000
30
0.0
0
SEQEND
5
4b1
100
AcDbEntity
8
0àÍî ê}-1
0
LINE
5
4b2
100
AcDbEntity
8
0àÍî ê}-1
6
CONTINUOUS
62
7
100
AcDbLine
10
221.960000000000
20
284.800000000000
30
0.0
11
222.380000000000
21
283.380000000000
31
0.0
0
LINE
5
4b3
100
AcDbEntity
8
0àÍî ê}-1
6
CONTINUOUS
62
7
100
AcDbLine
10
220.520000000000
20
285.140000000000
30
0.0
11
221.960000000000
21
284.800000000000
31
0.0
0
LINE
5
4b4
100
AcDbEntity
8
0àÍî ê}-1
6
CONTINUOUS
62
7
100
AcDbLine
10
220.520000000000
20
285.140000000000
30
0.0
11
219.500000000000
21
284.070000000000
31
0.0
0
LINE
5
4b5
100
AcDbEntity
8
0àÍî ê}-1
6
CONTINUOUS
62
7
100
AcDbLine
10
219.930000000000
20
282.650000000000
30
0.0
11
219.500000000000
21
284.070000000000
31
0.0
0
POLYLINE
5
4b6
100
AcDbEntity
8
0àÍî ê}-1
6
CONTINUOUS
62
  7
100
AcDb2dPolyline
66
1
10
0.0
20
0.0
30
0.0
70
0
0
VERTEX
5
4b7
100
AcDbEntity
8
0àÍî ê}-1
6
CONTINUOUS
62
  7
100
AcDbVertex
100
AcDb2dVertex
10
219.930000000000
20
241.650000000000
30
0.0
0
VERTEX
5
4b8
100
AcDbEntity
8
0àÍî ê}-1
6
CONTINUOUS
62
  7
100
AcDbVertex
100
AcDb2dVertex
10
221.360000000000
20
241.310000000000
30
0.0
0
VERTEX
5
4b9
100
AcDbEntity
8
0àÍî ê}-1
6
CONTINUOUS
62
  7
100
AcDbVertex
100
AcDb2dVertex
10
222.380000000000
20
242.380000000000
30
0.0
0
SEQEND
5
4ba
100
AcDbEntity
8
0àÍî ê}-1
0
LINE
5
4bb
100
AcDbEntity
8
0àÍî ê}-1
6
CONTINUOUS
62
7
100
AcDbLine
10
221.960000000000
20
243.800000000000
30
0.0
11
222.380000000000
21
242.380000000000
31
0.0
0
LINE
5
4bc
100
AcDbEntity
8
0àÍî ê}-1
6
CONTINUOUS
62
7
100
AcDbLine
10
220.520000000000
20
244.140000000000
30
0.0
11
221.960000000000
21
243.800000000000
31
0.0
0
LINE
5
4bd
100
AcDbEntity
8
0àÍî ê}-1
6
CONTINUOUS
62
7
100
AcDbLine
10
220.520000000000
20
244.140000000000
30
0.0
11
219.500000000000
21
243.070000000000
31
0.0
0
LINE
5
4be
100
AcDbEntity
8
0àÍî ê}-1
6
CONTINUOUS
62
7
100
AcDbLine
10
219.930000000000
20
241.650000000000
30
0.0
11
219.500000000000
21
243.070000000000
31
0.0
0
LINE
5
4bf
100
AcDbEntity
8
0àÍî ê}-1
6
CENTER
62
4
100
AcDbLine
10
172.560000000000
20
263.220000000000
30
0.0
11
227.430000000000
21
263.220000000000
31
0.0
0
LINE
5
4c0
100
AcDbEntity
8
0àÍî ê}-1
6
CENTER
62
4
100
AcDbLine
10
200.440000000000
20
235.490000000000
30
0.0
11
200.440000000000
21
290.600000000000
31
0.0
0
LINE
5
4c1
100
AcDbEntity
8
0àÍî ê}-1
6
CONTINUOUS
62
7
100
AcDbLine
10
151.310000000000
20
185.750000000000
30
0.0
11
151.380000000000
21
183.740000000000
31
0.0
0
LINE
5
4c2
100
AcDbEntity
8
0àÍî ê}-1
6
CONTINUOUS
62
7
100
AcDbLine
10
148.380000000000
20
183.740000000000
30
0.0
11
151.380000000000
21
183.740000000000
31
0.0
0
LINE
5
4c3
100
AcDbEntity
8
0àÍî ê}-1
6
CONTINUOUS
62
7
100
AcDbLine
10
103.420000000000
20
183.740000000000
30
0.0
11
103.490000000000
21
185.750000000000
31
0.0
0
LINE
5
4c4
100
AcDbEntity
8
0àÍî ê}-1
6
CONTINUOUS
62
7
100
AcDbLine
10
103.420000000000
20
183.740000000000
30
0.0
11
106.410000000000
21
183.740000000000
31
0.0
0
LINE
5
4c5
100
AcDbEntity
8
0àÍî ê}-1
6
CONTINUOUS
62
7
100
AcDbLine
10
148.380000000000
20
183.740000000000
30
0.0
11
106.410000000000
21
183.740000000000
31
0.0
0
LINE
5
4c6
100
AcDbEntity
8
0àÍî ê}-1
6
CONTINUOUS
62
7
100
AcDbLine
10
106.200000000000
20
186.240000000000
30
0.0
11
103.990000000000
21
186.240000000000
31
0.0
0
LINE
5
4c7
100
AcDbEntity
8
0àÍî ê}-1
6
CONTINUOUS
62
7
100
AcDbLine
10
147.680000000000
20
186.240000000000
30
0.0
11
148.310000000000
21
186.240000000000
31
0.0
0
LINE
5
4c8
100
AcDbEntity
8
0àÍî ê}-1
6
CONTINUOUS
62
7
100
AcDbLine
10
148.590000000000
20
186.240000000000
30
0.0
11
150.810000000000
21
186.240000000000
31
0.0
0
LINE
5
4c9
100
AcDbEntity
8
0àÍî ê}-1
6
CONTINUOUS
62
7
100
AcDbLine
10
112.230000000000
20
186.240000000000
30
0.0
11
148.590000000000
21
186.240000000000
31
0.0
0
LINE
5
4ca
100
AcDbEntity
8
0àÍî ê}-1
6
CONTINUOUS
62
7
100
AcDbLine
10
106.200000000000
20
186.240000000000
30
0.0
11
112.230000000000
21
186.240000000000
31
0.0
0
LINE
5
4cb
100
AcDbEntity
8
0àÍî ê}-1
6
CONTINUOUS
62
7
100
AcDbLine
10
103.400000000000
20
183.540000000000
30
0.0
11
151.400000000000
21
183.540000000000
31
0.0
0
LINE
5
4cc
100
AcDbEntity
8
0àÍî ê}-1
6
CONTINUOUS
62
7
100
AcDbLine
10
150.900000000000
20
183.740000000000
30
0.0
11
150.900000000000
21
183.540000000000
31
0.0
0
LINE
5
4cd
100
AcDbEntity
8
0àÍî ê}-1
6
CONTINUOUS
62
7
100
AcDbLine
10
103.900000000000
20
183.740000000000
30
0.0
11
103.900000000000
21
183.540000000000
31
0.0
0
LINE
5
4ce
100
AcDbEntity
8
0àÍî ê}-1
6
CONTINUOUS
62
7
100
AcDbLine
10
151.400000000000
20
183.540000000000
30
0.0
11
152.400000000000
21
145.240000000000
31
0.0
0
LINE
5
4cf
100
AcDbEntity
8
0àÍî ê}-1
6
CONTINUOUS
62
7
100
AcDbLine
10
103.400000000000
20
183.540000000000
30
0.0
11
102.400000000000
21
145.240000000000
31
0.0
0
LINE
5
4d0
100
AcDbEntity
8
0àÍî ê}-1
6
CONTINUOUS
62
7
100
AcDbLine
10
148.390000000000
20
186.430000000000
30
0.0
11
107.710000000000
21
186.430000000000
31
0.0
0
LINE
5
4d1
100
AcDbEntity
8
0àÍî ê}-1
6
CONTINUOUS
62
7
100
AcDbLine
10
147.970000000000
20
198.550000000000
30
0.0
11
148.390000000000
21
186.430000000000
31
0.0
0
LINE
5
4d2
100
AcDbEntity
8
0àÍî ê}-1
6
CONTINUOUS
62
7
100
AcDbLine
10
105.300000000000
20
186.430000000000
30
0.0
11
105.360000000000
21
189.750000000000
31
0.0
0
POLYLINE
5
4d3
100
AcDbEntity
8
0àÍî ê}-1
6
CONTINUOUS
62
  7
100
AcDb2dPolyline
66
1
10
0.0
20
0.0
30
0.0
70
0
0
VERTEX
5
4d4
100
AcDbEntity
8
0àÍî ê}-1
6
CONTINUOUS
62
  7
100
AcDbVertex
100
AcDb2dVertex
10
148.310000000000
20
186.240000000000
30
0.0
0
VERTEX
5
4d5
100
AcDbEntity
8
0àÍî ê}-1
6
CONTINUOUS
62
  7
100
AcDbVertex
100
AcDb2dVertex
10
106.480000000000
20
186.240000000000
30
0.0
0
VERTEX
5
4d6
100
AcDbEntity
8
0àÍî ê}-1
6
CONTINUOUS
62
  7
100
AcDbVertex
100
AcDb2dVertex
10
103.990000000000
20
186.240000000000
30
0.0
0
SEQEND
5
4d7
100
AcDbEntity
8
0àÍî ê}-1
0
LINE
5
4d8
100
AcDbEntity
8
0àÍî ê}-1
6
CONTINUOUS
62
7
100
AcDbLine
10
147.470000000000
20
199.040000000000
30
0.0
11
107.940000000000
21
199.040000000000
31
0.0
0
LINE
5
4d9
100
AcDbEntity
8
0àÍî ê}-1
6
CONTINUOUS
62
7
100
AcDbLine
10
127.400000000000
20
207.340000000000
30
0.0
11
108.880000000000
21
207.340000000000
31
0.0
0
LINE
5
4da
100
AcDbEntity
8
0àÍî ê}-1
6
CONTINUOUS
62
7
100
AcDbLine
10
145.910000000000
20
207.340000000000
30
0.0
11
127.400000000000
21
207.340000000000
31
0.0
0
LINE
5
4db
100
AcDbEntity
8
0àÍî ê}-1
6
CONTINUOUS
62
7
100
AcDbLine
10
107.540000000000
20
190.240000000000
30
0.0
11
107.050000000000
21
190.240000000000
31
0.0
0
LINE
5
4dc
100
AcDbEntity
8
0àÍî ê}-1
6
CONTINUOUS
62
7
100
AcDbLine
10
107.130000000000
20
186.430000000000
30
0.0
11
105.300000000000
21
186.430000000000
31
0.0
0
LINE
5
4dd
100
AcDbEntity
8
0àÍî ê}-1
6
CONTINUOUS
62
7
100
AcDbLine
10
107.050000000000
20
190.240000000000
30
0.0
11
105.860000000000
21
190.240000000000
31
0.0
0
LINE
5
4de
100
AcDbEntity
8
0àÍî ê}-1
6
CONTINUOUS
62
7
100
AcDbLine
10
105.510000000000
20
205.840000000000
30
0.0
11
105.510000000000
21
205.840000000000
31
0.0
0
LINE
5
4df
100
AcDbEntity
8
0àÍî ê}-1
6
CONTINUOUS
62
7
100
AcDbLine
10
104.380000000000
20
205.350000000000
30
0.0
11
103.710000000000
21
186.150000000000
31
0.0
0
LINE
5
4e0
100
AcDbEntity
8
0àÍî ê}-1
6
CONTINUOUS
62
7
100
AcDbLine
10
105.510000000000
20
205.840000000000
30
0.0
11
104.880000000000
21
205.840000000000
31
0.0
0
LINE
5
4e1
100
AcDbEntity
8
0àÍî ê}-1
6
CENTER
62
4
100
AcDbLine
10
106.800000000000
20
191.430000000000
30
0.0
11
106.800000000000
21
185.220000000000
31
0.0
0
LINE
5
4e2
100
AcDbEntity
8
0àÍî ê}-1
6
CONTINUOUS
62
7
100
AcDbLine
10
108.880000000000
20
207.340000000000
30
0.0
11
145.910000000000
21
207.340000000000
31
0.0
0
LINE
5
4e3
100
AcDbEntity
8
0àÍî ê}-1
6
CONTINUOUS
62
7
100
AcDbLine
10
145.850000000000
20
207.340000000000
30
0.0
11
146.150000000000
21
207.640000000000
31
0.0
0
LINE
5
4e4
100
AcDbEntity
8
0àÍî ê}-1
6
CONTINUOUS
62
7
100
AcDbLine
10
127.400000000000
20
207.340000000000
30
0.0
11
108.950000000000
21
207.340000000000
31
0.0
0
LINE
5
4e5
100
AcDbEntity
8
0àÍî ê}-1
6
CONTINUOUS
62
7
100
AcDbLine
10
145.850000000000
20
207.340000000000
30
0.0
11
127.400000000000
21
207.340000000000
31
0.0
0
LINE
5
4e6
100
AcDbEntity
8
0àÍî ê}-1
6
CENTER
62
4
100
AcDbLine
10
127.400000000000
20
139.410000000000
30
0.0
11
127.400000000000
21
216.800000000000
31
0.0
0
LINE
5
4e7
100
AcDbEntity
8
0àÍî ê}-1
6
CONTINUOUS
62
7
100
AcDbLine
10
145.500000000000
20
150.740000000000
30
0.0
11
145.500000000000
21
153.540000000000
31
0.0
0
LINE
5
4e8
100
AcDbEntity
8
0àÍî ê}-1
6
CONTINUOUS
62
7
100
AcDbLine
10
144.000000000000
20
155.040000000000
30
0.0
11
138.000000000000
21
155.040000000000
31
0.0
0
LINE
5
4e9
100
AcDbEntity
8
0àÍî ê}-1
6
CONTINUOUS
62
7
100
AcDbLine
10
136.500000000000
20
153.540000000000
30
0.0
11
136.500000000000
21
150.740000000000
31
0.0
0
LINE
5
4ea
100
AcDbEntity
8
0àÍî ê}-1
6
CONTINUOUS
62
7
100
AcDbLine
10
138.000000000000
20
149.240000000000
30
0.0
11
144.000000000000
21
149.240000000000
31
0.0
0
LINE
5
4eb
100
AcDbEntity
8
0àÍî ê}-1
6
CENTER
62
4
100
AcDbLine
10
141.000000000000
20
147.870000000000
30
0.0
11
141.000000000000
21
156.390000000000
31
0.0
0
LINE
5
4ec
100
AcDbEntity
8
0àÍî ê}-1
6
CENTER
62
4
100
AcDbLine
10
200.440000000000
20
73.770000000000
30
0.0
11
200.440000000000
21
130.900000000000
31
0.0
0
LINE
5
4ed
100
AcDbEntity
8
0àÍî ê}-1
6
CENTER
62
4
100
AcDbLine
10
178.380000000000
20
83.400000000000
30
0.0
11
182.510000000000
21
83.400000000000
31
0.0
0
LINE
5
4ee
100
AcDbEntity
8
0àÍî ê}-1
6
CENTER
62
4
100
AcDbLine
10
220.440000000000
20
121.310000000000
30
0.0
11
220.440000000000
21
125.340000000000
31
0.0
0
LINE
5
4ef
100
AcDbEntity
8
0àÍî ê}-1
6
CENTER
62
4
100
AcDbLine
10
218.380000000000
20
123.400000000000
30
0.0
11
222.510000000000
21
123.400000000000
31
0.0
0
LINE
5
4f0
100
AcDbEntity
8
0àÍî ê}-1
6
CONTINUOUS
62
7
100
AcDbLine
10
217.540000000000
20
215.230000000000
30
0.0
11
217.540000000000
21
215.240000000000
31
0.0
0
LINE
5
4f1
100
AcDbEntity
8
0àÍî ê}-1
6
CONTINUOUS
62
7
100
AcDbLine
10
183.340000000000
20
215.240000000000
30
0.0
11
183.340000000000
21
215.230000000000
31
0.0
0
LINE
5
4f2
100
AcDbEntity
8
0àÍî ê}-1
6
CONTINUOUS
62
7
100
AcDbLine
10
219.170000000000
20
207.640000000000
30
0.0
11
218.820000000000
21
214.280000000000
31
0.0
0
LINE
5
4f3
100
AcDbEntity
8
0àÍî ê}-1
6
CONTINUOUS
62
7
100
AcDbLine
10
182.050000000000
20
214.280000000000
30
0.0
11
181.700000000000
21
207.640000000000
31
0.0
0
LINE
5
4f4
100
AcDbEntity
8
0àÍî ê}-1
6
CONTINUOUS
62
7
100
AcDbLine
10
180.370000000000
20
199.030000000000
30
0.0
11
220.510000000000
21
199.030000000000
31
0.0
0
LINE
5
4f5
100
AcDbEntity
8
0àÍî ê}-1
6
CONTINUOUS
62
7
100
AcDbLine
10
181.720000000000
20
207.140000000000
30
0.0
11
181.720000000000
21
207.140000000000
31
0.0
0
LINE
5
4f6
100
AcDbEntity
8
0àÍî ê}-1
6
CONTINUOUS
62
7
100
AcDbLine
10
200.440000000000
20
207.330000000000
30
0.0
11
218.950000000000
21
207.330000000000
31
0.0
0
LINE
5
4f7
100
AcDbEntity
8
0àÍî ê}-1
6
CONTINUOUS
62
7
100
AcDbLine
10
181.920000000000
20
207.330000000000
30
0.0
11
200.440000000000
21
207.330000000000
31
0.0
0
LINE
5
4f8
100
AcDbEntity
8
0àÍî ê}-1
6
CONTINUOUS
62
7
100
AcDbLine
10
183.340000000000
20
215.240000000000
30
0.0
11
217.540000000000
21
215.240000000000
31
0.0
0
LINE
5
4f9
100
AcDbEntity
8
0àÍî ê}-1
6
CONTINUOUS
62
7
100
AcDbLine
10
200.440000000000
20
215.230000000000
30
0.0
11
217.820000000000
21
215.230000000000
31
0.0
0
LINE
5
4fa
100
AcDbEntity
8
0àÍî ê}-1
6
CONTINUOUS
62
7
100
AcDbLine
10
183.050000000000
20
215.230000000000
30
0.0
11
200.440000000000
21
215.230000000000
31
0.0
0
LINE
5
4fb
100
AcDbEntity
8
0àÍî ê}-1
6
CONTINUOUS
62
7
100
AcDbLine
10
108.570000000000
20
206.020000000000
30
0.0
11
108.680000000000
21
207.150000000000
31
0.0
0
LINE
5
4fc
100
AcDbEntity
8
0àÍî ê}-1
6
CONTINUOUS
62
7
100
AcDbLine
10
144.500000000000
20
215.250000000000
30
0.0
11
144.500000000000
21
215.240000000000
31
0.0
0
LINE
5
4fd
100
AcDbEntity
8
0àÍî ê}-1
6
CONTINUOUS
62
7
100
AcDbLine
10
108.660000000000
20
207.650000000000
30
0.0
11
109.010000000000
21
214.290000000000
31
0.0
0
LINE
5
4fe
100
AcDbEntity
8
0àÍî ê}-1
6
CONTINUOUS
62
7
100
AcDbLine
10
145.780000000000
20
214.290000000000
30
0.0
11
146.130000000000
21
207.650000000000
31
0.0
0
LINE
5
4ff
100
AcDbEntity
8
0àÍî ê}-1
6
CONTINUOUS
62
7
100
AcDbLine
10
147.470000000000
20
199.040000000000
30
0.0
11
107.910000000000
21
199.040000000000
31
0.0
0
LINE
5
500
100
AcDbEntity
8
0àÍî ê}-1
6
CONTINUOUS
62
7
100
AcDbLine
10
145.910000000000
20
207.340000000000
30
0.0
11
108.880000000000
21
207.340000000000
31
0.0
0
LINE
5
501
100
AcDbEntity
8
0àÍî ê}-1
6
CONTINUOUS
62
7
100
AcDbLine
10
144.500000000000
20
215.250000000000
30
0.0
11
111.770000000000
21
215.250000000000
31
0.0
0
LINE
5
502
100
AcDbEntity
8
0àÍî ê}-1
6
CONTINUOUS
62
7
100
AcDbLine
10
111.600000000000
20
215.250000000000
30
0.0
11
111.600000000000
21
215.240000000000
31
0.0
0
LINE
5
503
100
AcDbEntity
8
0àÍî ê}-1
6
CONTINUOUS
62
7
100
AcDbLine
10
111.770000000000
20
215.250000000000
30
0.0
11
111.600000000000
21
215.250000000000
31
0.0
0
LINE
5
504
100
AcDbEntity
8
0àÍî ê}-1
6
CONTINUOUS
62
7
100
AcDbLine
10
144.780000000000
20
215.240000000000
30
0.0
11
110.010000000000
21
215.240000000000
31
0.0
0
LINE
5
505
100
AcDbEntity
8
0àÍî ê}-1
6
CONTINUOUS
62
7
100
AcDbLine
10
111.770000000000
20
215.250000000000
30
0.0
11
111.770000000000
21
215.240000000000
31
0.0
0
LINE
5
506
100
AcDbEntity
8
0àÍî ê}-1
6
CONTINUOUS
62
7
100
AcDbLine
10
109.210000000000
20
205.840000000000
30
0.0
11
105.510000000000
21
205.840000000000
31
0.0
0
LINE
5
507
100
AcDbEntity
8
0àÍî ê}-1
6
CONTINUOUS
62
7
100
AcDbLine
10
109.210000000000
20
205.840000000000
30
0.0
11
107.230000000000
21
198.550000000000
31
0.0
0
LINE
5
508
100
AcDbEntity
8
0àÍî ê}-0
6
CONTINUOUS
62
4
100
AcDbLine
10
251.580000000000
20
145.240000000000
30
0.0
11
251.580000000000
21
215.240000000000
31
0.0
0
LINE
5
509
100
AcDbEntity
8
0àÍî ê}-0
6
CONTINUOUS
62
4
100
AcDbLine
10
251.580000000000
20
145.240000000000
30
0.0
11
251.060000000000
21
147.170000000000
31
0.0
0
LINE
5
50a
100
AcDbEntity
8
0àÍî ê}-0
6
CONTINUOUS
62
4
100
AcDbLine
10
251.580000000000
20
145.240000000000
30
0.0
11
252.090000000000
21
147.170000000000
31
0.0
0
LINE
5
50b
100
AcDbEntity
8
0àÍî ê}-0
6
CONTINUOUS
62
4
100
AcDbLine
10
251.580000000000
20
215.240000000000
30
0.0
11
251.060000000000
21
213.300000000000
31
0.0
0
LINE
5
50c
100
AcDbEntity
8
0àÍî ê}-0
6
CONTINUOUS
62
4
100
AcDbLine
10
251.580000000000
20
215.240000000000
30
0.0
11
252.090000000000
21
213.300000000000
31
0.0
0
LINE
5
50d
100
AcDbEntity
8
0àÍî ê}-0
6
CONTINUOUS
62
4
100
AcDbLine
10
236.430000000000
20
207.340000000000
30
0.0
11
235.910000000000
21
205.400000000000
31
0.0
0
LINE
5
50e
100
AcDbEntity
8
0àÍî ê}-0
6
CONTINUOUS
62
4
100
AcDbLine
10
236.430000000000
20
207.340000000000
30
0.0
11
236.950000000000
21
205.400000000000
31
0.0
0
LINE
5
50f
100
AcDbEntity
8
0àÍî ê}-0
6
CONTINUOUS
62
4
100
AcDbLine
10
245.410000000000
20
215.240000000000
30
0.0
11
244.890000000000
21
213.300000000000
31
0.0
0
LINE
5
510
100
AcDbEntity
8
0àÍî ê}-0
6
CONTINUOUS
62
4
100
AcDbLine
10
245.410000000000
20
215.240000000000
30
0.0
11
245.920000000000
21
213.300000000000
31
0.0
0
LINE
5
511
100
AcDbEntity
8
0àÍî ê}-0
6
CONTINUOUS
62
4
100
AcDbLine
10
245.910000000000
20
215.240000000000
30
0.0
11
236.430000000000
21
215.240000000000
31
0.0
0
LINE
5
512
100
AcDbEntity
8
0àÍî ê}-0
6
CONTINUOUS
62
4
100
AcDbLine
10
236.430000000000
20
145.240000000000
30
0.0
11
236.430000000000
21
186.240000000000
31
0.0
0
LINE
5
513
100
AcDbEntity
8
0àÍî ê}-0
6
CONTINUOUS
62
4
100
AcDbLine
10
236.430000000000
20
145.240000000000
30
0.0
11
235.910000000000
21
147.170000000000
31
0.0
0
LINE
5
514
100
AcDbEntity
8
0àÍî ê}-0
6
CONTINUOUS
62
4
100
AcDbLine
10
236.430000000000
20
145.240000000000
30
0.0
11
236.950000000000
21
147.170000000000
31
0.0
0
LINE
5
515
100
AcDbEntity
8
0àÍî ê}-0
6
CONTINUOUS
62
4
100
AcDbLine
10
236.430000000000
20
186.240000000000
30
0.0
11
235.910000000000
21
184.300000000000
31
0.0
0
LINE
5
516
100
AcDbEntity
8
0àÍî ê}-0
6
CONTINUOUS
62
4
100
AcDbLine
10
236.430000000000
20
186.240000000000
30
0.0
11
236.950000000000
21
184.300000000000
31
0.0
0
POLYLINE
5
517
100
AcDbEntity
8
0àÍî ê}-0
6
CONTINUOUS
62
  4
100
AcDb2dPolyline
66
1
10
0.0
20
0.0
30
0.0
70
0
0
VERTEX
5
518
100
AcDbEntity
8
0àÍî ê}-0
6
CONTINUOUS
62
  4
100
AcDbVertex
100
AcDb2dVertex
10
236.430000000000
20
186.240000000000
30
0.0
0
VERTEX
5
519
100
AcDbEntity
8
0àÍî ê}-0
6
CONTINUOUS
62
  4
100
AcDbVertex
100
AcDb2dVertex
10
236.430000000000
20
188.740000000000
30
0.0
0
VERTEX
5
51a
100
AcDbEntity
8
0àÍî ê}-0
6
CONTINUOUS
62
  4
100
AcDbVertex
100
AcDb2dVertex
10
235.910000000000
20
190.670000000000
30
0.0
0
SEQEND
5
51b
100
AcDbEntity
8
0àÍî ê}-0
0
LINE
5
51c
100
AcDbEntity
8
0àÍî ê}-0
6
CONTINUOUS
62
4
100
AcDbLine
10
236.430000000000
20
188.740000000000
30
0.0
11
236.950000000000
21
190.670000000000
31
0.0
0
LINE
5
51d
100
AcDbEntity
8
0àÍî ê}-0
6
CONTINUOUS
62
4
100
AcDbLine
10
236.430000000000
20
188.740000000000
30
0.0
11
236.430000000000
21
207.340000000000
31
0.0
0
LINE
5
51e
100
AcDbEntity
8
0àÍî ê}-0
6
CONTINUOUS
62
4
100
AcDbLine
10
236.460000000000
20
187.650000000000
30
0.0
11
239.930000000000
21
185.090000000000
31
0.0
0
LINE
5
51f
100
AcDbEntity
8
0àÍî ê}-0
6
CONTINUOUS
62
4
100
AcDbLine
10
245.410000000000
20
188.740000000000
30
0.0
11
245.410000000000
21
215.240000000000
31
0.0
0
LINE
5
520
100
AcDbEntity
8
0àÍî ê}-0
6
CONTINUOUS
62
4
100
AcDbLine
10
245.410000000000
20
188.740000000000
30
0.0
11
244.890000000000
21
190.670000000000
31
0.0
0
LINE
5
521
100
AcDbEntity
8
0àÍî ê}-0
6
CONTINUOUS
62
4
100
AcDbLine
10
245.410000000000
20
188.740000000000
30
0.0
11
245.920000000000
21
190.670000000000
31
0.0
0
LINE
5
522
100
AcDbEntity
8
0àÍî ê}-0
6
CONTINUOUS
62
4
100
AcDbLine
10
226.590000000000
20
134.050000000000
30
0.0
11
252.870000000000
21
134.050000000000
31
0.0
0
LINE
5
523
100
AcDbEntity
8
0àÍî ê}-0
6
CONTINUOUS
62
4
100
AcDbLine
10
252.090000000000
20
145.240000000000
30
0.0
11
225.440000000000
21
145.240000000000
31
0.0
0
LINE
5
524
100
AcDbEntity
8
0àÍî ê}-0
6
CONTINUOUS
62
4
100
AcDbLine
10
236.930000000000
20
186.240000000000
30
0.0
11
224.420000000000
21
186.240000000000
31
0.0
0
LINE
5
525
100
AcDbEntity
8
0àÍî ê}-0
6
CONTINUOUS
62
4
100
AcDbLine
10
245.920000000000
20
188.740000000000
30
0.0
11
221.630000000000
21
188.740000000000
31
0.0
0
LINE
5
526
100
AcDbEntity
8
0àÍî ê}-0
6
CONTINUOUS
62
4
100
AcDbLine
10
180.440000000000
20
191.450000000000
30
0.0
11
180.440000000000
21
199.040000000000
31
0.0
0
LINE
5
527
100
AcDbEntity
8
0àÍî ê}-0
6
CONTINUOUS
62
4
100
AcDbLine
10
180.440000000000
20
191.950000000000
30
0.0
11
182.370000000000
21
192.470000000000
31
0.0
0
LINE
5
528
100
AcDbEntity
8
0àÍî ê}-0
6
CONTINUOUS
62
4
100
AcDbLine
10
180.440000000000
20
191.950000000000
30
0.0
11
182.370000000000
21
191.430000000000
31
0.0
0
POLYLINE
5
529
100
AcDbEntity
8
0àÍî ê}-0
6
CONTINUOUS
62
  4
100
AcDb2dPolyline
66
1
10
0.0
20
0.0
30
0.0
70
0
0
VERTEX
5
52a
100
AcDbEntity
8
0àÍî ê}-0
6
CONTINUOUS
62
  4
100
AcDbVertex
100
AcDb2dVertex
10
180.420000000000
20
191.950000000000
30
0.0
0
VERTEX
5
52b
100
AcDbEntity
8
0àÍî ê}-0
6
CONTINUOUS
62
  4
100
AcDbVertex
100
AcDb2dVertex
10
220.440000000000
20
191.950000000000
30
0.0
0
VERTEX
5
52c
100
AcDbEntity
8
0àÍî ê}-0
6
CONTINUOUS
62
  4
100
AcDbVertex
100
AcDb2dVertex
10
218.510000000000
20
192.470000000000
30
0.0
0
SEQEND
5
52d
100
AcDbEntity
8
0àÍî ê}-0
0
LINE
5
52e
100
AcDbEntity
8
0àÍî ê}-0
6
CONTINUOUS
62
4
100
AcDbLine
10
220.440000000000
20
191.950000000000
30
0.0
11
218.510000000000
21
191.430000000000
31
0.0
0
LINE
5
52f
100
AcDbEntity
8
0àÍî ê}-0
6
CONTINUOUS
62
4
100
AcDbLine
10
220.440000000000
20
191.450000000000
30
0.0
11
220.440000000000
21
199.040000000000
31
0.0
0
LINE
5
530
100
AcDbEntity
8
0àÍî ê}-0
6
PHANTOM
62
4
100
AcDbLine
10
221.350000000000
20
188.740000000000
30
0.0
11
179.530000000000
21
188.740000000000
31
0.0
0
LINE
5
531
100
AcDbEntity
8
0àÍî ê}-0
6
CONTINUOUS
62
4
100
AcDbLine
10
179.440000000000
20
221.050000000000
30
0.0
11
179.440000000000
21
189.240000000000
31
0.0
0
LINE
5
532
100
AcDbEntity
8
0àÍî ê}-0
6
CONTINUOUS
62
4
100
AcDbLine
10
179.440000000000
20
220.540000000000
30
0.0
11
181.370000000000
21
220.020000000000
31
0.0
0
LINE
5
533
100
AcDbEntity
8
0àÍî ê}-0
6
CONTINUOUS
62
4
100
AcDbLine
10
179.440000000000
20
220.540000000000
30
0.0
11
181.370000000000
21
221.050000000000
31
0.0
0
POLYLINE
5
534
100
AcDbEntity
8
0àÍî ê}-0
6
CONTINUOUS
62
  4
100
AcDb2dPolyline
66
1
10
0.0
20
0.0
30
0.0
70
0
0
VERTEX
5
535
100
AcDbEntity
8
0àÍî ê}-0
6
CONTINUOUS
62
  4
100
AcDbVertex
100
AcDb2dVertex
10
179.440000000000
20
220.540000000000
30
0.0
0
VERTEX
5
536
100
AcDbEntity
8
0àÍî ê}-0
6
CONTINUOUS
62
  4
100
AcDbVertex
100
AcDb2dVertex
10
221.440000000000
20
220.540000000000
30
0.0
0
VERTEX
5
537
100
AcDbEntity
8
0àÍî ê}-0
6
CONTINUOUS
62
  4
100
AcDbVertex
100
AcDb2dVertex
10
219.510000000000
20
221.050000000000
30
0.0
0
SEQEND
5
538
100
AcDbEntity
8
0àÍî ê}-0
0
LINE
5
539
100
AcDbEntity
8
0àÍî ê}-0
6
CONTINUOUS
62
4
100
AcDbLine
10
221.440000000000
20
220.540000000000
30
0.0
11
219.510000000000
21
220.020000000000
31
0.0
0
LINE
5
53a
100
AcDbEntity
8
0àÍî ê}-0
6
CONTINUOUS
62
4
100
AcDbLine
10
221.440000000000
20
221.050000000000
30
0.0
11
221.440000000000
21
189.240000000000
31
0.0
0
LINE
5
53b
100
AcDbEntity
8
0àÍî ê}-0
6
CONTINUOUS
62
4
100
AcDbLine
10
252.090000000000
20
215.240000000000
30
0.0
11
219.370000000000
21
215.240000000000
31
0.0
0
LINE
5
53c
100
AcDbEntity
8
0àÍî ê}-0
6
CONTINUOUS
62
4
100
AcDbLine
10
236.930000000000
20
207.340000000000
30
0.0
11
218.960000000000
21
207.340000000000
31
0.0
0
LINE
5
53d
100
AcDbEntity
8
0àÍî ê}-0
6
CONTINUOUS
62
4
100
AcDbLine
10
233.220000000000
20
288.220000000000
30
0.0
11
225.440000000000
21
288.220000000000
31
0.0
0
LINE
5
53e
100
AcDbEntity
8
0àÍî ê}-0
6
CONTINUOUS
62
4
100
AcDbLine
10
232.720000000000
20
288.220000000000
30
0.0
11
232.200000000000
21
286.290000000000
31
0.0
0
LINE
5
53f
100
AcDbEntity
8
0àÍî ê}-0
6
CONTINUOUS
62
4
100
AcDbLine
10
232.720000000000
20
288.220000000000
30
0.0
11
233.240000000000
21
286.290000000000
31
0.0
0
LINE
5
540
100
AcDbEntity
8
0àÍî ê}-0
6
CONTINUOUS
62
4
100
AcDbLine
10
232.720000000000
20
238.220000000000
30
0.0
11
232.720000000000
21
288.220000000000
31
0.0
0
LINE
5
541
100
AcDbEntity
8
0àÍî ê}-0
6
CONTINUOUS
62
4
100
AcDbLine
10
233.220000000000
20
238.220000000000
30
0.0
11
225.440000000000
21
238.220000000000
31
0.0
0
LINE
5
542
100
AcDbEntity
8
0àÍî ê}-0
6
CONTINUOUS
62
4
100
AcDbLine
10
232.720000000000
20
238.220000000000
30
0.0
11
232.200000000000
21
240.160000000000
31
0.0
0
LINE
5
543
100
AcDbEntity
8
0àÍî ê}-0
6
CONTINUOUS
62
4
100
AcDbLine
10
232.720000000000
20
238.220000000000
30
0.0
11
233.240000000000
21
240.160000000000
31
0.0
0
LINE
5
544
100
AcDbEntity
8
0àÍî ê}-0
6
CONTINUOUS
62
4
100
AcDbLine
10
225.440000000000
20
229.210000000000
30
0.0
11
225.440000000000
21
238.220000000000
31
0.0
0
LINE
5
545
100
AcDbEntity
8
0àÍî ê}-0
6
CONTINUOUS
62
4
100
AcDbLine
10
225.440000000000
20
229.710000000000
30
0.0
11
223.510000000000
21
229.190000000000
31
0.0
0
LINE
5
546
100
AcDbEntity
8
0àÍî ê}-0
6
CONTINUOUS
62
4
100
AcDbLine
10
225.440000000000
20
229.710000000000
30
0.0
11
223.510000000000
21
230.230000000000
31
0.0
0
LINE
5
547
100
AcDbEntity
8
0àÍî ê}-0
6
CONTINUOUS
62
4
100
AcDbLine
10
175.440000000000
20
229.710000000000
30
0.0
11
225.440000000000
21
229.710000000000
31
0.0
0
LINE
5
548
100
AcDbEntity
8
0àÍî ê}-0
6
CONTINUOUS
62
4
100
AcDbLine
10
175.440000000000
20
229.710000000000
30
0.0
11
177.370000000000
21
229.190000000000
31
0.0
0
LINE
5
549
100
AcDbEntity
8
0àÍî ê}-0
6
CONTINUOUS
62
4
100
AcDbLine
10
175.440000000000
20
229.710000000000
30
0.0
11
177.370000000000
21
230.230000000000
31
0.0
0
LINE
5
54a
100
AcDbEntity
8
0àÍî ê}-0
6
CONTINUOUS
62
4
100
AcDbLine
10
175.440000000000
20
229.210000000000
30
0.0
11
175.440000000000
21
238.220000000000
31
0.0
0
LINE
5
54b
100
AcDbEntity
8
0àÍî ê}-0
6
CONTINUOUS
62
4
100
AcDbLine
10
171.730000000000
20
253.110000000000
30
0.0
11
189.070000000000
21
259.670000000000
31
0.0
0
LINE
5
54c
100
AcDbEntity
8
0àÍî ê}-0
6
CONTINUOUS
62
4
100
AcDbLine
10
190.120000000000
20
269.180000000000
30
0.0
11
188.710000000000
21
267.770000000000
31
0.0
0
LINE
5
54d
100
AcDbEntity
8
0àÍî ê}-0
6
CONTINUOUS
62
4
100
AcDbLine
10
190.120000000000
20
269.180000000000
30
0.0
11
189.610000000000
21
267.250000000000
31
0.0
0
LINE
5
54e
100
AcDbEntity
8
0àÍî ê}-0
6
CONTINUOUS
62
4
100
AcDbLine
10
189.070000000000
20
259.670000000000
30
0.0
11
187.600000000000
21
259.670000000000
31
0.0
0
LINE
5
54f
100
AcDbEntity
8
0àÍî ê}-0
6
CONTINUOUS
62
4
100
AcDbLine
10
189.070000000000
20
259.670000000000
30
0.0
11
188.030000000000
21
258.630000000000
31
0.0
0
LINE
5
550
100
AcDbEntity
8
0àÍî ê}-0
6
CONTINUOUS
62
4
100
AcDbLine
10
210.760000000000
20
269.180000000000
30
0.0
11
212.170000000000
21
267.770000000000
31
0.0
0
LINE
5
551
100
AcDbEntity
8
0àÍî ê}-0
6
CONTINUOUS
62
4
100
AcDbLine
10
210.760000000000
20
269.180000000000
30
0.0
11
211.280000000000
21
267.250000000000
31
0.0
0
LINE
5
552
100
AcDbEntity
8
0àÍî ê}-0
6
CENTER
62
4
100
AcDbLine
10
200.440000000000
20
263.220000000000
30
0.0
11
180.230000000000
21
274.890000000000
31
0.0
0
LINE
5
553
100
AcDbEntity
8
0àÍî ê}-0
6
CENTER
62
4
100
AcDbLine
10
200.440000000000
20
263.220000000000
30
0.0
11
220.650000000000
21
274.890000000000
31
0.0
0
LINE
5
554
100
AcDbEntity
8
0àÍî ê}-0
6
CONTINUOUS
62
4
100
AcDbLine
10
193.440000000000
20
292.760000000000
30
0.0
11
193.440000000000
21
283.820000000000
31
0.0
0
LINE
5
555
100
AcDbEntity
8
0àÍî ê}-0
6
CONTINUOUS
62
4
100
AcDbLine
10
193.440000000000
20
292.260000000000
30
0.0
11
195.380000000000
21
292.780000000000
31
0.0
0
LINE
5
556
100
AcDbEntity
8
0àÍî ê}-0
6
CONTINUOUS
62
4
100
AcDbLine
10
193.440000000000
20
292.260000000000
30
0.0
11
195.380000000000
21
291.750000000000
31
0.0
0
POLYLINE
5
557
100
AcDbEntity
8
0àÍî ê}-0
6
CONTINUOUS
62
  4
100
AcDb2dPolyline
66
1
10
0.0
20
0.0
30
0.0
70
0
0
VERTEX
5
558
100
AcDbEntity
8
0àÍî ê}-0
6
CONTINUOUS
62
  4
100
AcDbVertex
100
AcDb2dVertex
10
193.440000000000
20
292.260000000000
30
0.0
0
VERTEX
5
559
100
AcDbEntity
8
0àÍî ê}-0
6
CONTINUOUS
62
  4
100
AcDbVertex
100
AcDb2dVertex
10
207.440000000000
20
292.260000000000
30
0.0
0
VERTEX
5
55a
100
AcDbEntity
8
0àÍî ê}-0
6
CONTINUOUS
62
  4
100
AcDbVertex
100
AcDb2dVertex
10
205.510000000000
20
292.780000000000
30
0.0
0
SEQEND
5
55b
100
AcDbEntity
8
0àÍî ê}-0
0
LINE
5
55c
100
AcDbEntity
8
0àÍî ê}-0
6
CONTINUOUS
62
4
100
AcDbLine
10
207.440000000000
20
292.260000000000
30
0.0
11
205.510000000000
21
291.750000000000
31
0.0
0
LINE
5
55d
100
AcDbEntity
8
0àÍî ê}-0
6
CONTINUOUS
62
4
100
AcDbLine
10
207.440000000000
20
292.760000000000
30
0.0
11
207.440000000000
21
283.820000000000
31
0.0
0
LINE
5
55e
100
AcDbEntity
8
0àÍî ê}-0
6
CONTINUOUS
62
4
100
AcDbLine
10
108.650000000000
20
221.050000000000
30
0.0
11
108.650000000000
21
215.240000000000
31
0.0
0
LINE
5
55f
100
AcDbEntity
8
0àÍî ê}-0
6
CONTINUOUS
62
4
100
AcDbLine
10
108.650000000000
20
220.540000000000
30
0.0
11
110.580000000000
21
220.020000000000
31
0.0
0
LINE
5
560
100
AcDbEntity
8
0àÍî ê}-0
6
CONTINUOUS
62
4
100
AcDbLine
10
108.650000000000
20
220.540000000000
30
0.0
11
110.580000000000
21
221.050000000000
31
0.0
0
POLYLINE
5
561
100
AcDbEntity
8
0àÍî ê}-0
6
CONTINUOUS
62
  4
100
AcDb2dPolyline
66
1
10
0.0
20
0.0
30
0.0
70
0
0
VERTEX
5
562
100
AcDbEntity
8
0àÍî ê}-0
6
CONTINUOUS
62
  4
100
AcDbVertex
100
AcDb2dVertex
10
108.650000000000
20
220.540000000000
30
0.0
0
VERTEX
5
563
100
AcDbEntity
8
0àÍî ê}-0
6
CONTINUOUS
62
  4
100
AcDbVertex
100
AcDb2dVertex
10
146.150000000000
20
220.540000000000
30
0.0
0
VERTEX
5
564
100
AcDbEntity
8
0àÍî ê}-0
6
CONTINUOUS
62
  4
100
AcDbVertex
100
AcDb2dVertex
10
144.220000000000
20
221.050000000000
30
0.0
0
SEQEND
5
565
100
AcDbEntity
8
0àÍî ê}-0
0
LINE
5
566
100
AcDbEntity
8
0àÍî ê}-0
6
CONTINUOUS
62
4
100
AcDbLine
10
146.150000000000
20
220.540000000000
30
0.0
11
144.220000000000
21
220.020000000000
31
0.0
0
LINE
5
567
100
AcDbEntity
8
0àÍî ê}-0
6
CONTINUOUS
62
4
100
AcDbLine
10
146.150000000000
20
221.050000000000
30
0.0
11
146.150000000000
21
215.240000000000
31
0.0
0
LINE
5
568
100
AcDbEntity
8
0àÍî ê}-0
6
CONTINUOUS
62
4
100
AcDbLine
10
127.400000000000
20
166.510000000000
30
0.0
11
129.330000000000
21
165.990000000000
31
0.0
0
LINE
5
569
100
AcDbEntity
8
0àÍî ê}-0
6
CONTINUOUS
62
4
100
AcDbLine
10
127.400000000000
20
166.510000000000
30
0.0
11
129.330000000000
21
167.030000000000
31
0.0
0
POLYLINE
5
56a
100
AcDbEntity
8
0àÍî ê}-0
6
CONTINUOUS
62
  4
100
AcDb2dPolyline
66
1
10
0.0
20
0.0
30
0.0
70
0
0
VERTEX
5
56b
100
AcDbEntity
8
0àÍî ê}-0
6
CONTINUOUS
62
  4
100
AcDbVertex
100
AcDb2dVertex
10
127.400000000000
20
166.510000000000
30
0.0
0
VERTEX
5
56c
100
AcDbEntity
8
0àÍî ê}-0
6
CONTINUOUS
62
  4
100
AcDbVertex
100
AcDb2dVertex
10
141.000000000000
20
166.510000000000
30
0.0
0
VERTEX
5
56d
100
AcDbEntity
8
0àÍî ê}-0
6
CONTINUOUS
62
  4
100
AcDbVertex
100
AcDb2dVertex
10
139.070000000000
20
167.030000000000
30
0.0
0
SEQEND
5
56e
100
AcDbEntity
8
0àÍî ê}-0
0
LINE
5
56f
100
AcDbEntity
8
0àÍî ê}-0
6
CONTINUOUS
62
4
100
AcDbLine
10
141.000000000000
20
166.510000000000
30
0.0
11
139.070000000000
21
165.990000000000
31
0.0
0
LINE
5
570
100
AcDbEntity
8
0àÍî ê}-0
6
CONTINUOUS
62
4
100
AcDbLine
10
141.000000000000
20
167.010000000000
30
0.0
11
141.000000000000
21
156.100000000000
31
0.0
0
LINE
5
571
100
AcDbEntity
8
0àÍî ê}-0
6
CONTINUOUS
62
4
100
AcDbLine
10
165.300000000000
20
152.140000000000
30
0.0
11
144.920000000000
21
152.140000000000
31
0.0
0
LINE
5
572
100
AcDbEntity
8
0àÍî ê}-0
6
CONTINUOUS
62
4
100
AcDbLine
10
164.800000000000
20
152.140000000000
30
0.0
11
164.280000000000
21
150.200000000000
31
0.0
0
LINE
5
573
100
AcDbEntity
8
0àÍî ê}-0
6
CONTINUOUS
62
4
100
AcDbLine
10
164.800000000000
20
152.140000000000
30
0.0
11
165.320000000000
21
150.200000000000
31
0.0
0
LINE
5
574
100
AcDbEntity
8
0àÍî ê}-0
6
CONTINUOUS
62
4
100
AcDbLine
10
164.800000000000
20
145.240000000000
30
0.0
11
164.800000000000
21
152.140000000000
31
0.0
0
LINE
5
575
100
AcDbEntity
8
0àÍî ê}-0
6
CONTINUOUS
62
4
100
AcDbLine
10
164.800000000000
20
145.240000000000
30
0.0
11
165.320000000000
21
147.170000000000
31
0.0
0
LINE
5
576
100
AcDbEntity
8
0àÍî ê}-0
6
CONTINUOUS
62
4
100
AcDbLine
10
164.800000000000
20
145.240000000000
30
0.0
11
164.280000000000
21
147.170000000000
31
0.0
0
LINE
5
577
100
AcDbEntity
8
0àÍî ê}-0
6
CONTINUOUS
62
4
100
AcDbLine
10
165.300000000000
20
145.240000000000
30
0.0
11
152.400000000000
21
145.240000000000
31
0.0
0
LINE
5
578
100
AcDbEntity
8
0àÍî ê}-0
6
CONTINUOUS
62
4
100
AcDbLine
10
141.390000000000
20
151.400000000000
30
0.0
11
155.640000000000
21
137.150000000000
31
0.0
0
LINE
5
579
100
AcDbEntity
8
0àÍî ê}-0
6
CONTINUOUS
62
4
100
AcDbLine
10
180.440000000000
20
134.640000000000
30
0.0
11
180.440000000000
21
85.360000000000
31
0.0
0
LINE
5
57a
100
AcDbEntity
8
0àÍî ê}-0
6
CONTINUOUS
62
4
100
AcDbLine
10
180.440000000000
20
134.120000000000
30
0.0
11
182.370000000000
21
133.610000000000
31
0.0
0
LINE
5
57b
100
AcDbEntity
8
0àÍî ê}-0
6
CONTINUOUS
62
4
100
AcDbLine
10
180.440000000000
20
134.120000000000
30
0.0
11
182.370000000000
21
134.640000000000
31
0.0
0
POLYLINE
5
57c
100
AcDbEntity
8
0àÍî ê}-0
6
CONTINUOUS
62
  4
100
AcDb2dPolyline
66
1
10
0.0
20
0.0
30
0.0
70
0
0
VERTEX
5
57d
100
AcDbEntity
8
0àÍî ê}-0
6
CONTINUOUS
62
  4
100
AcDbVertex
100
AcDb2dVertex
10
180.440000000000
20
134.120000000000
30
0.0
0
VERTEX
5
57e
100
AcDbEntity
8
0àÍî ê}-0
6
CONTINUOUS
62
  4
100
AcDbVertex
100
AcDb2dVertex
10
220.440000000000
20
134.120000000000
30
0.0
0
VERTEX
5
57f
100
AcDbEntity
8
0àÍî ê}-0
6
CONTINUOUS
62
  4
100
AcDbVertex
100
AcDb2dVertex
10
218.510000000000
20
133.610000000000
30
0.0
0
SEQEND
5
580
100
AcDbEntity
8
0àÍî ê}-0
0
LINE
5
581
100
AcDbEntity
8
0àÍî ê}-0
6
CONTINUOUS
62
4
100
AcDbLine
10
220.440000000000
20
134.120000000000
30
0.0
11
218.510000000000
21
134.640000000000
31
0.0
0
LINE
5
582
100
AcDbEntity
8
0àÍî ê}-0
6
CONTINUOUS
62
4
100
AcDbLine
10
220.440000000000
20
134.640000000000
30
0.0
11
220.440000000000
21
125.340000000000
31
0.0
0
LINE
5
583
100
AcDbEntity
8
0àÍî ê}-0
6
CONTINUOUS
62
4
100
AcDbLine
10
221.190000000000
20
124.700000000000
30
0.0
11
222.610000000000
21
126.110000000000
31
0.0
0
LINE
5
584
100
AcDbEntity
8
0àÍî ê}-0
6
CONTINUOUS
62
4
100
AcDbLine
10
221.190000000000
20
124.700000000000
30
0.0
11
221.710000000000
21
126.630000000000
31
0.0
0
LINE
5
585
100
AcDbEntity
8
0àÍî ê}-0
6
CONTINUOUS
62
4
100
AcDbLine
10
221.190000000000
20
124.700000000000
30
0.0
11
226.590000000000
21
134.050000000000
31
0.0
0
LINE
5
586
100
AcDbEntity
8
0àÍî ê}-0
6
CONTINUOUS
62
4
100
AcDbLine
10
236.130000000000
20
123.400000000000
30
0.0
11
224.510000000000
21
123.400000000000
31
0.0
0
LINE
5
587
100
AcDbEntity
8
0àÍî ê}-0
6
CONTINUOUS
62
4
100
AcDbLine
10
235.630000000000
20
123.400000000000
30
0.0
11
235.120000000000
21
121.470000000000
31
0.0
0
LINE
5
588
100
AcDbEntity
8
0àÍî ê}-0
6
CONTINUOUS
62
4
100
AcDbLine
10
235.630000000000
20
123.400000000000
30
0.0
11
236.150000000000
21
121.470000000000
31
0.0
0
POLYLINE
5
589
100
AcDbEntity
8
0àÍî ê}-0
6
CONTINUOUS
62
  4
100
AcDb2dPolyline
66
1
10
0.0
20
0.0
30
0.0
70
0
0
VERTEX
5
58a
100
AcDbEntity
8
0àÍî ê}-0
6
CONTINUOUS
62
  4
100
AcDbVertex
100
AcDb2dVertex
10
235.630000000000
20
123.400000000000
30
0.0
0
VERTEX
5
58b
100
AcDbEntity
8
0àÍî ê}-0
6
CONTINUOUS
62
  4
100
AcDbVertex
100
AcDb2dVertex
10
235.630000000000
20
83.400000000000
30
0.0
0
VERTEX
5
58c
100
AcDbEntity
8
0àÍî ê}-0
6
CONTINUOUS
62
  4
100
AcDbVertex
100
AcDb2dVertex
10
235.120000000000
20
85.330000000000
30
0.0
0
SEQEND
5
58d
100
AcDbEntity
8
0àÍî ê}-0
0
LINE
5
58e
100
AcDbEntity
8
0àÍî ê}-0
6
CONTINUOUS
62
4
100
AcDbLine
10
235.630000000000
20
83.400000000000
30
0.0
11
236.150000000000
21
85.330000000000
31
0.0
0
LINE
5
58f
100
AcDbEntity
8
0àÍî ê}-0
6
CONTINUOUS
62
4
100
AcDbLine
10
236.130000000000
20
83.400000000000
30
0.0
11
182.860000000000
21
83.400000000000
31
0.0
0
POLYLINE
5
590
100
AcDbEntity
8
0àÍî ê}-1
6
CONTINUOUS
62
  7
100
AcDb2dPolyline
66
1
10
0.0
20
0.0
30
0.0
70
0
0
VERTEX
5
591
100
AcDbEntity
8
0àÍî ê}-1
6
CONTINUOUS
62
  7
100
AcDbVertex
100
AcDb2dVertex
10
196.440000000000
20
285.220000000000
30
0.0
0
VERTEX
5
592
100
AcDbEntity
8
0àÍî ê}-1
6
CONTINUOUS
62
  7
100
AcDbVertex
100
AcDb2dVertex
10
196.430000000000
20
285.220000000000
30
0.0
0
VERTEX
5
593
100
AcDbEntity
8
0àÍî ê}-1
6
CONTINUOUS
62
  7
100
AcDbVertex
100
AcDb2dVertex
10
196.420000000000
20
285.220000000000
30
0.0
0
SEQEND
5
594
100
AcDbEntity
8
0àÍî ê}-1
0
POLYLINE
5
595
100
AcDbEntity
8
0àÍî ê}-1
6
CONTINUOUS
62
  7
100
AcDb2dPolyline
66
1
10
0.0
20
0.0
30
0.0
70
0
0
VERTEX
5
596
100
AcDbEntity
8
0àÍî ê}-1
6
CONTINUOUS
62
  7
100
AcDbVertex
100
AcDb2dVertex
10
204.460000000000
20
285.110000000000
30
0.0
0
VERTEX
5
597
100
AcDbEntity
8
0àÍî ê}-1
6
CONTINUOUS
62
  7
100
AcDbVertex
100
AcDb2dVertex
10
204.450000000000
20
285.110000000000
30
0.0
0
VERTEX
5
598
100
AcDbEntity
8
0àÍî ê}-1
6
CONTINUOUS
62
  7
100
AcDbVertex
100
AcDb2dVertex
10
204.440000000000
20
285.110000000000
30
0.0
0
SEQEND
5
599
100
AcDbEntity
8
0àÍî ê}-1
0
POLYLINE
5
59a
100
AcDbEntity
8
0àÍî ê}-1
6
CONTINUOUS
62
  7
100
AcDb2dPolyline
66
1
10
0.0
20
0.0
30
0.0
70
0
0
VERTEX
5
59b
100
AcDbEntity
8
0àÍî ê}-1
6
CONTINUOUS
62
  7
100
AcDbVertex
100
AcDb2dVertex
10
204.960000000000
20
284.630000000000
30
0.0
0
VERTEX
5
59c
100
AcDbEntity
8
0àÍî ê}-1
6
CONTINUOUS
62
  7
100
AcDbVertex
100
AcDb2dVertex
10
204.950000000000
20
284.720000000000
30
0.0
0
VERTEX
5
59d
100
AcDbEntity
8
0àÍî ê}-1
6
CONTINUOUS
62
  7
100
AcDbVertex
100
AcDb2dVertex
10
204.920000000000
20
284.810000000000
30
0.0
0
VERTEX
5
59e
100
AcDbEntity
8
0àÍî ê}-1
6
CONTINUOUS
62
  7
100
AcDbVertex
100
AcDb2dVertex
10
204.870000000000
20
284.890000000000
30
0.0
0
VERTEX
5
59f
100
AcDbEntity
8
0àÍî ê}-1
6
CONTINUOUS
62
  7
100
AcDbVertex
100
AcDb2dVertex
10
204.810000000000
20
284.960000000000
30
0.0
0
VERTEX
5
5a0
100
AcDbEntity
8
0àÍî ê}-1
6
CONTINUOUS
62
  7
100
AcDbVertex
100
AcDb2dVertex
10
204.730000000000
20
285.020000000000
30
0.0
0
VERTEX
5
5a1
100
AcDbEntity
8
0àÍî ê}-1
6
CONTINUOUS
62
  7
100
AcDbVertex
100
AcDb2dVertex
10
204.650000000000
20
285.070000000000
30
0.0
0
VERTEX
5
5a2
100
AcDbEntity
8
0àÍî ê}-1
6
CONTINUOUS
62
  7
100
AcDbVertex
100
AcDb2dVertex
10
204.550000000000
20
285.100000000000
30
0.0
0
VERTEX
5
5a3
100
AcDbEntity
8
0àÍî ê}-1
6
CONTINUOUS
62
  7
100
AcDbVertex
100
AcDb2dVertex
10
204.460000000000
20
285.110000000000
30
0.0
0
SEQEND
5
5a4
100
AcDbEntity
8
0àÍî ê}-1
0
POLYLINE
5
5a5
100
AcDbEntity
8
0àÍî ê}-1
6
CONTINUOUS
62
  7
100
AcDb2dPolyline
66
1
10
0.0
20
0.0
30
0.0
70
0
0
VERTEX
5
5a6
100
AcDbEntity
8
0àÍî ê}-1
6
CONTINUOUS
62
  7
100
AcDbVertex
100
AcDb2dVertex
10
196.420000000000
20
285.220000000000
30
0.0
0
VERTEX
5
5a7
100
AcDbEntity
8
0àÍî ê}-1
6
CONTINUOUS
62
  7
100
AcDbVertex
100
AcDb2dVertex
10
196.330000000000
20
285.210000000000
30
0.0
0
VERTEX
5
5a8
100
AcDbEntity
8
0àÍî ê}-1
6
CONTINUOUS
62
  7
100
AcDbVertex
100
AcDb2dVertex
10
196.240000000000
20
285.180000000000
30
0.0
0
VERTEX
5
5a9
100
AcDbEntity
8
0àÍî ê}-1
6
CONTINUOUS
62
  7
100
AcDbVertex
100
AcDb2dVertex
10
196.150000000000
20
285.140000000000
30
0.0
0
VERTEX
5
5aa
100
AcDbEntity
8
0àÍî ê}-1
6
CONTINUOUS
62
  7
100
AcDbVertex
100
AcDb2dVertex
10
196.080000000000
20
285.080000000000
30
0.0
0
VERTEX
5
5ab
100
AcDbEntity
8
0àÍî ê}-1
6
CONTINUOUS
62
  7
100
AcDbVertex
100
AcDb2dVertex
10
196.010000000000
20
285.000000000000
30
0.0
0
VERTEX
5
5ac
100
AcDbEntity
8
0àÍî ê}-1
6
CONTINUOUS
62
  7
100
AcDbVertex
100
AcDb2dVertex
10
195.970000000000
20
284.920000000000
30
0.0
0
VERTEX
5
5ad
100
AcDbEntity
8
0àÍî ê}-1
6
CONTINUOUS
62
  7
100
AcDbVertex
100
AcDb2dVertex
10
195.940000000000
20
284.830000000000
30
0.0
0
VERTEX
5
5ae
100
AcDbEntity
8
0àÍî ê}-1
6
CONTINUOUS
62
  7
100
AcDbVertex
100
AcDb2dVertex
10
195.920000000000
20
284.740000000000
30
0.0
0
SEQEND
5
5af
100
AcDbEntity
8
0àÍî ê}-1
0
POLYLINE
5
5b0
100
AcDbEntity
8
0àÍî ê}-1
6
CONTINUOUS
62
  7
100
AcDb2dPolyline
66
1
10
0.0
20
0.0
30
0.0
70
0
0
VERTEX
5
5b1
100
AcDbEntity
8
0àÍî ê}-1
6
CONTINUOUS
62
  7
100
AcDbVertex
100
AcDb2dVertex
10
205.610000000000
20
285.280000000000
30
0.0
0
VERTEX
5
5b2
100
AcDbEntity
8
0àÍî ê}-1
6
CONTINUOUS
62
  7
100
AcDbVertex
100
AcDb2dVertex
10
205.580000000000
20
285.260000000000
30
0.0
0
VERTEX
5
5b3
100
AcDbEntity
8
0àÍî ê}-1
6
CONTINUOUS
62
  7
100
AcDbVertex
100
AcDb2dVertex
10
205.500000000000
20
285.190000000000
30
0.0
0
SEQEND
5
5b4
100
AcDbEntity
8
0àÍî ê}-1
0
POLYLINE
5
5b5
100
AcDbEntity
8
0àÍî ê}-1
6
CONTINUOUS
62
  7
100
AcDb2dPolyline
66
1
10
0.0
20
0.0
30
0.0
70
0
0
VERTEX
5
5b6
100
AcDbEntity
8
0àÍî ê}-1
6
CONTINUOUS
62
  7
100
AcDbVertex
100
AcDb2dVertex
10
205.620000000000
20
285.290000000000
30
0.0
0
VERTEX
5
5b7
100
AcDbEntity
8
0àÍî ê}-1
6
CONTINUOUS
62
  7
100
AcDbVertex
100
AcDb2dVertex
10
205.620000000000
20
285.310000000000
30
0.0
0
VERTEX
5
5b8
100
AcDbEntity
8
0àÍî ê}-1
6
CONTINUOUS
62
  7
100
AcDbVertex
100
AcDb2dVertex
10
205.620000000000
20
285.350000000000
30
0.0
0
VERTEX
5
5b9
100
AcDbEntity
8
0àÍî ê}-1
6
CONTINUOUS
62
  7
100
AcDbVertex
100
AcDb2dVertex
10
205.610000000000
20
285.410000000000
30
0.0
0
VERTEX
5
5ba
100
AcDbEntity
8
0àÍî ê}-1
6
CONTINUOUS
62
  7
100
AcDbVertex
100
AcDb2dVertex
10
205.600000000000
20
285.470000000000
30
0.0
0
VERTEX
5
5bb
100
AcDbEntity
8
0àÍî ê}-1
6
CONTINUOUS
62
  7
100
AcDbVertex
100
AcDb2dVertex
10
205.590000000000
20
285.480000000000
30
0.0
0
SEQEND
5
5bc
100
AcDbEntity
8
0àÍî ê}-1
0
POLYLINE
5
5bd
100
AcDbEntity
8
0àÍî ê}-1
6
CONTINUOUS
62
  7
100
AcDb2dPolyline
66
1
10
0.0
20
0.0
30
0.0
70
0
0
VERTEX
5
5be
100
AcDbEntity
8
0àÍî ê}-1
6
CONTINUOUS
62
  7
100
AcDbVertex
100
AcDb2dVertex
10
195.260000000000
20
285.490000000000
30
0.0
0
VERTEX
5
5bf
100
AcDbEntity
8
0àÍî ê}-1
6
CONTINUOUS
62
  7
100
AcDbVertex
100
AcDb2dVertex
10
195.260000000000
20
285.430000000000
30
0.0
0
VERTEX
5
5c0
100
AcDbEntity
8
0àÍî ê}-1
6
CONTINUOUS
62
  7
100
AcDbVertex
100
AcDb2dVertex
10
195.260000000000
20
285.410000000000
30
0.0
0
SEQEND
5
5c1
100
AcDbEntity
8
0àÍî ê}-1
0
POLYLINE
5
5c2
100
AcDbEntity
8
0àÍî ê}-1
6
CONTINUOUS
62
  7
100
AcDb2dPolyline
66
1
10
0.0
20
0.0
30
0.0
70
0
0
VERTEX
5
5c3
100
AcDbEntity
8
0àÍî ê}-1
6
CONTINUOUS
62
  7
100
AcDbVertex
100
AcDb2dVertex
10
205.070000000000
20
286.640000000000
30
0.0
0
VERTEX
5
5c4
100
AcDbEntity
8
0àÍî ê}-1
6
CONTINUOUS
62
  7
100
AcDbVertex
100
AcDb2dVertex
10
205.100000000000
20
286.560000000000
30
0.0
0
VERTEX
5
5c5
100
AcDbEntity
8
0àÍî ê}-1
6
CONTINUOUS
62
  7
100
AcDbVertex
100
AcDb2dVertex
10
205.120000000000
20
286.490000000000
30
0.0
0
VERTEX
5
5c6
100
AcDbEntity
8
0àÍî ê}-1
6
CONTINUOUS
62
  7
100
AcDbVertex
100
AcDb2dVertex
10
205.130000000000
20
286.410000000000
30
0.0
0
SEQEND
5
5c7
100
AcDbEntity
8
0àÍî ê}-1
0
POLYLINE
5
5c8
100
AcDbEntity
8
0àÍî ê}-1
6
CONTINUOUS
62
  7
100
AcDb2dPolyline
66
1
10
0.0
20
0.0
30
0.0
70
0
0
VERTEX
5
5c9
100
AcDbEntity
8
0àÍî ê}-1
6
CONTINUOUS
62
  7
100
AcDbVertex
100
AcDb2dVertex
10
204.630000000000
20
286.910000000000
30
0.0
0
VERTEX
5
5ca
100
AcDbEntity
8
0àÍî ê}-1
6
CONTINUOUS
62
  7
100
AcDbVertex
100
AcDb2dVertex
10
204.780000000000
20
286.890000000000
30
0.0
0
VERTEX
5
5cb
100
AcDbEntity
8
0àÍî ê}-1
6
CONTINUOUS
62
  7
100
AcDbVertex
100
AcDb2dVertex
10
204.910000000000
20
286.820000000000
30
0.0
0
VERTEX
5
5cc
100
AcDbEntity
8
0àÍî ê}-1
6
CONTINUOUS
62
  7
100
AcDbVertex
100
AcDb2dVertex
10
205.030000000000
20
286.700000000000
30
0.0
0
VERTEX
5
5cd
100
AcDbEntity
8
0àÍî ê}-1
6
CONTINUOUS
62
  7
100
AcDbVertex
100
AcDb2dVertex
10
205.070000000000
20
286.640000000000
30
0.0
0
SEQEND
5
5ce
100
AcDbEntity
8
0àÍî ê}-1
0
POLYLINE
5
5cf
100
AcDbEntity
8
0àÍî ê}-1
6
CONTINUOUS
62
  7
100
AcDb2dPolyline
66
1
10
0.0
20
0.0
30
0.0
70
0
0
VERTEX
5
5d0
100
AcDbEntity
8
0àÍî ê}-1
6
CONTINUOUS
62
  7
100
AcDbVertex
100
AcDb2dVertex
10
195.810000000000
20
286.640000000000
30
0.0
0
VERTEX
5
5d1
100
AcDbEntity
8
0àÍî ê}-1
6
CONTINUOUS
62
  7
100
AcDbVertex
100
AcDb2dVertex
10
195.900000000000
20
286.760000000000
30
0.0
0
VERTEX
5
5d2
100
AcDbEntity
8
0àÍî ê}-1
6
CONTINUOUS
62
  7
100
AcDbVertex
100
AcDb2dVertex
10
196.030000000000
20
286.860000000000
30
0.0
0
VERTEX
5
5d3
100
AcDbEntity
8
0àÍî ê}-1
6
CONTINUOUS
62
  7
100
AcDbVertex
100
AcDb2dVertex
10
196.190000000000
20
286.910000000000
30
0.0
0
VERTEX
5
5d4
100
AcDbEntity
8
0àÍî ê}-1
6
CONTINUOUS
62
  7
100
AcDbVertex
100
AcDb2dVertex
10
196.250000000000
20
286.910000000000
30
0.0
0
SEQEND
5
5d5
100
AcDbEntity
8
0àÍî ê}-1
0
POLYLINE
5
5d6
100
AcDbEntity
8
0àÍî ê}-1
6
CONTINUOUS
62
  7
100
AcDb2dPolyline
66
1
10
0.0
20
0.0
30
0.0
70
0
0
VERTEX
5
5d7
100
AcDbEntity
8
0àÍî ê}-1
6
CONTINUOUS
62
  7
100
AcDbVertex
100
AcDb2dVertex
10
195.760000000000
20
286.410000000000
30
0.0
0
VERTEX
5
5d8
100
AcDbEntity
8
0àÍî ê}-1
6
CONTINUOUS
62
  7
100
AcDbVertex
100
AcDb2dVertex
10
195.760000000000
20
286.490000000000
30
0.0
0
VERTEX
5
5d9
100
AcDbEntity
8
0àÍî ê}-1
6
CONTINUOUS
62
  7
100
AcDbVertex
100
AcDb2dVertex
10
195.780000000000
20
286.560000000000
30
0.0
0
VERTEX
5
5da
100
AcDbEntity
8
0àÍî ê}-1
6
CONTINUOUS
62
  7
100
AcDbVertex
100
AcDb2dVertex
10
195.810000000000
20
286.640000000000
30
0.0
0
SEQEND
5
5db
100
AcDbEntity
8
0àÍî ê}-1
0
POLYLINE
5
5dc
100
AcDbEntity
8
0àÍî ê}-1
6
CONTINUOUS
62
  7
100
AcDb2dPolyline
66
1
10
0.0
20
0.0
30
0.0
70
0
0
VERTEX
5
5dd
100
AcDbEntity
8
0àÍî ê}-1
6
CONTINUOUS
62
  7
100
AcDbVertex
100
AcDb2dVertex
10
195.380000000000
20
285.190000000000
30
0.0
0
VERTEX
5
5de
100
AcDbEntity
8
0àÍî ê}-1
6
CONTINUOUS
62
  7
100
AcDbVertex
100
AcDb2dVertex
10
195.390000000000
20
285.160000000000
30
0.0
0
VERTEX
5
5df
100
AcDbEntity
8
0àÍî ê}-1
6
CONTINUOUS
62
  7
100
AcDbVertex
100
AcDb2dVertex
10
195.390000000000
20
285.080000000000
30
0.0
0
VERTEX
5
5e0
100
AcDbEntity
8
0àÍî ê}-1
6
CONTINUOUS
62
  7
100
AcDbVertex
100
AcDb2dVertex
10
195.390000000000
20
284.950000000000
30
0.0
0
VERTEX
5
5e1
100
AcDbEntity
8
0àÍî ê}-1
6
CONTINUOUS
62
  7
100
AcDbVertex
100
AcDb2dVertex
10
195.400000000000
20
284.790000000000
30
0.0
0
VERTEX
5
5e2
100
AcDbEntity
8
0àÍî ê}-1
6
CONTINUOUS
62
  7
100
AcDbVertex
100
AcDb2dVertex
10
195.400000000000
20
284.650000000000
30
0.0
0
SEQEND
5
5e3
100
AcDbEntity
8
0àÍî ê}-1
0
POLYLINE
5
5e4
100
AcDbEntity
8
0àÍî ê}-1
6
CONTINUOUS
62
  7
100
AcDb2dPolyline
66
1
10
0.0
20
0.0
30
0.0
70
0
0
VERTEX
5
5e5
100
AcDbEntity
8
0àÍî ê}-1
6
CONTINUOUS
62
  7
100
AcDbVertex
100
AcDb2dVertex
10
195.380000000000
20
285.190000000000
30
0.0
0
VERTEX
5
5e6
100
AcDbEntity
8
0àÍî ê}-1
6
CONTINUOUS
62
  7
100
AcDbVertex
100
AcDb2dVertex
10
195.340000000000
20
285.230000000000
30
0.0
0
VERTEX
5
5e7
100
AcDbEntity
8
0àÍî ê}-1
6
CONTINUOUS
62
  7
100
AcDbVertex
100
AcDb2dVertex
10
195.300000000000
20
285.260000000000
30
0.0
0
VERTEX
5
5e8
100
AcDbEntity
8
0àÍî ê}-1
6
CONTINUOUS
62
  7
100
AcDbVertex
100
AcDb2dVertex
10
195.260000000000
20
285.290000000000
30
0.0
0
SEQEND
5
5e9
100
AcDbEntity
8
0àÍî ê}-1
0
POLYLINE
5
5ea
100
AcDbEntity
8
0àÍî ê}-1
6
CONTINUOUS
62
  7
100
AcDb2dPolyline
66
1
10
0.0
20
0.0
30
0.0
70
0
0
VERTEX
5
5eb
100
AcDbEntity
8
0àÍî ê}-1
6
CONTINUOUS
62
  7
100
AcDbVertex
100
AcDb2dVertex
10
195.260000000000
20
285.410000000000
30
0.0
0
VERTEX
5
5ec
100
AcDbEntity
8
0àÍî ê}-1
6
CONTINUOUS
62
  7
100
AcDbVertex
100
AcDb2dVertex
10
195.260000000000
20
285.350000000000
30
0.0
0
VERTEX
5
5ed
100
AcDbEntity
8
0àÍî ê}-1
6
CONTINUOUS
62
  7
100
AcDbVertex
100
AcDb2dVertex
10
195.260000000000
20
285.310000000000
30
0.0
0
VERTEX
5
5ee
100
AcDbEntity
8
0àÍî ê}-1
6
CONTINUOUS
62
  7
100
AcDbVertex
100
AcDb2dVertex
10
195.260000000000
20
285.290000000000
30
0.0
0
VERTEX
5
5ef
100
AcDbEntity
8
0àÍî ê}-1
6
CONTINUOUS
62
  7
100
AcDbVertex
100
AcDb2dVertex
10
195.260000000000
20
285.290000000000
30
0.0
0
SEQEND
5
5f0
100
AcDbEntity
8
0àÍî ê}-1
0
POLYLINE
5
5f1
100
AcDbEntity
8
0àÍî ê}-1
6
CONTINUOUS
62
  7
100
AcDb2dPolyline
66
1
10
0.0
20
0.0
30
0.0
70
0
0
VERTEX
5
5f2
100
AcDbEntity
8
0àÍî ê}-1
6
CONTINUOUS
62
  7
100
AcDbVertex
100
AcDb2dVertex
10
205.490000000000
20
284.650000000000
30
0.0
0
VERTEX
5
5f3
100
AcDbEntity
8
0àÍî ê}-1
6
CONTINUOUS
62
  7
100
AcDbVertex
100
AcDb2dVertex
10
205.490000000000
20
284.840000000000
30
0.0
0
VERTEX
5
5f4
100
AcDbEntity
8
0àÍî ê}-1
6
CONTINUOUS
62
  7
100
AcDbVertex
100
AcDb2dVertex
10
205.490000000000
20
285.020000000000
30
0.0
0
VERTEX
5
5f5
100
AcDbEntity
8
0àÍî ê}-1
6
CONTINUOUS
62
  7
100
AcDbVertex
100
AcDb2dVertex
10
205.500000000000
20
285.140000000000
30
0.0
0
VERTEX
5
5f6
100
AcDbEntity
8
0àÍî ê}-1
6
CONTINUOUS
62
  7
100
AcDbVertex
100
AcDb2dVertex
10
205.500000000000
20
285.170000000000
30
0.0
0
SEQEND
5
5f7
100
AcDbEntity
8
0àÍî ê}-1
0
POLYLINE
5
5f8
100
AcDbEntity
8
0àÍî ê}-1
6
CONTINUOUS
62
  7
100
AcDb2dPolyline
66
1
10
0.0
20
0.0
30
0.0
70
0
0
VERTEX
5
5f9
100
AcDbEntity
8
0àÍî ê}-1
6
CONTINUOUS
62
  7
100
AcDbVertex
100
AcDb2dVertex
10
207.630000000000
20
282.820000000000
30
0.0
0
VERTEX
5
5fa
100
AcDbEntity
8
0àÍî ê}-1
6
CONTINUOUS
62
  7
100
AcDbVertex
100
AcDb2dVertex
10
207.630000000000
20
282.820000000000
30
0.0
0
VERTEX
5
5fb
100
AcDbEntity
8
0àÍî ê}-1
6
CONTINUOUS
62
  7
100
AcDbVertex
100
AcDb2dVertex
10
207.350000000000
20
282.910000000000
30
0.0
0
VERTEX
5
5fc
100
AcDbEntity
8
0àÍî ê}-1
6
CONTINUOUS
62
  7
100
AcDbVertex
100
AcDb2dVertex
10
207.070000000000
20
283.010000000000
30
0.0
0
VERTEX
5
5fd
100
AcDbEntity
8
0àÍî ê}-1
6
CONTINUOUS
62
  7
100
AcDbVertex
100
AcDb2dVertex
10
206.830000000000
20
283.080000000000
30
0.0
0
SEQEND
5
5fe
100
AcDbEntity
8
0àÍî ê}-1
0
POLYLINE
5
5ff
100
AcDbEntity
8
0àÍî ê}-1
6
CONTINUOUS
62
  7
100
AcDb2dPolyline
66
1
10
0.0
20
0.0
30
0.0
70
0
0
VERTEX
5
600
100
AcDbEntity
8
0àÍî ê}-1
6
CONTINUOUS
62
  7
100
AcDbVertex
100
AcDb2dVertex
10
194.050000000000
20
283.080000000000
30
0.0
0
VERTEX
5
601
100
AcDbEntity
8
0àÍî ê}-1
6
CONTINUOUS
62
  7
100
AcDbVertex
100
AcDb2dVertex
10
193.820000000000
20
283.010000000000
30
0.0
0
VERTEX
5
602
100
AcDbEntity
8
0àÍî ê}-1
6
CONTINUOUS
62
  7
100
AcDbVertex
100
AcDb2dVertex
10
193.530000000000
20
282.910000000000
30
0.0
0
VERTEX
5
603
100
AcDbEntity
8
0àÍî ê}-1
6
CONTINUOUS
62
  7
100
AcDbVertex
100
AcDb2dVertex
10
193.250000000000
20
282.820000000000
30
0.0
0
VERTEX
5
604
100
AcDbEntity
8
0àÍî ê}-1
6
CONTINUOUS
62
  7
100
AcDbVertex
100
AcDb2dVertex
10
193.250000000000
20
282.820000000000
30
0.0
0
SEQEND
5
605
100
AcDbEntity
8
0àÍî ê}-1
0
POLYLINE
5
606
100
AcDbEntity
8
0àÍî ê}-1
6
CONTINUOUS
62
  7
100
AcDb2dPolyline
66
1
10
0.0
20
0.0
30
0.0
70
0
0
VERTEX
5
607
100
AcDbEntity
8
0àÍî ê}-1
6
CONTINUOUS
62
  7
100
AcDbVertex
100
AcDb2dVertex
10
176.460000000000
20
242.240000000000
30
0.0
0
VERTEX
5
608
100
AcDbEntity
8
0àÍî ê}-1
6
CONTINUOUS
62
  7
100
AcDbVertex
100
AcDb2dVertex
10
176.500000000000
20
241.770000000000
30
0.0
0
VERTEX
5
609
100
AcDbEntity
8
0àÍî ê}-1
6
CONTINUOUS
62
  7
100
AcDbVertex
100
AcDb2dVertex
10
176.610000000000
20
241.310000000000
30
0.0
0
VERTEX
5
60a
100
AcDbEntity
8
0àÍî ê}-1
6
CONTINUOUS
62
  7
100
AcDbVertex
100
AcDb2dVertex
10
176.790000000000
20
240.880000000000
30
0.0
0
VERTEX
5
60b
100
AcDbEntity
8
0àÍî ê}-1
6
CONTINUOUS
62
  7
100
AcDbVertex
100
AcDb2dVertex
10
177.030000000000
20
240.480000000000
30
0.0
0
VERTEX
5
60c
100
AcDbEntity
8
0àÍî ê}-1
6
CONTINUOUS
62
  7
100
AcDbVertex
100
AcDb2dVertex
10
177.340000000000
20
240.120000000000
30
0.0
0
VERTEX
5
60d
100
AcDbEntity
8
0àÍî ê}-1
6
CONTINUOUS
62
  7
100
AcDbVertex
100
AcDb2dVertex
10
177.690000000000
20
239.810000000000
30
0.0
0
VERTEX
5
60e
100
AcDbEntity
8
0àÍî ê}-1
6
CONTINUOUS
62
  7
100
AcDbVertex
100
AcDb2dVertex
10
178.100000000000
20
239.570000000000
30
0.0
0
VERTEX
5
60f
100
AcDbEntity
8
0àÍî ê}-1
6
CONTINUOUS
62
  7
100
AcDbVertex
100
AcDb2dVertex
10
178.530000000000
20
239.390000000000
30
0.0
0
VERTEX
5
610
100
AcDbEntity
8
0àÍî ê}-1
6
CONTINUOUS
62
  7
100
AcDbVertex
100
AcDb2dVertex
10
178.990000000000
20
239.280000000000
30
0.0
0
VERTEX
5
611
100
AcDbEntity
8
0àÍî ê}-1
6
CONTINUOUS
62
  7
100
AcDbVertex
100
AcDb2dVertex
10
179.460000000000
20
239.240000000000
30
0.0
0
SEQEND
5
612
100
AcDbEntity
8
0àÍî ê}-1
0
POLYLINE
5
613
100
AcDbEntity
8
0àÍî ê}-1
6
CONTINUOUS
62
  7
100
AcDb2dPolyline
66
1
10
0.0
20
0.0
30
0.0
70
0
0
VERTEX
5
614
100
AcDbEntity
8
0àÍî ê}-1
6
CONTINUOUS
62
  7
100
AcDbVertex
100
AcDb2dVertex
10
179.460000000000
20
287.210000000000
30
0.0
0
VERTEX
5
615
100
AcDbEntity
8
0àÍî ê}-1
6
CONTINUOUS
62
  7
100
AcDbVertex
100
AcDb2dVertex
10
178.990000000000
20
287.170000000000
30
0.0
0
VERTEX
5
616
100
AcDbEntity
8
0àÍî ê}-1
6
CONTINUOUS
62
  7
100
AcDbVertex
100
AcDb2dVertex
10
178.530000000000
20
287.060000000000
30
0.0
0
VERTEX
5
617
100
AcDbEntity
8
0àÍî ê}-1
6
CONTINUOUS
62
  7
100
AcDbVertex
100
AcDb2dVertex
10
178.100000000000
20
286.880000000000
30
0.0
0
VERTEX
5
618
100
AcDbEntity
8
0àÍî ê}-1
6
CONTINUOUS
62
  7
100
AcDbVertex
100
AcDb2dVertex
10
177.690000000000
20
286.630000000000
30
0.0
0
VERTEX
5
619
100
AcDbEntity
8
0àÍî ê}-1
6
CONTINUOUS
62
  7
100
AcDbVertex
100
AcDb2dVertex
10
177.340000000000
20
286.330000000000
30
0.0
0
VERTEX
5
61a
100
AcDbEntity
8
0àÍî ê}-1
6
CONTINUOUS
62
  7
100
AcDbVertex
100
AcDb2dVertex
10
177.030000000000
20
285.970000000000
30
0.0
0
VERTEX
5
61b
100
AcDbEntity
8
0àÍî ê}-1
6
CONTINUOUS
62
  7
100
AcDbVertex
100
AcDb2dVertex
10
176.790000000000
20
285.570000000000
30
0.0
0
VERTEX
5
61c
100
AcDbEntity
8
0àÍî ê}-1
6
CONTINUOUS
62
  7
100
AcDbVertex
100
AcDb2dVertex
10
176.610000000000
20
285.140000000000
30
0.0
0
VERTEX
5
61d
100
AcDbEntity
8
0àÍî ê}-1
6
CONTINUOUS
62
  7
100
AcDbVertex
100
AcDb2dVertex
10
176.500000000000
20
284.680000000000
30
0.0
0
VERTEX
5
61e
100
AcDbEntity
8
0àÍî ê}-1
6
CONTINUOUS
62
  7
100
AcDbVertex
100
AcDb2dVertex
10
176.460000000000
20
284.210000000000
30
0.0
0
SEQEND
5
61f
100
AcDbEntity
8
0àÍî ê}-1
0
POLYLINE
5
620
100
AcDbEntity
8
0àÍî ê}-1
6
CONTINUOUS
62
  7
100
AcDb2dPolyline
66
1
10
0.0
20
0.0
30
0.0
70
0
0
VERTEX
5
621
100
AcDbEntity
8
0àÍî ê}-1
6
CONTINUOUS
62
  7
100
AcDbVertex
100
AcDb2dVertex
10
224.420000000000
20
284.210000000000
30
0.0
0
VERTEX
5
622
100
AcDbEntity
8
0àÍî ê}-1
6
CONTINUOUS
62
  7
100
AcDbVertex
100
AcDb2dVertex
10
224.390000000000
20
284.680000000000
30
0.0
0
VERTEX
5
623
100
AcDbEntity
8
0àÍî ê}-1
6
CONTINUOUS
62
  7
100
AcDbVertex
100
AcDb2dVertex
10
224.280000000000
20
285.140000000000
30
0.0
0
VERTEX
5
624
100
AcDbEntity
8
0àÍî ê}-1
6
CONTINUOUS
62
  7
100
AcDbVertex
100
AcDb2dVertex
10
224.100000000000
20
285.570000000000
30
0.0
0
VERTEX
5
625
100
AcDbEntity
8
0àÍî ê}-1
6
CONTINUOUS
62
  7
100
AcDbVertex
100
AcDb2dVertex
10
223.850000000000
20
285.970000000000
30
0.0
0
VERTEX
5
626
100
AcDbEntity
8
0àÍî ê}-1
6
CONTINUOUS
62
  7
100
AcDbVertex
100
AcDb2dVertex
10
223.550000000000
20
286.330000000000
30
0.0
0
VERTEX
5
627
100
AcDbEntity
8
0àÍî ê}-1
6
CONTINUOUS
62
  7
100
AcDbVertex
100
AcDb2dVertex
10
223.190000000000
20
286.630000000000
30
0.0
0
VERTEX
5
628
100
AcDbEntity
8
0àÍî ê}-1
6
CONTINUOUS
62
  7
100
AcDbVertex
100
AcDb2dVertex
10
222.790000000000
20
286.880000000000
30
0.0
0
VERTEX
5
629
100
AcDbEntity
8
0àÍî ê}-1
6
CONTINUOUS
62
  7
100
AcDbVertex
100
AcDb2dVertex
10
222.350000000000
20
287.060000000000
30
0.0
0
VERTEX
5
62a
100
AcDbEntity
8
0àÍî ê}-1
6
CONTINUOUS
62
  7
100
AcDbVertex
100
AcDb2dVertex
10
221.900000000000
20
287.170000000000
30
0.0
0
VERTEX
5
62b
100
AcDbEntity
8
0àÍî ê}-1
6
CONTINUOUS
62
  7
100
AcDbVertex
100
AcDb2dVertex
10
221.430000000000
20
287.210000000000
30
0.0
0
SEQEND
5
62c
100
AcDbEntity
8
0àÍî ê}-1
0
POLYLINE
5
62d
100
AcDbEntity
8
0àÍî ê}-1
6
CONTINUOUS
62
  7
100
AcDb2dPolyline
66
1
10
0.0
20
0.0
30
0.0
70
0
0
VERTEX
5
62e
100
AcDbEntity
8
0àÍî ê}-1
6
CONTINUOUS
62
  7
100
AcDbVertex
100
AcDb2dVertex
10
221.430000000000
20
239.240000000000
30
0.0
0
VERTEX
5
62f
100
AcDbEntity
8
0àÍî ê}-1
6
CONTINUOUS
62
  7
100
AcDbVertex
100
AcDb2dVertex
10
221.900000000000
20
239.280000000000
30
0.0
0
VERTEX
5
630
100
AcDbEntity
8
0àÍî ê}-1
6
CONTINUOUS
62
  7
100
AcDbVertex
100
AcDb2dVertex
10
222.350000000000
20
239.390000000000
30
0.0
0
VERTEX
5
631
100
AcDbEntity
8
0àÍî ê}-1
6
CONTINUOUS
62
  7
100
AcDbVertex
100
AcDb2dVertex
10
222.790000000000
20
239.570000000000
30
0.0
0
VERTEX
5
632
100
AcDbEntity
8
0àÍî ê}-1
6
CONTINUOUS
62
  7
100
AcDbVertex
100
AcDb2dVertex
10
223.190000000000
20
239.810000000000
30
0.0
0
VERTEX
5
633
100
AcDbEntity
8
0àÍî ê}-1
6
CONTINUOUS
62
  7
100
AcDbVertex
100
AcDb2dVertex
10
223.550000000000
20
240.120000000000
30
0.0
0
VERTEX
5
634
100
AcDbEntity
8
0àÍî ê}-1
6
CONTINUOUS
62
  7
100
AcDbVertex
100
AcDb2dVertex
10
223.850000000000
20
240.480000000000
30
0.0
0
VERTEX
5
635
100
AcDbEntity
8
0àÍî ê}-1
6
CONTINUOUS
62
  7
100
AcDbVertex
100
AcDb2dVertex
10
224.100000000000
20
240.880000000000
30
0.0
0
VERTEX
5
636
100
AcDbEntity
8
0àÍî ê}-1
6
CONTINUOUS
62
  7
100
AcDbVertex
100
AcDb2dVertex
10
224.280000000000
20
241.310000000000
30
0.0
0
VERTEX
5
637
100
AcDbEntity
8
0àÍî ê}-1
6
CONTINUOUS
62
  7
100
AcDbVertex
100
AcDb2dVertex
10
224.390000000000
20
241.770000000000
30
0.0
0
VERTEX
5
638
100
AcDbEntity
8
0àÍî ê}-1
6
CONTINUOUS
62
  7
100
AcDbVertex
100
AcDb2dVertex
10
224.420000000000
20
242.240000000000
30
0.0
0
SEQEND
5
639
100
AcDbEntity
8
0àÍî ê}-1
0
POLYLINE
5
63a
100
AcDbEntity
8
0àÍî ê}-1
6
CONTINUOUS
62
  7
100
AcDb2dPolyline
66
1
10
0.0
20
0.0
30
0.0
70
0
0
VERTEX
5
63b
100
AcDbEntity
8
0àÍî ê}-1
6
CONTINUOUS
62
  7
100
AcDbVertex
100
AcDb2dVertex
10
195.770000000000
20
281.410000000000
30
0.0
0
VERTEX
5
63c
100
AcDbEntity
8
0àÍî ê}-1
6
CONTINUOUS
62
  7
100
AcDbVertex
100
AcDb2dVertex
10
195.760000000000
20
281.430000000000
30
0.0
0
VERTEX
5
63d
100
AcDbEntity
8
0àÍî ê}-1
6
CONTINUOUS
62
  7
100
AcDbVertex
100
AcDb2dVertex
10
195.710000000000
20
281.470000000000
30
0.0
0
VERTEX
5
63e
100
AcDbEntity
8
0àÍî ê}-1
6
CONTINUOUS
62
  7
100
AcDbVertex
100
AcDb2dVertex
10
195.560000000000
20
281.580000000000
30
0.0
0
SEQEND
5
63f
100
AcDbEntity
8
0àÍî ê}-1
0
POLYLINE
5
640
100
AcDbEntity
8
0àÍî ê}-1
6
CONTINUOUS
62
  7
100
AcDb2dPolyline
66
1
10
0.0
20
0.0
30
0.0
70
0
0
VERTEX
5
641
100
AcDbEntity
8
0àÍî ê}-1
6
CONTINUOUS
62
  7
100
AcDbVertex
100
AcDb2dVertex
10
196.470000000000
20
281.550000000000
30
0.0
0
VERTEX
5
642
100
AcDbEntity
8
0àÍî ê}-1
6
CONTINUOUS
62
  7
100
AcDbVertex
100
AcDb2dVertex
10
196.230000000000
20
281.500000000000
30
0.0
0
VERTEX
5
643
100
AcDbEntity
8
0àÍî ê}-1
6
CONTINUOUS
62
  7
100
AcDbVertex
100
AcDb2dVertex
10
196.030000000000
20
281.460000000000
30
0.0
0
VERTEX
5
644
100
AcDbEntity
8
0àÍî ê}-1
6
CONTINUOUS
62
  7
100
AcDbVertex
100
AcDb2dVertex
10
195.870000000000
20
281.430000000000
30
0.0
0
VERTEX
5
645
100
AcDbEntity
8
0àÍî ê}-1
6
CONTINUOUS
62
  7
100
AcDbVertex
100
AcDb2dVertex
10
195.790000000000
20
281.410000000000
30
0.0
0
VERTEX
5
646
100
AcDbEntity
8
0àÍî ê}-1
6
CONTINUOUS
62
  7
100
AcDbVertex
100
AcDb2dVertex
10
195.770000000000
20
281.410000000000
30
0.0
0
SEQEND
5
647
100
AcDbEntity
8
0àÍî ê}-1
0
POLYLINE
5
648
100
AcDbEntity
8
0àÍî ê}-1
6
CONTINUOUS
62
  7
100
AcDb2dPolyline
66
1
10
0.0
20
0.0
30
0.0
70
0
0
VERTEX
5
649
100
AcDbEntity
8
0àÍî ê}-1
6
CONTINUOUS
62
  7
100
AcDbVertex
100
AcDb2dVertex
10
205.110000000000
20
281.410000000000
30
0.0
0
VERTEX
5
64a
100
AcDbEntity
8
0àÍî ê}-1
6
CONTINUOUS
62
  7
100
AcDbVertex
100
AcDb2dVertex
10
205.060000000000
20
281.420000000000
30
0.0
0
VERTEX
5
64b
100
AcDbEntity
8
0àÍî ê}-1
6
CONTINUOUS
62
  7
100
AcDbVertex
100
AcDb2dVertex
10
204.950000000000
20
281.440000000000
30
0.0
0
VERTEX
5
64c
100
AcDbEntity
8
0àÍî ê}-1
6
CONTINUOUS
62
  7
100
AcDbVertex
100
AcDb2dVertex
10
204.780000000000
20
281.480000000000
30
0.0
0
VERTEX
5
64d
100
AcDbEntity
8
0àÍî ê}-1
6
CONTINUOUS
62
  7
100
AcDbVertex
100
AcDb2dVertex
10
204.570000000000
20
281.520000000000
30
0.0
0
VERTEX
5
64e
100
AcDbEntity
8
0àÍî ê}-1
6
CONTINUOUS
62
  7
100
AcDbVertex
100
AcDb2dVertex
10
204.420000000000
20
281.550000000000
30
0.0
0
SEQEND
5
64f
100
AcDbEntity
8
0àÍî ê}-1
0
POLYLINE
5
650
100
AcDbEntity
8
0àÍî ê}-1
6
CONTINUOUS
62
  7
100
AcDb2dPolyline
66
1
10
0.0
20
0.0
30
0.0
70
0
0
VERTEX
5
651
100
AcDbEntity
8
0àÍî ê}-1
6
CONTINUOUS
62
  7
100
AcDbVertex
100
AcDb2dVertex
10
205.320000000000
20
281.580000000000
30
0.0
0
VERTEX
5
652
100
AcDbEntity
8
0àÍî ê}-1
6
CONTINUOUS
62
  7
100
AcDbVertex
100
AcDb2dVertex
10
205.310000000000
20
281.570000000000
30
0.0
0
VERTEX
5
653
100
AcDbEntity
8
0àÍî ê}-1
6
CONTINUOUS
62
  7
100
AcDbVertex
100
AcDb2dVertex
10
205.250000000000
20
281.530000000000
30
0.0
0
VERTEX
5
654
100
AcDbEntity
8
0àÍî ê}-1
6
CONTINUOUS
62
  7
100
AcDbVertex
100
AcDb2dVertex
10
205.110000000000
20
281.410000000000
30
0.0
0
SEQEND
5
655
100
AcDbEntity
8
0àÍî ê}-1
0
POLYLINE
5
656
100
AcDbEntity
8
0àÍî ê}-1
6
CONTINUOUS
62
  7
100
AcDb2dPolyline
66
1
10
0.0
20
0.0
30
0.0
70
0
0
VERTEX
5
657
100
AcDbEntity
8
0àÍî ê}-1
6
CONTINUOUS
62
  7
100
AcDbVertex
100
AcDb2dVertex
10
195.920000000000
20
281.610000000000
30
0.0
0
VERTEX
5
658
100
AcDbEntity
8
0àÍî ê}-1
6
CONTINUOUS
62
  7
100
AcDbVertex
100
AcDb2dVertex
10
195.930000000000
20
281.610000000000
30
0.0
0
VERTEX
5
659
100
AcDbEntity
8
0àÍî ê}-1
6
CONTINUOUS
62
  7
100
AcDbVertex
100
AcDb2dVertex
10
195.990000000000
20
281.620000000000
30
0.0
0
VERTEX
5
65a
100
AcDbEntity
8
0àÍî ê}-1
6
CONTINUOUS
62
  7
100
AcDbVertex
100
AcDb2dVertex
10
196.110000000000
20
281.650000000000
30
0.0
0
VERTEX
5
65b
100
AcDbEntity
8
0àÍî ê}-1
6
CONTINUOUS
62
  7
100
AcDbVertex
100
AcDb2dVertex
10
196.260000000000
20
281.700000000000
30
0.0
0
VERTEX
5
65c
100
AcDbEntity
8
0àÍî ê}-1
6
CONTINUOUS
62
  7
100
AcDbVertex
100
AcDb2dVertex
10
196.420000000000
20
281.750000000000
30
0.0
0
SEQEND
5
65d
100
AcDbEntity
8
0àÍî ê}-1
0
POLYLINE
5
65e
100
AcDbEntity
8
0àÍî ê}-1
6
CONTINUOUS
62
  7
100
AcDb2dPolyline
66
1
10
0.0
20
0.0
30
0.0
70
0
0
VERTEX
5
65f
100
AcDbEntity
8
0àÍî ê}-1
6
CONTINUOUS
62
  7
100
AcDbVertex
100
AcDb2dVertex
10
204.460000000000
20
281.750000000000
30
0.0
0
VERTEX
5
660
100
AcDbEntity
8
0àÍî ê}-1
6
CONTINUOUS
62
  7
100
AcDbVertex
100
AcDb2dVertex
10
204.570000000000
20
281.720000000000
30
0.0
0
VERTEX
5
661
100
AcDbEntity
8
0àÍî ê}-1
6
CONTINUOUS
62
  7
100
AcDbVertex
100
AcDb2dVertex
10
204.720000000000
20
281.670000000000
30
0.0
0
VERTEX
5
662
100
AcDbEntity
8
0àÍî ê}-1
6
CONTINUOUS
62
  7
100
AcDbVertex
100
AcDb2dVertex
10
204.840000000000
20
281.630000000000
30
0.0
0
VERTEX
5
663
100
AcDbEntity
8
0àÍî ê}-1
6
CONTINUOUS
62
  7
100
AcDbVertex
100
AcDb2dVertex
10
204.930000000000
20
281.610000000000
30
0.0
0
VERTEX
5
664
100
AcDbEntity
8
0àÍî ê}-1
6
CONTINUOUS
62
  7
100
AcDbVertex
100
AcDb2dVertex
10
204.960000000000
20
281.610000000000
30
0.0
0
VERTEX
5
665
100
AcDbEntity
8
0àÍî ê}-1
6
CONTINUOUS
62
  7
100
AcDbVertex
100
AcDb2dVertex
10
204.960000000000
20
281.580000000000
30
0.0
0
VERTEX
5
666
100
AcDbEntity
8
0àÍî ê}-1
6
CONTINUOUS
62
  7
100
AcDbVertex
100
AcDb2dVertex
10
204.970000000000
20
281.540000000000
30
0.0
0
VERTEX
5
667
100
AcDbEntity
8
0àÍî ê}-1
6
CONTINUOUS
62
  7
100
AcDbVertex
100
AcDb2dVertex
10
204.980000000000
20
281.510000000000
30
0.0
0
VERTEX
5
668
100
AcDbEntity
8
0àÍî ê}-1
6
CONTINUOUS
62
  7
100
AcDbVertex
100
AcDb2dVertex
10
205.000000000000
20
281.490000000000
30
0.0
0
VERTEX
5
669
100
AcDbEntity
8
0àÍî ê}-1
6
CONTINUOUS
62
  7
100
AcDbVertex
100
AcDb2dVertex
10
205.020000000000
20
281.460000000000
30
0.0
0
VERTEX
5
66a
100
AcDbEntity
8
0àÍî ê}-1
6
CONTINUOUS
62
  7
100
AcDbVertex
100
AcDb2dVertex
10
205.050000000000
20
281.440000000000
30
0.0
0
VERTEX
5
66b
100
AcDbEntity
8
0àÍî ê}-1
6
CONTINUOUS
62
  7
100
AcDbVertex
100
AcDb2dVertex
10
205.080000000000
20
281.430000000000
30
0.0
0
VERTEX
5
66c
100
AcDbEntity
8
0àÍî ê}-1
6
CONTINUOUS
62
  7
100
AcDbVertex
100
AcDb2dVertex
10
205.110000000000
20
281.410000000000
30
0.0
0
SEQEND
5
66d
100
AcDbEntity
8
0àÍî ê}-1
0
POLYLINE
5
66e
100
AcDbEntity
8
0àÍî ê}-1
6
CONTINUOUS
62
  7
100
AcDb2dPolyline
66
1
10
0.0
20
0.0
30
0.0
70
0
0
VERTEX
5
66f
100
AcDbEntity
8
0àÍî ê}-1
6
CONTINUOUS
62
  7
100
AcDbVertex
100
AcDb2dVertex
10
196.920000000000
20
286.240000000000
30
0.0
0
VERTEX
5
670
100
AcDbEntity
8
0àÍî ê}-1
6
CONTINUOUS
62
  7
100
AcDbVertex
100
AcDb2dVertex
10
196.830000000000
20
286.230000000000
30
0.0
0
VERTEX
5
671
100
AcDbEntity
8
0àÍî ê}-1
6
CONTINUOUS
62
  7
100
AcDbVertex
100
AcDb2dVertex
10
196.730000000000
20
286.200000000000
30
0.0
0
VERTEX
5
672
100
AcDbEntity
8
0àÍî ê}-1
6
CONTINUOUS
62
  7
100
AcDbVertex
100
AcDb2dVertex
10
196.650000000000
20
286.160000000000
30
0.0
0
VERTEX
5
673
100
AcDbEntity
8
0àÍî ê}-1
6
CONTINUOUS
62
  7
100
AcDbVertex
100
AcDb2dVertex
10
196.570000000000
20
286.090000000000
30
0.0
0
VERTEX
5
674
100
AcDbEntity
8
0àÍî ê}-1
6
CONTINUOUS
62
  7
100
AcDbVertex
100
AcDb2dVertex
10
196.510000000000
20
286.020000000000
30
0.0
0
VERTEX
5
675
100
AcDbEntity
8
0àÍî ê}-1
6
CONTINUOUS
62
  7
100
AcDbVertex
100
AcDb2dVertex
10
196.460000000000
20
285.930000000000
30
0.0
0
VERTEX
5
676
100
AcDbEntity
8
0àÍî ê}-1
6
CONTINUOUS
62
  7
100
AcDbVertex
100
AcDb2dVertex
10
196.430000000000
20
285.840000000000
30
0.0
0
VERTEX
5
677
100
AcDbEntity
8
0àÍî ê}-1
6
CONTINUOUS
62
  7
100
AcDbVertex
100
AcDb2dVertex
10
196.420000000000
20
285.740000000000
30
0.0
0
SEQEND
5
678
100
AcDbEntity
8
0àÍî ê}-1
0
POLYLINE
5
679
100
AcDbEntity
8
0àÍî ê}-1
6
CONTINUOUS
62
  7
100
AcDb2dPolyline
66
1
10
0.0
20
0.0
30
0.0
70
0
0
VERTEX
5
67a
100
AcDbEntity
8
0àÍî ê}-1
6
CONTINUOUS
62
  7
100
AcDbVertex
100
AcDb2dVertex
10
204.460000000000
20
285.740000000000
30
0.0
0
VERTEX
5
67b
100
AcDbEntity
8
0àÍî ê}-1
6
CONTINUOUS
62
  7
100
AcDbVertex
100
AcDb2dVertex
10
204.450000000000
20
285.840000000000
30
0.0
0
VERTEX
5
67c
100
AcDbEntity
8
0àÍî ê}-1
6
CONTINUOUS
62
  7
100
AcDbVertex
100
AcDb2dVertex
10
204.420000000000
20
285.930000000000
30
0.0
0
VERTEX
5
67d
100
AcDbEntity
8
0àÍî ê}-1
6
CONTINUOUS
62
  7
100
AcDbVertex
100
AcDb2dVertex
10
204.370000000000
20
286.020000000000
30
0.0
0
VERTEX
5
67e
100
AcDbEntity
8
0àÍî ê}-1
6
CONTINUOUS
62
  7
100
AcDbVertex
100
AcDb2dVertex
10
204.310000000000
20
286.090000000000
30
0.0
0
VERTEX
5
67f
100
AcDbEntity
8
0àÍî ê}-1
6
CONTINUOUS
62
  7
100
AcDbVertex
100
AcDb2dVertex
10
204.240000000000
20
286.160000000000
30
0.0
0
VERTEX
5
680
100
AcDbEntity
8
0àÍî ê}-1
6
CONTINUOUS
62
  7
100
AcDbVertex
100
AcDb2dVertex
10
204.150000000000
20
286.200000000000
30
0.0
0
VERTEX
5
681
100
AcDbEntity
8
0àÍî ê}-1
6
CONTINUOUS
62
  7
100
AcDbVertex
100
AcDb2dVertex
10
204.060000000000
20
286.230000000000
30
0.0
0
VERTEX
5
682
100
AcDbEntity
8
0àÍî ê}-1
6
CONTINUOUS
62
  7
100
AcDbVertex
100
AcDb2dVertex
10
203.960000000000
20
286.240000000000
30
0.0
0
SEQEND
5
683
100
AcDbEntity
8
0àÍî ê}-1
0
POLYLINE
5
684
100
AcDbEntity
8
0àÍî ê}-1
6
CONTINUOUS
62
  7
100
AcDb2dPolyline
66
1
10
0.0
20
0.0
30
0.0
70
0
0
VERTEX
5
685
100
AcDbEntity
8
0àÍî ê}-1
6
CONTINUOUS
62
  7
100
AcDbVertex
100
AcDb2dVertex
10
205.170000000000
20
281.770000000000
30
0.0
0
VERTEX
5
686
100
AcDbEntity
8
0àÍî ê}-1
6
CONTINUOUS
62
  7
100
AcDbVertex
100
AcDb2dVertex
10
205.170000000000
20
281.740000000000
30
0.0
0
VERTEX
5
687
100
AcDbEntity
8
0àÍî ê}-1
6
CONTINUOUS
62
  7
100
AcDbVertex
100
AcDb2dVertex
10
205.180000000000
20
281.710000000000
30
0.0
0
VERTEX
5
688
100
AcDbEntity
8
0àÍî ê}-1
6
CONTINUOUS
62
  7
100
AcDbVertex
100
AcDb2dVertex
10
205.200000000000
20
281.680000000000
30
0.0
0
VERTEX
5
689
100
AcDbEntity
8
0àÍî ê}-1
6
CONTINUOUS
62
  7
100
AcDbVertex
100
AcDb2dVertex
10
205.210000000000
20
281.650000000000
30
0.0
0
VERTEX
5
68a
100
AcDbEntity
8
0àÍî ê}-1
6
CONTINUOUS
62
  7
100
AcDbVertex
100
AcDb2dVertex
10
205.240000000000
20
281.630000000000
30
0.0
0
VERTEX
5
68b
100
AcDbEntity
8
0àÍî ê}-1
6
CONTINUOUS
62
  7
100
AcDbVertex
100
AcDb2dVertex
10
205.260000000000
20
281.610000000000
30
0.0
0
VERTEX
5
68c
100
AcDbEntity
8
0àÍî ê}-1
6
CONTINUOUS
62
  7
100
AcDbVertex
100
AcDb2dVertex
10
205.290000000000
20
281.590000000000
30
0.0
0
VERTEX
5
68d
100
AcDbEntity
8
0àÍî ê}-1
6
CONTINUOUS
62
  7
100
AcDbVertex
100
AcDb2dVertex
10
205.320000000000
20
281.580000000000
30
0.0
0
SEQEND
5
68e
100
AcDbEntity
8
0àÍî ê}-1
0
POLYLINE
5
68f
100
AcDbEntity
8
0àÍî ê}-1
6
CONTINUOUS
62
  7
100
AcDb2dPolyline
66
1
10
0.0
20
0.0
30
0.0
70
0
0
VERTEX
5
690
100
AcDbEntity
8
0àÍî ê}-1
6
CONTINUOUS
62
  7
100
AcDbVertex
100
AcDb2dVertex
10
195.690000000000
20
283.390000000000
30
0.0
0
VERTEX
5
691
100
AcDbEntity
8
0àÍî ê}-1
6
CONTINUOUS
62
  7
100
AcDbVertex
100
AcDb2dVertex
10
195.700000000000
20
283.350000000000
30
0.0
0
VERTEX
5
692
100
AcDbEntity
8
0àÍî ê}-1
6
CONTINUOUS
62
  7
100
AcDbVertex
100
AcDb2dVertex
10
195.700000000000
20
283.230000000000
30
0.0
0
VERTEX
5
693
100
AcDbEntity
8
0àÍî ê}-1
6
CONTINUOUS
62
  7
100
AcDbVertex
100
AcDb2dVertex
10
195.710000000000
20
283.060000000000
30
0.0
0
VERTEX
5
694
100
AcDbEntity
8
0àÍî ê}-1
6
CONTINUOUS
62
  7
100
AcDbVertex
100
AcDb2dVertex
10
195.710000000000
20
282.840000000000
30
0.0
0
VERTEX
5
695
100
AcDbEntity
8
0àÍî ê}-1
6
CONTINUOUS
62
  7
100
AcDbVertex
100
AcDb2dVertex
10
195.710000000000
20
282.680000000000
30
0.0
0
SEQEND
5
696
100
AcDbEntity
8
0àÍî ê}-1
0
POLYLINE
5
697
100
AcDbEntity
8
0àÍî ê}-1
6
CONTINUOUS
62
  7
100
AcDb2dPolyline
66
1
10
0.0
20
0.0
30
0.0
70
0
0
VERTEX
5
698
100
AcDbEntity
8
0àÍî ê}-1
6
CONTINUOUS
62
  7
100
AcDbVertex
100
AcDb2dVertex
10
205.170000000000
20
282.680000000000
30
0.0
0
VERTEX
5
699
100
AcDbEntity
8
0àÍî ê}-1
6
CONTINUOUS
62
  7
100
AcDbVertex
100
AcDb2dVertex
10
205.170000000000
20
282.920000000000
30
0.0
0
VERTEX
5
69a
100
AcDbEntity
8
0àÍî ê}-1
6
CONTINUOUS
62
  7
100
AcDbVertex
100
AcDb2dVertex
10
205.180000000000
20
283.140000000000
30
0.0
0
VERTEX
5
69b
100
AcDbEntity
8
0àÍî ê}-1
6
CONTINUOUS
62
  7
100
AcDbVertex
100
AcDb2dVertex
10
205.180000000000
20
283.300000000000
30
0.0
0
VERTEX
5
69c
100
AcDbEntity
8
0àÍî ê}-1
6
CONTINUOUS
62
  7
100
AcDbVertex
100
AcDb2dVertex
10
205.190000000000
20
283.380000000000
30
0.0
0
VERTEX
5
69d
100
AcDbEntity
8
0àÍî ê}-1
6
CONTINUOUS
62
  7
100
AcDbVertex
100
AcDb2dVertex
10
205.200000000000
20
283.390000000000
30
0.0
0
VERTEX
5
69e
100
AcDbEntity
8
0àÍî ê}-1
6
CONTINUOUS
62
  7
100
AcDbVertex
100
AcDb2dVertex
10
205.200000000000
20
283.360000000000
30
0.0
0
VERTEX
5
69f
100
AcDbEntity
8
0àÍî ê}-1
6
CONTINUOUS
62
  7
100
AcDbVertex
100
AcDb2dVertex
10
205.210000000000
20
283.330000000000
30
0.0
0
VERTEX
5
6a0
100
AcDbEntity
8
0àÍî ê}-1
6
CONTINUOUS
62
  7
100
AcDbVertex
100
AcDb2dVertex
10
205.220000000000
20
283.300000000000
30
0.0
0
VERTEX
5
6a1
100
AcDbEntity
8
0àÍî ê}-1
6
CONTINUOUS
62
  7
100
AcDbVertex
100
AcDb2dVertex
10
205.240000000000
20
283.270000000000
30
0.0
0
VERTEX
5
6a2
100
AcDbEntity
8
0àÍî ê}-1
6
CONTINUOUS
62
  7
100
AcDbVertex
100
AcDb2dVertex
10
205.260000000000
20
283.250000000000
30
0.0
0
VERTEX
5
6a3
100
AcDbEntity
8
0àÍî ê}-1
6
CONTINUOUS
62
  7
100
AcDbVertex
100
AcDb2dVertex
10
205.290000000000
20
283.230000000000
30
0.0
0
VERTEX
5
6a4
100
AcDbEntity
8
0àÍî ê}-1
6
CONTINUOUS
62
  7
100
AcDbVertex
100
AcDb2dVertex
10
205.320000000000
20
283.210000000000
30
0.0
0
VERTEX
5
6a5
100
AcDbEntity
8
0àÍî ê}-1
6
CONTINUOUS
62
  7
100
AcDbVertex
100
AcDb2dVertex
10
205.350000000000
20
283.200000000000
30
0.0
0
VERTEX
5
6a6
100
AcDbEntity
8
0àÍî ê}-1
6
CONTINUOUS
62
  7
100
AcDbVertex
100
AcDb2dVertex
10
205.340000000000
20
283.190000000000
30
0.0
0
VERTEX
5
6a7
100
AcDbEntity
8
0àÍî ê}-1
6
CONTINUOUS
62
  7
100
AcDbVertex
100
AcDb2dVertex
10
205.340000000000
20
283.130000000000
30
0.0
0
VERTEX
5
6a8
100
AcDbEntity
8
0àÍî ê}-1
6
CONTINUOUS
62
  7
100
AcDbVertex
100
AcDb2dVertex
10
205.350000000000
20
283.010000000000
30
0.0
0
VERTEX
5
6a9
100
AcDbEntity
8
0àÍî ê}-1
6
CONTINUOUS
62
  7
100
AcDbVertex
100
AcDb2dVertex
10
205.360000000000
20
282.860000000000
30
0.0
0
VERTEX
5
6aa
100
AcDbEntity
8
0àÍî ê}-1
6
CONTINUOUS
62
  7
100
AcDbVertex
100
AcDb2dVertex
10
205.370000000000
20
282.680000000000
30
0.0
0
SEQEND
5
6ab
100
AcDbEntity
8
0àÍî ê}-1
0
POLYLINE
5
6ac
100
AcDbEntity
8
0àÍî ê}-1
6
CONTINUOUS
62
  7
100
AcDb2dPolyline
66
1
10
0.0
20
0.0
30
0.0
70
0
0
VERTEX
5
6ad
100
AcDbEntity
8
0àÍî ê}-1
6
CONTINUOUS
62
  7
100
AcDbVertex
100
AcDb2dVertex
10
195.510000000000
20
282.680000000000
30
0.0
0
VERTEX
5
6ae
100
AcDbEntity
8
0àÍî ê}-1
6
CONTINUOUS
62
  7
100
AcDbVertex
100
AcDb2dVertex
10
195.520000000000
20
282.790000000000
30
0.0
0
VERTEX
5
6af
100
AcDbEntity
8
0àÍî ê}-1
6
CONTINUOUS
62
  7
100
AcDbVertex
100
AcDb2dVertex
10
195.530000000000
20
282.960000000000
30
0.0
0
VERTEX
5
6b0
100
AcDbEntity
8
0àÍî ê}-1
6
CONTINUOUS
62
  7
100
AcDbVertex
100
AcDb2dVertex
10
195.540000000000
20
283.080000000000
30
0.0
0
VERTEX
5
6b1
100
AcDbEntity
8
0àÍî ê}-1
6
CONTINUOUS
62
  7
100
AcDbVertex
100
AcDb2dVertex
10
195.540000000000
20
283.170000000000
30
0.0
0
VERTEX
5
6b2
100
AcDbEntity
8
0àÍî ê}-1
6
CONTINUOUS
62
  7
100
AcDbVertex
100
AcDb2dVertex
10
195.540000000000
20
283.200000000000
30
0.0
0
SEQEND
5
6b3
100
AcDbEntity
8
0àÍî ê}-1
0
POLYLINE
5
6b4
100
AcDbEntity
8
0àÍî ê}-1
6
CONTINUOUS
62
  7
100
AcDb2dPolyline
66
1
10
0.0
20
0.0
30
0.0
70
0
0
VERTEX
5
6b5
100
AcDbEntity
8
0àÍî ê}-1
6
CONTINUOUS
62
  7
100
AcDbVertex
100
AcDb2dVertex
10
195.690000000000
20
283.390000000000
30
0.0
0
VERTEX
5
6b6
100
AcDbEntity
8
0àÍî ê}-1
6
CONTINUOUS
62
  7
100
AcDbVertex
100
AcDb2dVertex
10
195.680000000000
20
283.360000000000
30
0.0
0
VERTEX
5
6b7
100
AcDbEntity
8
0àÍî ê}-1
6
CONTINUOUS
62
  7
100
AcDbVertex
100
AcDb2dVertex
10
195.680000000000
20
283.330000000000
30
0.0
0
VERTEX
5
6b8
100
AcDbEntity
8
0àÍî ê}-1
6
CONTINUOUS
62
  7
100
AcDbVertex
100
AcDb2dVertex
10
195.660000000000
20
283.300000000000
30
0.0
0
VERTEX
5
6b9
100
AcDbEntity
8
0àÍî ê}-1
6
CONTINUOUS
62
  7
100
AcDbVertex
100
AcDb2dVertex
10
195.640000000000
20
283.270000000000
30
0.0
0
VERTEX
5
6ba
100
AcDbEntity
8
0àÍî ê}-1
6
CONTINUOUS
62
  7
100
AcDbVertex
100
AcDb2dVertex
10
195.620000000000
20
283.250000000000
30
0.0
0
VERTEX
5
6bb
100
AcDbEntity
8
0àÍî ê}-1
6
CONTINUOUS
62
  7
100
AcDbVertex
100
AcDb2dVertex
10
195.600000000000
20
283.230000000000
30
0.0
0
VERTEX
5
6bc
100
AcDbEntity
8
0àÍî ê}-1
6
CONTINUOUS
62
  7
100
AcDbVertex
100
AcDb2dVertex
10
195.570000000000
20
283.210000000000
30
0.0
0
VERTEX
5
6bd
100
AcDbEntity
8
0àÍî ê}-1
6
CONTINUOUS
62
  7
100
AcDbVertex
100
AcDb2dVertex
10
195.540000000000
20
283.200000000000
30
0.0
0
SEQEND
5
6be
100
AcDbEntity
8
0àÍî ê}-1
0
POLYLINE
5
6bf
100
AcDbEntity
8
0àÍî ê}-1
6
CONTINUOUS
62
  7
100
AcDb2dPolyline
66
1
10
0.0
20
0.0
30
0.0
70
0
0
VERTEX
5
6c0
100
AcDbEntity
8
0àÍî ê}-1
6
CONTINUOUS
62
  7
100
AcDbVertex
100
AcDb2dVertex
10
205.640000000000
20
283.430000000000
30
0.0
0
VERTEX
5
6c1
100
AcDbEntity
8
0àÍî ê}-1
6
CONTINUOUS
62
  7
100
AcDbVertex
100
AcDb2dVertex
10
205.620000000000
20
283.420000000000
30
0.0
0
VERTEX
5
6c2
100
AcDbEntity
8
0àÍî ê}-1
6
CONTINUOUS
62
  7
100
AcDbVertex
100
AcDb2dVertex
10
205.570000000000
20
283.370000000000
30
0.0
0
VERTEX
5
6c3
100
AcDbEntity
8
0àÍî ê}-1
6
CONTINUOUS
62
  7
100
AcDbVertex
100
AcDb2dVertex
10
205.350000000000
20
283.200000000000
30
0.0
0
SEQEND
5
6c4
100
AcDbEntity
8
0àÍî ê}-1
0
POLYLINE
5
6c5
100
AcDbEntity
8
0àÍî ê}-1
6
CONTINUOUS
62
  7
100
AcDb2dPolyline
66
1
10
0.0
20
0.0
30
0.0
70
0
0
VERTEX
5
6c6
100
AcDbEntity
8
0àÍî ê}-1
6
CONTINUOUS
62
  7
100
AcDbVertex
100
AcDb2dVertex
10
207.720000000000
20
282.920000000000
30
0.0
0
VERTEX
5
6c7
100
AcDbEntity
8
0àÍî ê}-1
6
CONTINUOUS
62
  7
100
AcDbVertex
100
AcDb2dVertex
10
207.670000000000
20
282.870000000000
30
0.0
0
VERTEX
5
6c8
100
AcDbEntity
8
0àÍî ê}-1
6
CONTINUOUS
62
  7
100
AcDbVertex
100
AcDb2dVertex
10
207.630000000000
20
282.820000000000
30
0.0
0
SEQEND
5
6c9
100
AcDbEntity
8
0àÍî ê}-1
0
POLYLINE
5
6ca
100
AcDbEntity
8
0àÍî ê}-1
6
CONTINUOUS
62
  7
100
AcDb2dPolyline
66
1
10
0.0
20
0.0
30
0.0
70
0
0
VERTEX
5
6cb
100
AcDbEntity
8
0àÍî ê}-1
6
CONTINUOUS
62
  7
100
AcDbVertex
100
AcDb2dVertex
10
193.250000000000
20
282.820000000000
30
0.0
0
VERTEX
5
6cc
100
AcDbEntity
8
0àÍî ê}-1
6
CONTINUOUS
62
  7
100
AcDbVertex
100
AcDb2dVertex
10
193.210000000000
20
282.870000000000
30
0.0
0
VERTEX
5
6cd
100
AcDbEntity
8
0àÍî ê}-1
6
CONTINUOUS
62
  7
100
AcDbVertex
100
AcDb2dVertex
10
193.170000000000
20
282.920000000000
30
0.0
0
SEQEND
5
6ce
100
AcDbEntity
8
0àÍî ê}-1
0
POLYLINE
5
6cf
100
AcDbEntity
8
0àÍî ê}-1
6
CONTINUOUS
62
  7
100
AcDb2dPolyline
66
1
10
0.0
20
0.0
30
0.0
70
0
0
VERTEX
5
6d0
100
AcDbEntity
8
0àÍî ê}-1
6
CONTINUOUS
62
  7
100
AcDbVertex
100
AcDb2dVertex
10
195.540000000000
20
283.200000000000
30
0.0
0
VERTEX
5
6d1
100
AcDbEntity
8
0àÍî ê}-1
6
CONTINUOUS
62
  7
100
AcDbVertex
100
AcDb2dVertex
10
195.520000000000
20
283.210000000000
30
0.0
0
VERTEX
5
6d2
100
AcDbEntity
8
0àÍî ê}-1
6
CONTINUOUS
62
  7
100
AcDbVertex
100
AcDb2dVertex
10
195.470000000000
20
283.260000000000
30
0.0
0
VERTEX
5
6d3
100
AcDbEntity
8
0àÍî ê}-1
6
CONTINUOUS
62
  7
100
AcDbVertex
100
AcDb2dVertex
10
195.250000000000
20
283.430000000000
30
0.0
0
SEQEND
5
6d4
100
AcDbEntity
8
0àÍî ê}-1
0
POLYLINE
5
6d5
100
AcDbEntity
8
0àÍî ê}-1
6
CONTINUOUS
62
  7
100
AcDb2dPolyline
66
1
10
0.0
20
0.0
30
0.0
70
0
0
VERTEX
5
6d6
100
AcDbEntity
8
0àÍî ê}-1
6
CONTINUOUS
62
  7
100
AcDbVertex
100
AcDb2dVertex
10
193.250000000000
20
282.820000000000
30
0.0
0
VERTEX
5
6d7
100
AcDbEntity
8
0àÍî ê}-1
6
CONTINUOUS
62
  7
100
AcDbVertex
100
AcDb2dVertex
10
193.320000000000
20
282.850000000000
30
0.0
0
VERTEX
5
6d8
100
AcDbEntity
8
0àÍî ê}-1
6
CONTINUOUS
62
  7
100
AcDbVertex
100
AcDb2dVertex
10
193.450000000000
20
282.960000000000
30
0.0
0
VERTEX
5
6d9
100
AcDbEntity
8
0àÍî ê}-1
6
CONTINUOUS
62
  7
100
AcDbVertex
100
AcDb2dVertex
10
193.540000000000
20
283.100000000000
30
0.0
0
VERTEX
5
6da
100
AcDbEntity
8
0àÍî ê}-1
6
CONTINUOUS
62
  7
100
AcDbVertex
100
AcDb2dVertex
10
193.580000000000
20
283.260000000000
30
0.0
0
VERTEX
5
6db
100
AcDbEntity
8
0àÍî ê}-1
6
CONTINUOUS
62
  7
100
AcDbVertex
100
AcDb2dVertex
10
193.560000000000
20
283.430000000000
30
0.0
0
SEQEND
5
6dc
100
AcDbEntity
8
0àÍî ê}-1
0
POLYLINE
5
6dd
100
AcDbEntity
8
0àÍî ê}-1
6
CONTINUOUS
62
  7
100
AcDb2dPolyline
66
1
10
0.0
20
0.0
30
0.0
70
0
0
VERTEX
5
6de
100
AcDbEntity
8
0àÍî ê}-1
6
CONTINUOUS
62
  7
100
AcDbVertex
100
AcDb2dVertex
10
207.330000000000
20
283.430000000000
30
0.0
0
VERTEX
5
6df
100
AcDbEntity
8
0àÍî ê}-1
6
CONTINUOUS
62
  7
100
AcDbVertex
100
AcDb2dVertex
10
207.310000000000
20
283.260000000000
30
0.0
0
VERTEX
5
6e0
100
AcDbEntity
8
0àÍî ê}-1
6
CONTINUOUS
62
  7
100
AcDbVertex
100
AcDb2dVertex
10
207.340000000000
20
283.100000000000
30
0.0
0
VERTEX
5
6e1
100
AcDbEntity
8
0àÍî ê}-1
6
CONTINUOUS
62
  7
100
AcDbVertex
100
AcDb2dVertex
10
207.430000000000
20
282.960000000000
30
0.0
0
VERTEX
5
6e2
100
AcDbEntity
8
0àÍî ê}-1
6
CONTINUOUS
62
  7
100
AcDbVertex
100
AcDb2dVertex
10
207.570000000000
20
282.850000000000
30
0.0
0
VERTEX
5
6e3
100
AcDbEntity
8
0àÍî ê}-1
6
CONTINUOUS
62
  7
100
AcDbVertex
100
AcDb2dVertex
10
207.630000000000
20
282.820000000000
30
0.0
0
SEQEND
5
6e4
100
AcDbEntity
8
0àÍî ê}-1
0
POLYLINE
5
6e5
100
AcDbEntity
8
0àÍî ê}-1
6
CONTINUOUS
62
  7
100
AcDb2dPolyline
66
1
10
0.0
20
0.0
30
0.0
70
0
0
VERTEX
5
6e6
100
AcDbEntity
8
0àÍî ê}-1
6
CONTINUOUS
62
  7
100
AcDbVertex
100
AcDb2dVertex
10
207.330000000000
20
283.430000000000
30
0.0
0
VERTEX
5
6e7
100
AcDbEntity
8
0àÍî ê}-1
6
CONTINUOUS
62
  7
100
AcDbVertex
100
AcDb2dVertex
10
207.360000000000
20
283.460000000000
30
0.0
0
VERTEX
5
6e8
100
AcDbEntity
8
0àÍî ê}-1
6
CONTINUOUS
62
  7
100
AcDbVertex
100
AcDb2dVertex
10
207.400000000000
20
283.500000000000
30
0.0
0
SEQEND
5
6e9
100
AcDbEntity
8
0àÍî ê}-1
0
POLYLINE
5
6ea
100
AcDbEntity
8
0àÍî ê}-1
6
CONTINUOUS
62
  7
100
AcDb2dPolyline
66
1
10
0.0
20
0.0
30
0.0
70
0
0
VERTEX
5
6eb
100
AcDbEntity
8
0àÍî ê}-1
6
CONTINUOUS
62
  7
100
AcDbVertex
100
AcDb2dVertex
10
207.720000000000
20
282.920000000000
30
0.0
0
VERTEX
5
6ec
100
AcDbEntity
8
0àÍî ê}-1
6
CONTINUOUS
62
  7
100
AcDbVertex
100
AcDb2dVertex
10
207.570000000000
20
283.000000000000
30
0.0
0
VERTEX
5
6ed
100
AcDbEntity
8
0àÍî ê}-1
6
CONTINUOUS
62
  7
100
AcDbVertex
100
AcDb2dVertex
10
207.460000000000
20
283.130000000000
30
0.0
0
VERTEX
5
6ee
100
AcDbEntity
8
0àÍî ê}-1
6
CONTINUOUS
62
  7
100
AcDbVertex
100
AcDb2dVertex
10
207.400000000000
20
283.280000000000
30
0.0
0
VERTEX
5
6ef
100
AcDbEntity
8
0àÍî ê}-1
6
CONTINUOUS
62
  7
100
AcDbVertex
100
AcDb2dVertex
10
207.390000000000
20
283.450000000000
30
0.0
0
VERTEX
5
6f0
100
AcDbEntity
8
0àÍî ê}-1
6
CONTINUOUS
62
  7
100
AcDbVertex
100
AcDb2dVertex
10
207.400000000000
20
283.500000000000
30
0.0
0
SEQEND
5
6f1
100
AcDbEntity
8
0àÍî ê}-1
0
POLYLINE
5
6f2
100
AcDbEntity
8
0àÍî ê}-1
6
CONTINUOUS
62
  7
100
AcDb2dPolyline
66
1
10
0.0
20
0.0
30
0.0
70
0
0
VERTEX
5
6f3
100
AcDbEntity
8
0àÍî ê}-1
6
CONTINUOUS
62
  7
100
AcDbVertex
100
AcDb2dVertex
10
193.480000000000
20
283.500000000000
30
0.0
0
VERTEX
5
6f4
100
AcDbEntity
8
0àÍî ê}-1
6
CONTINUOUS
62
  7
100
AcDbVertex
100
AcDb2dVertex
10
193.490000000000
20
283.330000000000
30
0.0
0
VERTEX
5
6f5
100
AcDbEntity
8
0àÍî ê}-1
6
CONTINUOUS
62
  7
100
AcDbVertex
100
AcDb2dVertex
10
193.440000000000
20
283.170000000000
30
0.0
0
VERTEX
5
6f6
100
AcDbEntity
8
0àÍî ê}-1
6
CONTINUOUS
62
  7
100
AcDbVertex
100
AcDb2dVertex
10
193.350000000000
20
283.030000000000
30
0.0
0
VERTEX
5
6f7
100
AcDbEntity
8
0àÍî ê}-1
6
CONTINUOUS
62
  7
100
AcDbVertex
100
AcDb2dVertex
10
193.210000000000
20
282.930000000000
30
0.0
0
VERTEX
5
6f8
100
AcDbEntity
8
0àÍî ê}-1
6
CONTINUOUS
62
  7
100
AcDbVertex
100
AcDb2dVertex
10
193.170000000000
20
282.920000000000
30
0.0
0
SEQEND
5
6f9
100
AcDbEntity
8
0àÍî ê}-1
0
POLYLINE
5
6fa
100
AcDbEntity
8
0àÍî ê}-1
6
CONTINUOUS
62
  7
100
AcDb2dPolyline
66
1
10
0.0
20
0.0
30
0.0
70
0
0
VERTEX
5
6fb
100
AcDbEntity
8
0àÍî ê}-1
6
CONTINUOUS
62
  7
100
AcDbVertex
100
AcDb2dVertex
10
193.480000000000
20
283.500000000000
30
0.0
0
VERTEX
5
6fc
100
AcDbEntity
8
0àÍî ê}-1
6
CONTINUOUS
62
  7
100
AcDbVertex
100
AcDb2dVertex
10
193.520000000000
20
283.460000000000
30
0.0
0
VERTEX
5
6fd
100
AcDbEntity
8
0àÍî ê}-1
6
CONTINUOUS
62
  7
100
AcDbVertex
100
AcDb2dVertex
10
193.560000000000
20
283.430000000000
30
0.0
0
SEQEND
5
6fe
100
AcDbEntity
8
0àÍî ê}-1
0
POLYLINE
5
6ff
100
AcDbEntity
8
0àÍî ê}-1
6
CONTINUOUS
62
  7
100
AcDb2dPolyline
66
1
10
0.0
20
0.0
30
0.0
70
0
0
VERTEX
5
700
100
AcDbEntity
8
0àÍî ê}-1
6
CONTINUOUS
62
  7
100
AcDbVertex
100
AcDb2dVertex
10
223.850000000000
20
284.140000000000
30
0.0
0
VERTEX
5
701
100
AcDbEntity
8
0àÍî ê}-1
6
CONTINUOUS
62
  7
100
AcDbVertex
100
AcDb2dVertex
10
223.820000000000
20
284.570000000000
30
0.0
0
VERTEX
5
702
100
AcDbEntity
8
0àÍî ê}-1
6
CONTINUOUS
62
  7
100
AcDbVertex
100
AcDb2dVertex
10
223.700000000000
20
284.990000000000
30
0.0
0
VERTEX
5
703
100
AcDbEntity
8
0àÍî ê}-1
6
CONTINUOUS
62
  7
100
AcDbVertex
100
AcDb2dVertex
10
223.520000000000
20
285.390000000000
30
0.0
0
VERTEX
5
704
100
AcDbEntity
8
0àÍî ê}-1
6
CONTINUOUS
62
  7
100
AcDbVertex
100
AcDb2dVertex
10
223.270000000000
20
285.740000000000
30
0.0
0
VERTEX
5
705
100
AcDbEntity
8
0àÍî ê}-1
6
CONTINUOUS
62
  7
100
AcDbVertex
100
AcDb2dVertex
10
222.960000000000
20
286.050000000000
30
0.0
0
VERTEX
5
706
100
AcDbEntity
8
0àÍî ê}-1
6
CONTINUOUS
62
  7
100
AcDbVertex
100
AcDb2dVertex
10
222.600000000000
20
286.300000000000
30
0.0
0
VERTEX
5
707
100
AcDbEntity
8
0àÍî ê}-1
6
CONTINUOUS
62
  7
100
AcDbVertex
100
AcDb2dVertex
10
222.210000000000
20
286.490000000000
30
0.0
0
VERTEX
5
708
100
AcDbEntity
8
0àÍî ê}-1
6
CONTINUOUS
62
  7
100
AcDbVertex
100
AcDb2dVertex
10
221.790000000000
20
286.600000000000
30
0.0
0
VERTEX
5
709
100
AcDbEntity
8
0àÍî ê}-1
6
CONTINUOUS
62
  7
100
AcDbVertex
100
AcDb2dVertex
10
221.360000000000
20
286.640000000000
30
0.0
0
SEQEND
5
70a
100
AcDbEntity
8
0àÍî ê}-1
0
POLYLINE
5
70b
100
AcDbEntity
8
0àÍî ê}-1
6
CONTINUOUS
62
  7
100
AcDb2dPolyline
66
1
10
0.0
20
0.0
30
0.0
70
0
0
VERTEX
5
70c
100
AcDbEntity
8
0àÍî ê}-1
6
CONTINUOUS
62
  7
100
AcDbVertex
100
AcDb2dVertex
10
221.360000000000
20
239.810000000000
30
0.0
0
VERTEX
5
70d
100
AcDbEntity
8
0àÍî ê}-1
6
CONTINUOUS
62
  7
100
AcDbVertex
100
AcDb2dVertex
10
221.790000000000
20
239.850000000000
30
0.0
0
VERTEX
5
70e
100
AcDbEntity
8
0àÍî ê}-1
6
CONTINUOUS
62
  7
100
AcDbVertex
100
AcDb2dVertex
10
222.210000000000
20
239.960000000000
30
0.0
0
VERTEX
5
70f
100
AcDbEntity
8
0àÍî ê}-1
6
CONTINUOUS
62
  7
100
AcDbVertex
100
AcDb2dVertex
10
222.600000000000
20
240.150000000000
30
0.0
0
VERTEX
5
710
100
AcDbEntity
8
0àÍî ê}-1
6
CONTINUOUS
62
  7
100
AcDbVertex
100
AcDb2dVertex
10
222.960000000000
20
240.400000000000
30
0.0
0
VERTEX
5
711
100
AcDbEntity
8
0àÍî ê}-1
6
CONTINUOUS
62
  7
100
AcDbVertex
100
AcDb2dVertex
10
223.270000000000
20
240.700000000000
30
0.0
0
VERTEX
5
712
100
AcDbEntity
8
0àÍî ê}-1
6
CONTINUOUS
62
  7
100
AcDbVertex
100
AcDb2dVertex
10
223.520000000000
20
241.060000000000
30
0.0
0
VERTEX
5
713
100
AcDbEntity
8
0àÍî ê}-1
6
CONTINUOUS
62
  7
100
AcDbVertex
100
AcDb2dVertex
10
223.700000000000
20
241.460000000000
30
0.0
0
VERTEX
5
714
100
AcDbEntity
8
0àÍî ê}-1
6
CONTINUOUS
62
  7
100
AcDbVertex
100
AcDb2dVertex
10
223.820000000000
20
241.880000000000
30
0.0
0
VERTEX
5
715
100
AcDbEntity
8
0àÍî ê}-1
6
CONTINUOUS
62
  7
100
AcDbVertex
100
AcDb2dVertex
10
223.850000000000
20
242.310000000000
30
0.0
0
SEQEND
5
716
100
AcDbEntity
8
0àÍî ê}-1
0
POLYLINE
5
717
100
AcDbEntity
8
0àÍî ê}-1
6
CONTINUOUS
62
  7
100
AcDb2dPolyline
66
1
10
0.0
20
0.0
30
0.0
70
0
0
VERTEX
5
718
100
AcDbEntity
8
0àÍî ê}-1
6
CONTINUOUS
62
  7
100
AcDbVertex
100
AcDb2dVertex
10
177.030000000000
20
242.310000000000
30
0.0
0
VERTEX
5
719
100
AcDbEntity
8
0àÍî ê}-1
6
CONTINUOUS
62
  7
100
AcDbVertex
100
AcDb2dVertex
10
177.070000000000
20
241.880000000000
30
0.0
0
VERTEX
5
71a
100
AcDbEntity
8
0àÍî ê}-1
6
CONTINUOUS
62
  7
100
AcDbVertex
100
AcDb2dVertex
10
177.180000000000
20
241.460000000000
30
0.0
0
VERTEX
5
71b
100
AcDbEntity
8
0àÍî ê}-1
6
CONTINUOUS
62
  7
100
AcDbVertex
100
AcDb2dVertex
10
177.360000000000
20
241.060000000000
30
0.0
0
VERTEX
5
71c
100
AcDbEntity
8
0àÍî ê}-1
6
CONTINUOUS
62
  7
100
AcDbVertex
100
AcDb2dVertex
10
177.610000000000
20
240.700000000000
30
0.0
0
VERTEX
5
71d
100
AcDbEntity
8
0àÍî ê}-1
6
CONTINUOUS
62
  7
100
AcDbVertex
100
AcDb2dVertex
10
177.920000000000
20
240.400000000000
30
0.0
0
VERTEX
5
71e
100
AcDbEntity
8
0àÍî ê}-1
6
CONTINUOUS
62
  7
100
AcDbVertex
100
AcDb2dVertex
10
178.280000000000
20
240.150000000000
30
0.0
0
VERTEX
5
71f
100
AcDbEntity
8
0àÍî ê}-1
6
CONTINUOUS
62
  7
100
AcDbVertex
100
AcDb2dVertex
10
178.670000000000
20
239.960000000000
30
0.0
0
VERTEX
5
720
100
AcDbEntity
8
0àÍî ê}-1
6
CONTINUOUS
62
  7
100
AcDbVertex
100
AcDb2dVertex
10
179.090000000000
20
239.850000000000
30
0.0
0
VERTEX
5
721
100
AcDbEntity
8
0àÍî ê}-1
6
CONTINUOUS
62
  7
100
AcDbVertex
100
AcDb2dVertex
10
179.530000000000
20
239.810000000000
30
0.0
0
SEQEND
5
722
100
AcDbEntity
8
0àÍî ê}-1
0
POLYLINE
5
723
100
AcDbEntity
8
0àÍî ê}-1
6
CONTINUOUS
62
  7
100
AcDb2dPolyline
66
1
10
0.0
20
0.0
30
0.0
70
0
0
VERTEX
5
724
100
AcDbEntity
8
0àÍî ê}-1
6
CONTINUOUS
62
  7
100
AcDbVertex
100
AcDb2dVertex
10
179.530000000000
20
286.640000000000
30
0.0
0
VERTEX
5
725
100
AcDbEntity
8
0àÍî ê}-1
6
CONTINUOUS
62
  7
100
AcDbVertex
100
AcDb2dVertex
10
179.090000000000
20
286.600000000000
30
0.0
0
VERTEX
5
726
100
AcDbEntity
8
0àÍî ê}-1
6
CONTINUOUS
62
  7
100
AcDbVertex
100
AcDb2dVertex
10
178.670000000000
20
286.490000000000
30
0.0
0
VERTEX
5
727
100
AcDbEntity
8
0àÍî ê}-1
6
CONTINUOUS
62
  7
100
AcDbVertex
100
AcDb2dVertex
10
178.280000000000
20
286.300000000000
30
0.0
0
VERTEX
5
728
100
AcDbEntity
8
0àÍî ê}-1
6
CONTINUOUS
62
  7
100
AcDbVertex
100
AcDb2dVertex
10
177.920000000000
20
286.050000000000
30
0.0
0
VERTEX
5
729
100
AcDbEntity
8
0àÍî ê}-1
6
CONTINUOUS
62
  7
100
AcDbVertex
100
AcDb2dVertex
10
177.610000000000
20
285.740000000000
30
0.0
0
VERTEX
5
72a
100
AcDbEntity
8
0àÍî ê}-1
6
CONTINUOUS
62
  7
100
AcDbVertex
100
AcDb2dVertex
10
177.360000000000
20
285.390000000000
30
0.0
0
VERTEX
5
72b
100
AcDbEntity
8
0àÍî ê}-1
6
CONTINUOUS
62
  7
100
AcDbVertex
100
AcDb2dVertex
10
177.180000000000
20
284.990000000000
30
0.0
0
VERTEX
5
72c
100
AcDbEntity
8
0àÍî ê}-1
6
CONTINUOUS
62
  7
100
AcDbVertex
100
AcDb2dVertex
10
177.070000000000
20
284.570000000000
30
0.0
0
VERTEX
5
72d
100
AcDbEntity
8
0àÍî ê}-1
6
CONTINUOUS
62
  7
100
AcDbVertex
100
AcDb2dVertex
10
177.030000000000
20
284.140000000000
30
0.0
0
SEQEND
5
72e
100
AcDbEntity
8
0àÍî ê}-1
0
POLYLINE
5
72f
100
AcDbEntity
8
0àÍî ê}-1
6
CONTINUOUS
62
  7
100
AcDb2dPolyline
66
1
10
0.0
20
0.0
30
0.0
70
0
0
VERTEX
5
730
100
AcDbEntity
8
0àÍî ê}-1
6
CONTINUOUS
62
  7
100
AcDbVertex
100
AcDb2dVertex
10
107.520000000000
20
186.240000000000
30
0.0
0
VERTEX
5
731
100
AcDbEntity
8
0àÍî ê}-1
6
CONTINUOUS
62
  7
100
AcDbVertex
100
AcDb2dVertex
10
107.550000000000
20
186.240000000000
30
0.0
0
VERTEX
5
732
100
AcDbEntity
8
0àÍî ê}-1
6
CONTINUOUS
62
  7
100
AcDbVertex
100
AcDb2dVertex
10
107.590000000000
20
186.250000000000
30
0.0
0
VERTEX
5
733
100
AcDbEntity
8
0àÍî ê}-1
6
CONTINUOUS
62
  7
100
AcDbVertex
100
AcDb2dVertex
10
107.620000000000
20
186.270000000000
30
0.0
0
VERTEX
5
734
100
AcDbEntity
8
0àÍî ê}-1
6
CONTINUOUS
62
  7
100
AcDbVertex
100
AcDb2dVertex
10
107.650000000000
20
186.290000000000
30
0.0
0
VERTEX
5
735
100
AcDbEntity
8
0àÍî ê}-1
6
CONTINUOUS
62
  7
100
AcDbVertex
100
AcDb2dVertex
10
107.670000000000
20
186.320000000000
30
0.0
0
VERTEX
5
736
100
AcDbEntity
8
0àÍî ê}-1
6
CONTINUOUS
62
  7
100
AcDbVertex
100
AcDb2dVertex
10
107.690000000000
20
186.360000000000
30
0.0
0
VERTEX
5
737
100
AcDbEntity
8
0àÍî ê}-1
6
CONTINUOUS
62
  7
100
AcDbVertex
100
AcDb2dVertex
10
107.700000000000
20
186.390000000000
30
0.0
0
VERTEX
5
738
100
AcDbEntity
8
0àÍî ê}-1
6
CONTINUOUS
62
  7
100
AcDbVertex
100
AcDb2dVertex
10
107.710000000000
20
186.430000000000
30
0.0
0
SEQEND
5
739
100
AcDbEntity
8
0àÍî ê}-1
0
POLYLINE
5
73a
100
AcDbEntity
8
0àÍî ê}-1
6
CONTINUOUS
62
  7
100
AcDb2dPolyline
66
1
10
0.0
20
0.0
30
0.0
70
0
0
VERTEX
5
73b
100
AcDbEntity
8
0àÍî ê}-1
6
CONTINUOUS
62
  7
100
AcDbVertex
100
AcDb2dVertex
10
107.800000000000
20
189.750000000000
30
0.0
0
VERTEX
5
73c
100
AcDbEntity
8
0àÍî ê}-1
6
CONTINUOUS
62
  7
100
AcDbVertex
100
AcDb2dVertex
10
107.800000000000
20
189.760000000000
30
0.0
0
VERTEX
5
73d
100
AcDbEntity
8
0àÍî ê}-1
6
CONTINUOUS
62
  7
100
AcDbVertex
100
AcDb2dVertex
10
107.710000000000
20
190.020000000000
30
0.0
0
VERTEX
5
73e
100
AcDbEntity
8
0àÍî ê}-1
6
CONTINUOUS
62
  7
100
AcDbVertex
100
AcDb2dVertex
10
107.620000000000
20
190.190000000000
30
0.0
0
VERTEX
5
73f
100
AcDbEntity
8
0àÍî ê}-1
6
CONTINUOUS
62
  7
100
AcDbVertex
100
AcDb2dVertex
10
107.540000000000
20
190.240000000000
30
0.0
0
SEQEND
5
740
100
AcDbEntity
8
0àÍî ê}-1
0
POLYLINE
5
741
100
AcDbEntity
8
0àÍî ê}-1
6
CONTINUOUS
62
  7
100
AcDb2dPolyline
66
1
10
0.0
20
0.0
30
0.0
70
0
0
VERTEX
5
742
100
AcDbEntity
8
0àÍî ê}-1
6
CONTINUOUS
62
  7
100
AcDbVertex
100
AcDb2dVertex
10
107.710000000000
20
186.430000000000
30
0.0
0
VERTEX
5
743
100
AcDbEntity
8
0àÍî ê}-1
6
CONTINUOUS
62
  7
100
AcDbVertex
100
AcDb2dVertex
10
107.760000000000
20
188.250000000000
30
0.0
0
VERTEX
5
744
100
AcDbEntity
8
0àÍî ê}-1
6
CONTINUOUS
62
  7
100
AcDbVertex
100
AcDb2dVertex
10
107.800000000000
20
189.750000000000
30
0.0
0
SEQEND
5
745
100
AcDbEntity
8
0àÍî ê}-1
0
POLYLINE
5
746
100
AcDbEntity
8
0àÍî ê}-1
6
CONTINUOUS
62
  7
100
AcDb2dPolyline
66
1
10
0.0
20
0.0
30
0.0
70
0
0
VERTEX
5
747
100
AcDbEntity
8
0àÍî ê}-1
6
CONTINUOUS
62
  7
100
AcDbVertex
100
AcDb2dVertex
10
107.190000000000
20
190.240000000000
30
0.0
0
VERTEX
5
748
100
AcDbEntity
8
0àÍî ê}-1
6
CONTINUOUS
62
  7
100
AcDbVertex
100
AcDb2dVertex
10
107.210000000000
20
190.640000000000
30
0.0
0
VERTEX
5
749
100
AcDbEntity
8
0àÍî ê}-1
6
CONTINUOUS
62
  7
100
AcDbVertex
100
AcDb2dVertex
10
107.250000000000
20
192.230000000000
30
0.0
0
VERTEX
5
74a
100
AcDbEntity
8
0àÍî ê}-1
6
CONTINUOUS
62
  7
100
AcDbVertex
100
AcDb2dVertex
10
107.420000000000
20
198.550000000000
30
0.0
0
SEQEND
5
74b
100
AcDbEntity
8
0àÍî ê}-1
0
POLYLINE
5
74c
100
AcDbEntity
8
0àÍî ê}-1
6
CONTINUOUS
62
  7
100
AcDb2dPolyline
66
1
10
0.0
20
0.0
30
0.0
70
0
0
VERTEX
5
74d
100
AcDbEntity
8
0àÍî ê}-1
6
CONTINUOUS
62
  7
100
AcDbVertex
100
AcDb2dVertex
10
107.710000000000
20
186.430000000000
30
0.0
0
VERTEX
5
74e
100
AcDbEntity
8
0àÍî ê}-1
6
CONTINUOUS
62
  7
100
AcDbVertex
100
AcDb2dVertex
10
107.620000000000
20
186.430000000000
30
0.0
0
VERTEX
5
74f
100
AcDbEntity
8
0àÍî ê}-1
6
CONTINUOUS
62
  7
100
AcDbVertex
100
AcDb2dVertex
10
107.490000000000
20
186.430000000000
30
0.0
0
VERTEX
5
750
100
AcDbEntity
8
0àÍî ê}-1
6
CONTINUOUS
62
  7
100
AcDbVertex
100
AcDb2dVertex
10
107.340000000000
20
186.430000000000
30
0.0
0
VERTEX
5
751
100
AcDbEntity
8
0àÍî ê}-1
6
CONTINUOUS
62
  7
100
AcDbVertex
100
AcDb2dVertex
10
107.170000000000
20
186.430000000000
30
0.0
0
VERTEX
5
752
100
AcDbEntity
8
0àÍî ê}-1
6
CONTINUOUS
62
  7
100
AcDbVertex
100
AcDb2dVertex
10
107.130000000000
20
186.430000000000
30
0.0
0
SEQEND
5
753
100
AcDbEntity
8
0àÍî ê}-1
0
ARC
5
754
100
AcDbEntity
8
0àÍî ê}-1
6
CONTINUOUS
62
7
100
AcDbCircle
10
108.960000000000
20
207.640000000000
30
0.0
40
0.300000023536
100
AcDbArc
50
177.000000000000
51
270.000000000000
0
ARC
5
755
100
AcDbEntity
8
0àÍî ê}-1
6
CONTINUOUS
62
7
100
AcDbCircle
10
178.440000000000
20
125.400000000000
30
0.0
40
2.998641635993
100
AcDbArc
50
89.992401123047
51
180.000000000000
0
ARC
5
756
100
AcDbEntity
8
0àÍî ê}-1
6
CONTINUOUS
62
7
100
AcDbCircle
10
222.440000000000
20
125.400000000000
30
0.0
40
2.998641635993
100
AcDbArc
50
360.000000000000
51
450.007583618164
0
ARC
5
757
100
AcDbEntity
8
0àÍî ê}-1
6
CONTINUOUS
62
7
100
AcDbCircle
10
178.440000000000
20
81.400000000000
30
0.0
40
2.998641635993
100
AcDbArc
50
180.000000000000
51
270.007583618164
0
ARC
5
758
100
AcDbEntity
8
0àÍî ê}-1
6
CONTINUOUS
62
7
100
AcDbCircle
10
222.440000000000
20
81.400000000000
30
0.0
40
2.998641635993
100
AcDbArc
50
269.992401123047
51
0.000000000000
0
ARC
5
759
100
AcDbEntity
8
0àÍî ê}-1
6
CONTINUOUS
62
7
100
AcDbCircle
10
223.850000000000
20
185.740000000000
30
0.0
40
0.500000039226
100
AcDbArc
50
2.000000000000
51
89.999984741211
0
ARC
5
75a
100
AcDbEntity
8
0àÍî ê}-1
6
CONTINUOUS
62
7
100
AcDbCircle
10
177.030000000000
20
185.740000000000
30
0.0
40
0.500000039226
100
AcDbArc
50
90.000000000000
51
178.000000000000
0
ARC
5
75b
100
AcDbEntity
8
0àÍî ê}-1
6
CONTINUOUS
62
7
100
AcDbCircle
10
179.250000000000
20
186.440000000000
30
0.0
40
0.200000015691
100
AcDbArc
50
270.000000000000
51
357.999984741211
0
ARC
5
75c
100
AcDbEntity
8
0àÍî ê}-1
6
CONTINUOUS
62
7
100
AcDbCircle
10
221.630000000000
20
186.440000000000
30
0.0
40
0.200000015691
100
AcDbArc
50
182.000000000000
51
270.000000000000
0
ARC
5
75d
100
AcDbEntity
8
0àÍî ê}-1
6
CONTINUOUS
62
7
100
AcDbCircle
10
205.130000000000
20
285.290000000000
30
0.0
40
0.499555082469
100
AcDbArc
50
22.330566406250
51
90.014297485352
0
ARC
5
75e
100
AcDbEntity
8
0àÍî ê}-1
6
CONTINUOUS
62
7
100
AcDbCircle
10
195.760000000000
20
285.410000000000
30
0.0
40
0.499546141772
100
AcDbArc
50
89.984664916992
51
170.694793701172
0
ARC
5
75f
100
AcDbEntity
8
0àÍî ê}-1
6
CONTINUOUS
62
7
100
AcDbCircle
10
205.690000000000
20
283.620000000000
30
0.0
40
0.199845909482
100
AcDbArc
50
180.000000000000
51
255.586990356445
0
ARC
5
760
100
AcDbEntity
8
0àÍî ê}-1
6
CONTINUOUS
62
7
100
AcDbCircle
10
200.440000000000
20
263.220000000000
30
0.0
40
20.860318185534
100
AcDbArc
50
104.420150756836
51
107.828979492188
0
ARC
5
761
100
AcDbEntity
8
0àÍî ê}-1
6
CONTINUOUS
62
7
100
AcDbCircle
10
200.440000000000
20
263.220000000000
30
0.0
40
20.860318185534
100
AcDbArc
50
72.170974731445
51
75.579818725586
0
ARC
5
762
100
AcDbEntity
8
0àÍî ê}-1
6
CONTINUOUS
62
7
100
AcDbCircle
10
195.200000000000
20
283.620000000000
30
0.0
40
0.199845909482
100
AcDbArc
50
284.412994384766
51
0.000000000000
0
CIRCLE
5
763
100
AcDbEntity
8
0àÍî ê}-1
6
CONTINUOUS
62
7
100
AcDbCircle
10
220.940000000000
20
283.720000000000
30
0.0
40
2.800000219667
0
CIRCLE
5
764
100
AcDbEntity
8
0àÍî ê}-1
6
CONTINUOUS
62
7
100
AcDbCircle
10
220.940000000000
20
242.720000000000
30
0.0
40
2.800000219667
0
CIRCLE
5
765
100
AcDbEntity
8
0àÍî ê}-1
6
CONTINUOUS
62
7
100
AcDbCircle
10
179.940000000000
20
283.720000000000
30
0.0
40
2.800000219667
0
CIRCLE
5
766
100
AcDbEntity
8
0àÍî ê}-1
6
CONTINUOUS
62
7
100
AcDbCircle
10
179.940000000000
20
242.720000000000
30
0.0
40
2.800000219667
0
ARC
5
767
100
AcDbEntity
8
0àÍî ê}-1
6
CONTINUOUS
62
7
100
AcDbCircle
10
200.440000000000
20
263.220000000000
30
0.0
40
18.755799054070
100
AcDbArc
50
77.764892578125
51
102.235092163086
0
ARC
5
768
100
AcDbEntity
8
0àÍî ê}-1
6
CONTINUOUS
62
7
100
AcDbCircle
10
200.440000000000
20
263.220000000000
30
0.0
40
18.955677862902
100
AcDbArc
50
77.764892578125
51
102.235092163086
0
ARC
5
769
100
AcDbEntity
8
0àÍî ê}-1
6
CONTINUOUS
62
7
100
AcDbCircle
10
205.940000000000
20
283.820000000000
30
0.0
40
1.438755084626
100
AcDbArc
50
344.100250244141
51
107.749984741211
0
ARC
5
76a
100
AcDbEntity
8
0àÍî ê}-1
6
CONTINUOUS
62
7
100
AcDbCircle
10
194.940000000000
20
283.820000000000
30
0.0
40
1.438755084626
100
AcDbArc
50
72.272750854492
51
195.899734497070
0
ARC
5
76b
100
AcDbEntity
8
0àÍî ê}-1
6
CONTINUOUS
62
7
100
AcDbCircle
10
194.940000000000
20
283.820000000000
30
0.0
40
1.496569982913
100
AcDbArc
50
77.558883666992
51
192.687591552734
0
ARC
5
76c
100
AcDbEntity
8
0àÍî ê}-1
6
CONTINUOUS
62
7
100
AcDbCircle
10
205.940000000000
20
283.820000000000
30
0.0
40
1.496569982913
100
AcDbArc
50
347.312393188477
51
102.441101074219
0
ARC
5
76d
100
AcDbEntity
8
0àÍî ê}-1
6
CONTINUOUS
62
7
100
AcDbCircle
10
179.530000000000
20
242.310000000000
30
0.0
40
2.998276855543
100
AcDbArc
50
180.000000000000
51
269.998001098633
0
ARC
5
76e
100
AcDbEntity
8
0àÍî ê}-1
6
CONTINUOUS
62
7
100
AcDbCircle
10
221.360000000000
20
284.140000000000
30
0.0
40
2.998276855543
100
AcDbArc
50
360.000000000000
51
449.998001098633
0
ARC
5
76f
100
AcDbEntity
8
0àÍî ê}-1
6
CONTINUOUS
62
7
100
AcDbCircle
10
221.360000000000
20
242.310000000000
30
0.0
40
2.998276855543
100
AcDbArc
50
270.001983642578
51
0.000000000000
0
ARC
5
770
100
AcDbEntity
8
0àÍî ê}-1
6
CONTINUOUS
62
7
100
AcDbCircle
10
179.530000000000
20
284.140000000000
30
0.0
40
2.998276855543
100
AcDbArc
50
90.001983642578
51
180.000000000000
0
CIRCLE
5
771
100
AcDbEntity
8
0àÍî ê}-1
6
CONTINUOUS
62
7
100
AcDbCircle
10
200.440000000000
20
263.220000000000
30
0.0
40
16.750000685816
0
CIRCLE
5
772
100
AcDbEntity
8
0àÍî ê}-1
6
CONTINUOUS
62
7
100
AcDbCircle
10
200.440000000000
20
263.220000000000
30
0.0
40
18.000001798772
0
ARC
5
773
100
AcDbEntity
8
0àÍî ê}-1
6
CONTINUOUS
62
7
100
AcDbCircle
10
200.440000000000
20
263.220000000000
30
0.0
40
21.000001067567
100
AcDbArc
50
110.150466918945
51
69.719085693359
0
ARC
5
774
100
AcDbEntity
8
0àÍî ê}-1
6
CONTINUOUS
62
7
100
AcDbCircle
10
200.440000000000
20
263.220000000000
30
0.0
40
19.000000524038
100
AcDbArc
50
104.885818481445
51
75.114166259766
0
ARC
5
775
100
AcDbEntity
8
0àÍî ê}-1
6
CONTINUOUS
62
7
100
AcDbCircle
10
178.440000000000
20
241.220000000000
30
0.0
40
2.998641635993
100
AcDbArc
50
180.000000000000
51
270.007583618164
0
ARC
5
776
100
AcDbEntity
8
0àÍî ê}-1
6
CONTINUOUS
62
7
100
AcDbCircle
10
222.440000000000
20
241.220000000000
30
0.0
40
2.998641635993
100
AcDbArc
50
269.992401123047
51
0.000000000000
0
ARC
5
777
100
AcDbEntity
8
0àÍî ê}-1
6
CONTINUOUS
62
7
100
AcDbCircle
10
222.440000000000
20
285.230000000000
30
0.0
40
2.998641635993
100
AcDbArc
50
360.000000000000
51
450.007583618164
0
ARC
5
778
100
AcDbEntity
8
0àÍî ê}-1
6
CONTINUOUS
62
7
100
AcDbCircle
10
178.440000000000
20
285.230000000000
30
0.0
40
2.998641635993
100
AcDbArc
50
89.992401123047
51
180.000000000000
0
CIRCLE
5
779
100
AcDbEntity
8
0àÍî ê}-1
6
CONTINUOUS
62
7
100
AcDbCircle
10
179.940000000000
20
242.720000000000
30
0.0
40
2.600000203977
0
ARC
5
77a
100
AcDbEntity
8
0àÍî ê}-1
6
CONTINUOUS
62
7
100
AcDbCircle
10
179.940000000000
20
242.720000000000
30
0.0
40
1.280000100419
100
AcDbArc
50
76.621856689453
51
136.621856689453
0
ARC
5
77b
100
AcDbEntity
8
0àÍî ê}-1
6
CONTINUOUS
62
7
100
AcDbCircle
10
179.940000000000
20
242.720000000000
30
0.0
40
1.280000100419
100
AcDbArc
50
16.621856689453
51
76.621856689453
0
ARC
5
77c
100
AcDbEntity
8
0àÍî ê}-1
6
CONTINUOUS
62
7
100
AcDbCircle
10
179.940000000000
20
242.720000000000
30
0.0
40
1.280000100419
100
AcDbArc
50
256.621856689453
51
316.621856689453
0
ARC
5
77d
100
AcDbEntity
8
0àÍî ê}-1
6
CONTINUOUS
62
7
100
AcDbCircle
10
179.940000000000
20
242.720000000000
30
0.0
40
1.280000100419
100
AcDbArc
50
196.621841430664
51
256.621841430664
0
ARC
5
77e
100
AcDbEntity
8
0àÍî ê}-1
6
CONTINUOUS
62
7
100
AcDbCircle
10
179.940000000000
20
242.720000000000
30
0.0
40
1.280000100419
100
AcDbArc
50
136.621841430664
51
196.621856689453
0
ARC
5
77f
100
AcDbEntity
8
0àÍî ê}-1
6
CONTINUOUS
62
7
100
AcDbCircle
10
179.940000000000
20
242.720000000000
30
0.0
40
1.280000100419
100
AcDbArc
50
316.621826171875
51
16.621826171875
0
CIRCLE
5
780
100
AcDbEntity
8
0àÍî ê}-1
6
CONTINUOUS
62
7
100
AcDbCircle
10
179.940000000000
20
283.720000000000
30
0.0
40
2.600000203977
0
ARC
5
781
100
AcDbEntity
8
0àÍî ê}-1
6
CONTINUOUS
62
7
100
AcDbCircle
10
179.940000000000
20
283.720000000000
30
0.0
40
1.280000100419
100
AcDbArc
50
76.621856689453
51
136.621856689453
0
ARC
5
782
100
AcDbEntity
8
0àÍî ê}-1
6
CONTINUOUS
62
7
100
AcDbCircle
10
179.940000000000
20
283.720000000000
30
0.0
40
1.280000100419
100
AcDbArc
50
16.621856689453
51
76.621856689453
0
ARC
5
783
100
AcDbEntity
8
0àÍî ê}-1
6
CONTINUOUS
62
7
100
AcDbCircle
10
179.940000000000
20
283.720000000000
30
0.0
40
1.280000100419
100
AcDbArc
50
256.621856689453
51
316.621856689453
0
ARC
5
784
100
AcDbEntity
8
0àÍî ê}-1
6
CONTINUOUS
62
7
100
AcDbCircle
10
179.940000000000
20
283.720000000000
30
0.0
40
1.280000100419
100
AcDbArc
50
196.621841430664
51
256.621841430664
0
ARC
5
785
100
AcDbEntity
8
0àÍî ê}-1
6
CONTINUOUS
62
7
100
AcDbCircle
10
179.940000000000
20
283.720000000000
30
0.0
40
1.280000100419
100
AcDbArc
50
136.621841430664
51
196.621856689453
0
ARC
5
786
100
AcDbEntity
8
0àÍî ê}-1
6
CONTINUOUS
62
7
100
AcDbCircle
10
179.940000000000
20
283.720000000000
30
0.0
40
1.280000100419
100
AcDbArc
50
316.621826171875
51
16.621826171875
0
CIRCLE
5
787
100
AcDbEntity
8
0àÍî ê}-1
6
CONTINUOUS
62
7
100
AcDbCircle
10
220.940000000000
20
283.720000000000
30
0.0
40
2.600000203977
0
ARC
5
788
100
AcDbEntity
8
0àÍî ê}-1
6
CONTINUOUS
62
7
100
AcDbCircle
10
220.940000000000
20
283.720000000000
30
0.0
40
1.280000100419
100
AcDbArc
50
76.621856689453
51
136.621856689453
0
ARC
5
789
100
AcDbEntity
8
0àÍî ê}-1
6
CONTINUOUS
62
7
100
AcDbCircle
10
220.940000000000
20
283.720000000000
30
0.0
40
1.280000100419
100
AcDbArc
50
16.621856689453
51
76.621856689453
0
ARC
5
78a
100
AcDbEntity
8
0àÍî ê}-1
6
CONTINUOUS
62
7
100
AcDbCircle
10
220.940000000000
20
283.720000000000
30
0.0
40
1.280000100419
100
AcDbArc
50
256.621856689453
51
316.621856689453
0
ARC
5
78b
100
AcDbEntity
8
0àÍî ê}-1
6
CONTINUOUS
62
7
100
AcDbCircle
10
220.940000000000
20
283.720000000000
30
0.0
40
1.280000100419
100
AcDbArc
50
196.621841430664
51
256.621841430664
0
ARC
5
78c
100
AcDbEntity
8
0àÍî ê}-1
6
CONTINUOUS
62
7
100
AcDbCircle
10
220.940000000000
20
283.720000000000
30
0.0
40
1.280000100419
100
AcDbArc
50
136.621841430664
51
196.621856689453
0
ARC
5
78d
100
AcDbEntity
8
0àÍî ê}-1
6
CONTINUOUS
62
7
100
AcDbCircle
10
220.940000000000
20
283.720000000000
30
0.0
40
1.280000100419
100
AcDbArc
50
316.621826171875
51
16.621826171875
0
CIRCLE
5
78e
100
AcDbEntity
8
0àÍî ê}-1
6
CONTINUOUS
62
7
100
AcDbCircle
10
220.940000000000
20
242.720000000000
30
0.0
40
2.600000203977
0
ARC
5
78f
100
AcDbEntity
8
0àÍî ê}-1
6
CONTINUOUS
62
7
100
AcDbCircle
10
220.940000000000
20
242.720000000000
30
0.0
40
1.280000100419
100
AcDbArc
50
76.621856689453
51
136.621856689453
0
ARC
5
790
100
AcDbEntity
8
0àÍî ê}-1
6
CONTINUOUS
62
7
100
AcDbCircle
10
220.940000000000
20
242.720000000000
30
0.0
40
1.280000100419
100
AcDbArc
50
16.621856689453
51
76.621856689453
0
ARC
5
791
100
AcDbEntity
8
0àÍî ê}-1
6
CONTINUOUS
62
7
100
AcDbCircle
10
220.940000000000
20
242.720000000000
30
0.0
40
1.280000100419
100
AcDbArc
50
256.621856689453
51
316.621856689453
0
ARC
5
792
100
AcDbEntity
8
0àÍî ê}-1
6
CONTINUOUS
62
7
100
AcDbCircle
10
220.940000000000
20
242.720000000000
30
0.0
40
1.280000100419
100
AcDbArc
50
196.621841430664
51
256.621841430664
0
ARC
5
793
100
AcDbEntity
8
0àÍî ê}-1
6
CONTINUOUS
62
7
100
AcDbCircle
10
220.940000000000
20
242.720000000000
30
0.0
40
1.280000100419
100
AcDbArc
50
136.621841430664
51
196.621856689453
0
ARC
5
794
100
AcDbEntity
8
0àÍî ê}-1
6
CONTINUOUS
62
7
100
AcDbCircle
10
220.940000000000
20
242.720000000000
30
0.0
40
1.280000100419
100
AcDbArc
50
316.621826171875
51
16.621826171875
0
ARC
5
795
100
AcDbEntity
8
0àÍî ê}-1
6
CONTINUOUS
62
7
100
AcDbCircle
10
150.810000000000
20
185.740000000000
30
0.0
40
0.500000039226
100
AcDbArc
50
2.000000000000
51
89.999984741211
0
ARC
5
796
100
AcDbEntity
8
0àÍî ê}-1
6
CONTINUOUS
62
7
100
AcDbCircle
10
103.990000000000
20
185.740000000000
30
0.0
40
0.500000039226
100
AcDbArc
50
90.000000000000
51
178.000000000000
0
ARC
5
797
100
AcDbEntity
8
0àÍî ê}-1
6
CONTINUOUS
62
7
100
AcDbCircle
10
106.200000000000
20
186.440000000000
30
0.0
40
0.200000015691
100
AcDbArc
50
270.000000000000
51
357.999984741211
0
ARC
5
798
100
AcDbEntity
8
0àÍî ê}-1
6
CONTINUOUS
62
7
100
AcDbCircle
10
148.590000000000
20
186.440000000000
30
0.0
40
0.200000015691
100
AcDbArc
50
182.000000000000
51
270.000000000000
0
ARC
5
799
100
AcDbEntity
8
0àÍî ê}-1
6
CONTINUOUS
62
7
100
AcDbCircle
10
148.590000000000
20
186.440000000000
30
0.0
40
0.200000015691
100
AcDbArc
50
182.000015258789
51
270.000000000000
0
ARC
5
79a
100
AcDbEntity
8
0àÍî ê}-1
6
CONTINUOUS
62
7
100
AcDbCircle
10
147.470000000000
20
198.540000000000
30
0.0
40
0.500000039226
100
AcDbArc
50
2.000000000000
51
90.000000000000
0
ARC
5
79b
100
AcDbEntity
8
0àÍî ê}-1
6
CONTINUOUS
62
7
100
AcDbCircle
10
145.910000000000
20
207.140000000000
30
0.0
40
0.200000015691
100
AcDbArc
50
2.000000000000
51
90.000000000000
0
ARC
5
79c
100
AcDbEntity
8
0àÍî ê}-1
6
CONTINUOUS
62
7
100
AcDbCircle
10
108.880000000000
20
207.140000000000
30
0.0
40
0.200000015691
100
AcDbArc
50
90.000000000000
51
-182.000000000000
0
ARC
5
79d
100
AcDbEntity
8
0àÍî ê}-1
6
CONTINUOUS
62
7
100
AcDbCircle
10
105.100000000000
20
186.440000000000
30
0.0
40
0.200000015691
100
AcDbArc
50
270.000000000000
51
359.000000000000
0
ARC
5
79e
100
AcDbEntity
8
0àÍî ê}-1
6
CONTINUOUS
62
7
100
AcDbCircle
10
105.860000000000
20
189.740000000000
30
0.0
40
0.500000039226
100
AcDbArc
50
90.000000000000
51
-181.000000000000
0
ARC
5
79f
100
AcDbEntity
8
0àÍî ê}-1
6
CONTINUOUS
62
7
100
AcDbCircle
10
103.990000000000
20
185.740000000000
30
0.0
40
0.500000039226
100
AcDbArc
50
90.000000000000
51
-182.000000000000
0
ARC
5
7a0
100
AcDbEntity
8
0àÍî ê}-1
6
CONTINUOUS
62
7
100
AcDbCircle
10
104.880000000000
20
205.340000000000
30
0.0
40
0.500000039226
100
AcDbArc
50
90.000000000000
51
-182.000000000000
0
ARC
5
7a1
100
AcDbEntity
8
0àÍî ê}-1
6
CONTINUOUS
62
7
100
AcDbCircle
10
144.000000000000
20
150.740000000000
30
0.0
40
1.500000117679
100
AcDbArc
50
270.000000000000
51
0.000000000000
0
ARC
5
7a2
100
AcDbEntity
8
0àÍî ê}-1
6
CONTINUOUS
62
7
100
AcDbCircle
10
144.000000000000
20
153.540000000000
30
0.0
40
1.500000117679
100
AcDbArc
50
360.000000000000
51
450.000000000000
0
ARC
5
7a3
100
AcDbEntity
8
0àÍî ê}-1
6
CONTINUOUS
62
7
100
AcDbCircle
10
138.000000000000
20
153.540000000000
30
0.0
40
1.500000117679
100
AcDbArc
50
90.000000000000
51
180.000000000000
0
ARC
5
7a4
100
AcDbEntity
8
0àÍî ê}-1
6
CONTINUOUS
62
7
100
AcDbCircle
10
138.000000000000
20
150.740000000000
30
0.0
40
1.500000117679
100
AcDbArc
50
180.000000000000
51
270.000000000000
0
CIRCLE
5
7a5
100
AcDbEntity
8
0àÍî ê}-1
6
CONTINUOUS
62
4
100
AcDbCircle
10
180.440000000000
20
83.400000000000
30
0.0
40
1.500000117679
0
CIRCLE
5
7a6
100
AcDbEntity
8
0àÍî ê}-1
6
CONTINUOUS
62
7
100
AcDbCircle
10
180.440000000000
20
83.400000000000
30
0.0
40
1.200000094143
0
CIRCLE
5
7a7
100
AcDbEntity
8
0àÍî ê}-1
6
CONTINUOUS
62
4
100
AcDbCircle
10
220.440000000000
20
123.400000000000
30
0.0
40
1.500000117679
0
CIRCLE
5
7a8
100
AcDbEntity
8
0àÍî ê}-1
6
CONTINUOUS
62
7
100
AcDbCircle
10
220.440000000000
20
123.400000000000
30
0.0
40
1.200000094143
0
ARC
5
7a9
100
AcDbEntity
8
0àÍî ê}-1
6
CONTINUOUS
62
7
100
AcDbCircle
10
180.370000000000
20
198.530000000000
30
0.0
40
0.500000039226
100
AcDbArc
50
90.000000000000
51
178.000000000000
0
ARC
5
7aa
100
AcDbEntity
8
0àÍî ê}-1
6
CONTINUOUS
62
7
100
AcDbCircle
10
220.510000000000
20
198.530000000000
30
0.0
40
0.500000039226
100
AcDbArc
50
2.000000000000
51
89.999984741211
0
ARC
5
7ab
100
AcDbEntity
8
0àÍî ê}-1
6
CONTINUOUS
62
7
100
AcDbCircle
10
282.930000000000
20
213.070000000000
30
0.0
40
64.050804419884
100
AcDbArc
50
185.306106567383
51
192.663284301758
0
ARC
5
7ac
100
AcDbEntity
8
0àÍî ê}-1
6
CONTINUOUS
62
7
100
AcDbCircle
10
117.400000000000
20
213.150000000000
30
0.0
40
64.600838437683
100
AcDbArc
50
347.368072509766
51
354.662521362305
0
ARC
5
7ad
100
AcDbEntity
8
0àÍî ê}-1
6
CONTINUOUS
62
7
100
AcDbCircle
10
181.920000000000
20
207.130000000000
30
0.0
40
0.200000015691
100
AcDbArc
50
90.000000000000
51
174.815216064453
0
ARC
5
7ae
100
AcDbEntity
8
0àÍî ê}-1
6
CONTINUOUS
62
7
100
AcDbCircle
10
218.950000000000
20
207.130000000000
30
0.0
40
0.200000015691
100
AcDbArc
50
5.184768676758
51
90.000000000000
0
ARC
5
7af
100
AcDbEntity
8
0àÍî ê}-1
6
CONTINUOUS
62
7
100
AcDbCircle
10
182.000000000000
20
207.630000000000
30
0.0
40
0.300000023536
100
AcDbArc
50
176.999984741211
51
270.000000000000
0
ARC
5
7b0
100
AcDbEntity
8
0àÍî ê}-1
6
CONTINUOUS
62
7
100
AcDbCircle
10
218.870000000000
20
207.630000000000
30
0.0
40
0.300000023536
100
AcDbArc
50
270.000000000000
51
2.999984741211
0
ARC
5
7b1
100
AcDbEntity
8
0àÍî ê}-1
6
CONTINUOUS
62
7
100
AcDbCircle
10
183.050000000000
20
214.230000000000
30
0.0
40
1.000000078453
100
AcDbArc
50
90.000000000000
51
177.000000000000
0
ARC
5
7b2
100
AcDbEntity
8
0àÍî ê}-1
6
CONTINUOUS
62
7
100
AcDbCircle
10
217.820000000000
20
214.230000000000
30
0.0
40
1.000000078453
100
AcDbArc
50
3.000000000000
51
90.000000000000
0
ARC
5
7b3
100
AcDbEntity
8
0àÍî ê}-1
6
CONTINUOUS
62
7
100
AcDbCircle
10
147.470000000000
20
198.540000000000
30
0.0
40
0.500000039226
100
AcDbArc
50
2.000000000000
51
-270.000000000000
0
ARC
5
7b4
100
AcDbEntity
8
0àÍî ê}-1
6
CONTINUOUS
62
7
100
AcDbCircle
10
210.400000000000
20
213.160000000000
30
0.0
40
64.561761501131
100
AcDbArc
50
185.336822509766
51
192.635726928711
0
ARC
5
7b5
100
AcDbEntity
8
0àÍî ê}-1
6
CONTINUOUS
62
7
100
AcDbCircle
10
145.910000000000
20
207.140000000000
30
0.0
40
0.200000015691
100
AcDbArc
50
5.184753417969
51
89.999984741211
0
ARC
5
7b6
100
AcDbEntity
8
0àÍî ê}-1
6
CONTINUOUS
62
7
100
AcDbCircle
10
108.880000000000
20
207.140000000000
30
0.0
40
0.200000015691
100
AcDbArc
50
89.999969482422
51
-185.184799194336
0
ARC
5
7b7
100
AcDbEntity
8
0àÍî ê}-1
6
CONTINUOUS
62
7
100
AcDbCircle
10
108.370000000000
20
206.040000000000
30
0.0
40
0.200000015691
100
AcDbArc
50
270.000000000000
51
353.693527221680
0
ARC
5
7b8
100
AcDbEntity
8
0àÍî ê}-1
6
CONTINUOUS
62
7
100
AcDbCircle
10
145.830000000000
20
207.640000000000
30
0.0
40
0.300000023536
100
AcDbArc
50
269.999969482422
51
362.999984741211
0
ARC
5
7b9
100
AcDbEntity
8
0àÍî ê}-1
6
CONTINUOUS
62
7
100
AcDbCircle
10
144.780000000000
20
214.240000000000
30
0.0
40
1.000000078453
100
AcDbArc
50
3.000000000000
51
-270.000000000000
0
ARC
5
7ba
100
AcDbEntity
8
0àÍî ê}-1
6
CONTINUOUS
62
7
100
AcDbCircle
10
110.010000000000
20
214.240000000000
30
0.0
40
1.000000078453
100
AcDbArc
50
90.000000000000
51
177.000000000000
0
ARC
5
7bb
100
AcDbEntity
8
0àÍî ê}-1
6
CONTINUOUS
62
7
100
AcDbCircle
10
107.910000000000
20
198.540000000000
30
0.0
40
0.492349557037
100
AcDbArc
50
90.812393188477
51
178.865280151367
0
ARC
5
7bc
100
AcDbEntity
8
0àÍî ê}-1
6
CONTINUOUS
62
7
100
AcDbCircle
10
107.320000000000
20
197.660000000000
30
0.0
40
0.901989738218
100
AcDbArc
50
83.822982788086
51
-263.822998046875
0
ARC
5
7bd
100
AcDbEntity
8
0àÍî ê}-0
6
CONTINUOUS
62
4
100
AcDbCircle
10
200.440000000000
20
263.220000000000
30
0.0
40
11.912981762851
100
AcDbArc
50
150.000000000000
51
185.807800292969
0
ARC
5
7be
100
AcDbEntity
8
0àÍî ê}-0
6
CONTINUOUS
62
4
100
AcDbCircle
10
200.440000000000
20
263.220000000000
30
0.0
40
11.912981762851
100
AcDbArc
50
184.518173217773
51
30.000015258789
0
TEXT
5
7bf
100
AcDbEntity
8
0àÍî ê}-0
62
4
370
-3
100
AcDbText
10
251.098
20
178.512
30
0.0
40
2.771
41
0.708
50
90.000
1
70
72
1
11
251.375
21
180.410
31
0.0
100
AcDbText
73
1
0
TEXT
5
7c0
100
AcDbEntity
8
0àÍî ê}-0
62
4
370
-3
100
AcDbText
10
235.952
20
164.012
30
0.0
40
2.771
41
0.814
50
90.000
1
41
72
1
11
236.230
21
165.910
31
0.0
100
AcDbText
73
1
0
TEXT
5
7c1
100
AcDbEntity
8
0àÍî ê}-0
62
4
370
-3
100
AcDbText
10
242.133
20
182.233
30
0.0
40
2.771
41
0.755
50
90.000
1
2.5
72
1
11
242.410
21
185.081
31
0.0
100
AcDbText
73
1
0
TEXT
5
7c2
100
AcDbEntity
8
0àÍî ê}-0
62
4
370
-3
100
AcDbText
10
244.889
20
198.717
30
0.0
40
2.771
41
0.714
50
90.000
1
26.5
72
1
11
245.167
21
202.514
31
0.0
100
AcDbText
73
1
0
MTEXT
5
7c3
100
AcDbEntity
8
0àÍî ê}-0
62
4
370
-3
100
AcDbMText
10
228.206
20
134.821
30
0.0
40
2.356
41
0.000
71
7
72
1
1
\W0.809;{\W0.852;2-}Çl{\W0.852;3}Å@{\W0.852;Depth 6}
7
STANDARD
11
1.00000
21
0.00000
31
0.0
0
MTEXT
5
7c4
100
AcDbEntity
8
0àÍî ê}-0
62
4
370
-3
100
AcDbMText
10
193.235
20
192.087
30
0.0
40
2.356
41
0.000
71
7
72
1
1
\W0.951;É”{\W0.852;40}
7
STANDARD
11
1.00000
21
0.00000
31
0.0
0
MTEXT
5
7c5
100
AcDbEntity
8
0àÍî ê}-0
62
4
370
-3
100
AcDbMText
10
198.717
20
220.736
30
0.0
40
2.356
41
0.000
71
7
72
1
1
\W0.865;É”{\W0.852;42}
7
STANDARD
11
1.00000
21
0.00000
31
0.0
0
MTEXT
5
7c6
100
AcDbEntity
8
0àÍî ê}-0
62
4
370
-3
100
AcDbMText
10
235.408
20
196.205
30
0.0
40
2.356
41
0.000
71
7
72
1
1
\W0.792;{\W0.852;18(Measuremen Window}Åj
7
STANDARD
11
0.00000
21
1.00000
31
0.0
0
TEXT
5
7c7
100
AcDbEntity
8
0àÍî ê}-0
62
4
370
-3
100
AcDbText
10
232.242
20
261.499
30
0.0
40
2.771
41
0.678
50
90.000
1
50
72
1
11
232.519
21
263.398
31
0.0
100
AcDbText
73
1
0
TEXT
5
7c8
100
AcDbEntity
8
0àÍî ê}-0
62
4
370
-3
100
AcDbText
10
198.717
20
230.186
30
0.0
40
2.771
41
0.678
50
0.000
1
50
72
1
11
200.615
21
229.909
31
0.0
100
AcDbText
73
1
0
TEXT
5
7c9
100
AcDbEntity
8
0àÍî ê}-0
62
4
370
-3
100
AcDbText
10
131.869
20
251.886
30
0.0
40
2.771
41
0.674
50
0.000
1
Measurement Range 240ﬂ
72
1
11
152.755
21
251.609
31
0.0
100
AcDbText
73
1
0
TEXT
5
7ca
100
AcDbEntity
8
0àÍî ê}-0
62
4
370
-3
100
AcDbText
10
198.884
20
292.598
30
0.0
40
2.771
41
0.814
50
0.000
1
14
72
1
11
200.783
21
292.321
31
0.0
100
AcDbText
73
1
0
MTEXT
5
7cb
100
AcDbEntity
8
0àÍî ê}-0
62
4
370
-3
100
AcDbMText
10
122.280
20
220.662
30
0.0
40
2.356
41
0.000
71
7
72
1
1
\W0.935;É”{\W0.852;37.5}
7
STANDARD
11
1.00000
21
0.00000
31
0.0
0
TEXT
5
7cc
100
AcDbEntity
8
0àÍî ê}-0
62
4
370
-3
100
AcDbText
10
129.788
20
166.796
30
0.0
40
2.771
41
0.847
50
0.000
1
13.6
72
1
11
133.585
21
166.519
31
0.0
100
AcDbText
73
1
0
TEXT
5
7cd
100
AcDbEntity
8
0àÍî ê}-0
62
4
370
-3
100
AcDbText
10
164.323
20
146.037
30
0.0
40
2.771
41
0.815
50
90.000
1
6.9
72
1
11
164.600
21
148.885
31
0.0
100
AcDbText
73
1
0
TEXT
5
7ce
100
AcDbEntity
8
0àÍî ê}-0
62
4
370
-3
100
AcDbText
10
147.697
20
133.323
30
0.0
40
2.771
1
USB Connector
41
0.648
50
0.000
100
AcDbText
0
TEXT
5
7cf
100
AcDbEntity
8
0àÍî ê}-0
62
4
370
-3
100
AcDbText
10
199.019
20
134.836
30
0.0
40
2.771
41
0.711
50
0.000
1
40
72
1
11
200.917
21
134.559
31
0.0
100
AcDbText
73
1
0
TEXT
5
7d0
100
AcDbEntity
8
0àÍî ê}-0
62
4
370
-3
100
AcDbText
10
235.156
20
101.672
30
0.0
40
2.771
41
0.711
50
90.000
1
40
72
1
11
235.433
21
103.571
31
0.0
100
AcDbText
73
1
0
POLYLINE
5
7d1
100
AcDbEntity
  8
0àÍî ê}-0
6
CONTINUOUS
62
4
100
AcDb2dPolyline
66
1
10
0
20
0
70
1
40
0.400
41
0.400
0
VERTEX
5
7d2
100
AcDbEntity
  8
0àÍî ê}-0
6
CONTINUOUS
62
4
100
AcDbVertex
100
AcDb2dVertex
10
141.189
20
151.397
30
0.0
42
1.000
0
VERTEX
5
7d3
100
AcDbEntity
  8
0àÍî ê}-0
6
CONTINUOUS
62
4
100
AcDbVertex
100
AcDb2dVertex
10
141.589
20
151.397
30
0.0
42
1.000
0
SEQEND
5
7d4
100
AcDbEntity
  8
0àÍî ê}-0
0
ENDSEC
 0
SECTION
  2
OBJECTS
 0
DICTIONARY
  5
C
100
AcDbDictionary
  3
ACAD_GROUP
350
D
  3
ACAD_MLINESTYLE
350
E
 0
DICTIONARY
  5
D
102
{ACAD_REACTORS
102
}
100
AcDbDictionary
 0
DICTIONARY
  5
E
102
{ACAD_REACTORS
102
}
100
AcDbDictionary
  3
STANDARD
350
13
0
MLINESTYLE
  5
13
102
{ACAD_REACTORS
102
}
100
AcDbMlineStyle
  2
STANDARD
 70
    0
3

62
256
51
90.0
52
90.0
71
0
0
ACDBPLACEHOLDER
  5
14
102
{ACAD_REACTORS
102
}
0
ENDSEC
0
EOF
